G04 MADE WITH FRITZING*
G04 WWW.FRITZING.ORG*
G04 DOUBLE SIDED*
G04 HOLES PLATED*
G04 CONTOUR ON CENTER OF CONTOUR VECTOR*
%ASAXBY*%
%FSLAX23Y23*%
%MOIN*%
%OFA0B0*%
%SFA1.0B1.0*%
%ADD10C,0.075000*%
%ADD11C,0.094488*%
%ADD12C,0.075361*%
%ADD13C,0.062992*%
%ADD14C,0.074000*%
%ADD15R,0.062992X0.074803*%
%ADD16R,0.062992X0.062992*%
%ADD17C,0.024000*%
%ADD18R,0.001000X0.001000*%
%LNCOPPER1*%
G90*
G70*
G54D10*
X1090Y1885D03*
X1490Y1885D03*
G54D11*
X2010Y1705D03*
X300Y885D03*
X640Y1305D03*
X190Y975D03*
X760Y885D03*
X760Y1215D03*
X390Y775D03*
X1380Y255D03*
X210Y665D03*
G54D12*
X100Y2045D03*
X200Y2045D03*
X300Y2045D03*
X400Y2045D03*
X500Y2045D03*
X600Y2045D03*
X700Y2045D03*
X800Y2045D03*
X900Y2045D03*
X1000Y2045D03*
X1100Y2045D03*
X1200Y2045D03*
X1300Y2045D03*
X1400Y2045D03*
X1500Y2045D03*
X1600Y2045D03*
X1700Y2045D03*
X1800Y2045D03*
X1900Y2045D03*
X2000Y2045D03*
X2000Y2145D03*
X1900Y2145D03*
X1800Y2145D03*
X1700Y2145D03*
X1600Y2145D03*
X1500Y2145D03*
X1400Y2145D03*
X1300Y2145D03*
X1200Y2145D03*
X1100Y2145D03*
X1000Y2145D03*
X900Y2145D03*
X800Y2145D03*
X700Y2145D03*
X600Y2145D03*
X500Y2145D03*
X400Y2145D03*
X300Y2145D03*
X200Y2145D03*
X100Y2145D03*
G54D13*
X930Y1885D03*
X832Y1885D03*
G54D10*
X1060Y1595D03*
X1060Y1195D03*
X940Y1595D03*
X940Y1195D03*
X140Y1685D03*
X540Y1685D03*
X140Y1785D03*
X540Y1785D03*
G54D14*
X1920Y1175D03*
X1910Y1075D03*
X1920Y975D03*
X1910Y875D03*
X1920Y1175D03*
X1910Y1075D03*
X1920Y975D03*
X1910Y875D03*
X590Y255D03*
X490Y265D03*
X390Y255D03*
X290Y265D03*
X590Y255D03*
X490Y265D03*
X390Y255D03*
X290Y265D03*
X1500Y245D03*
X1600Y235D03*
X1700Y245D03*
X1800Y235D03*
X1500Y245D03*
X1600Y235D03*
X1700Y245D03*
X1800Y235D03*
X390Y1305D03*
X440Y1380D03*
X490Y1305D03*
X390Y1305D03*
X440Y1380D03*
X490Y1305D03*
X89Y1307D03*
X139Y1382D03*
X189Y1307D03*
X89Y1307D03*
X139Y1382D03*
X189Y1307D03*
G54D15*
X1238Y1825D03*
X1360Y1825D03*
G54D16*
X930Y1885D03*
G54D17*
X1360Y1885D02*
X1360Y1857D01*
D02*
X1462Y1885D02*
X1360Y1885D01*
D02*
X1240Y1885D02*
X1239Y1857D01*
D02*
X1119Y1885D02*
X1240Y1885D01*
D02*
X1062Y1885D02*
X957Y1885D01*
D02*
X760Y912D02*
X760Y1188D01*
D02*
X733Y885D02*
X327Y885D01*
D02*
X600Y2215D02*
X600Y2177D01*
D02*
X1300Y1705D02*
X1300Y2014D01*
D02*
X1983Y1705D02*
X1300Y1705D01*
D02*
X240Y1856D02*
X240Y1685D01*
D02*
X200Y1856D02*
X240Y1856D01*
D02*
X200Y2014D02*
X200Y1856D01*
D02*
X240Y1685D02*
X512Y1685D01*
D02*
X140Y1757D02*
X140Y1714D01*
D02*
X100Y1785D02*
X112Y1785D01*
D02*
X100Y2014D02*
X100Y1785D01*
D02*
X30Y1595D02*
X30Y2216D01*
D02*
X30Y2216D02*
X200Y2216D01*
D02*
X200Y2216D02*
X200Y2177D01*
D02*
X912Y1595D02*
X30Y1595D01*
D02*
X2088Y1885D02*
X2088Y2215D01*
D02*
X2088Y2215D02*
X600Y2215D01*
D02*
X1519Y1885D02*
X2088Y1885D01*
D02*
X600Y1885D02*
X805Y1885D01*
D02*
X600Y2014D02*
X600Y1885D01*
D02*
X300Y2014D02*
X300Y1785D01*
D02*
X300Y1785D02*
X512Y1785D01*
D02*
X940Y775D02*
X940Y1167D01*
D02*
X417Y775D02*
X940Y775D01*
D02*
X190Y775D02*
X363Y775D01*
D02*
X190Y948D02*
X190Y775D01*
D02*
X1060Y1224D02*
X1060Y1305D01*
D02*
X1060Y1305D02*
X667Y1305D01*
D02*
X1032Y1595D02*
X969Y1595D01*
D02*
X1060Y665D02*
X1060Y1167D01*
D02*
X237Y665D02*
X1060Y665D01*
D02*
X1159Y1594D02*
X1089Y1595D01*
D02*
X1159Y255D02*
X1159Y1594D01*
D02*
X1353Y255D02*
X1159Y255D01*
D02*
X269Y2145D02*
X232Y2145D01*
G54D18*
X1332Y1569D02*
X1339Y1569D01*
X1331Y1568D02*
X1340Y1568D01*
X1330Y1567D02*
X1341Y1567D01*
X1265Y1566D02*
X1269Y1566D01*
X1296Y1566D02*
X1299Y1566D01*
X1330Y1566D02*
X1341Y1566D01*
X1264Y1565D02*
X1270Y1565D01*
X1295Y1565D02*
X1300Y1565D01*
X1330Y1565D02*
X1341Y1565D01*
X1264Y1564D02*
X1270Y1564D01*
X1294Y1564D02*
X1300Y1564D01*
X1330Y1564D02*
X1341Y1564D01*
X1264Y1563D02*
X1270Y1563D01*
X1294Y1563D02*
X1301Y1563D01*
X1330Y1563D02*
X1341Y1563D01*
X1264Y1562D02*
X1270Y1562D01*
X1294Y1562D02*
X1301Y1562D01*
X1330Y1562D02*
X1341Y1562D01*
X1264Y1561D02*
X1270Y1561D01*
X1294Y1561D02*
X1301Y1561D01*
X1331Y1561D02*
X1340Y1561D01*
X1264Y1560D02*
X1270Y1560D01*
X1294Y1560D02*
X1301Y1560D01*
X1332Y1560D02*
X1340Y1560D01*
X1264Y1559D02*
X1270Y1559D01*
X1294Y1559D02*
X1301Y1559D01*
X1334Y1559D02*
X1337Y1559D01*
X1264Y1558D02*
X1270Y1558D01*
X1294Y1558D02*
X1301Y1558D01*
X1264Y1557D02*
X1270Y1557D01*
X1294Y1557D02*
X1301Y1557D01*
X1264Y1556D02*
X1270Y1556D01*
X1294Y1556D02*
X1301Y1556D01*
X1264Y1555D02*
X1270Y1555D01*
X1294Y1555D02*
X1301Y1555D01*
X1264Y1554D02*
X1270Y1554D01*
X1294Y1554D02*
X1301Y1554D01*
X1264Y1553D02*
X1270Y1553D01*
X1294Y1553D02*
X1301Y1553D01*
X1264Y1552D02*
X1270Y1552D01*
X1294Y1552D02*
X1301Y1552D01*
X1264Y1551D02*
X1270Y1551D01*
X1294Y1551D02*
X1301Y1551D01*
X1264Y1550D02*
X1271Y1550D01*
X1294Y1550D02*
X1301Y1550D01*
X1325Y1550D02*
X1339Y1550D01*
X1376Y1550D02*
X1379Y1550D01*
X1393Y1550D02*
X1402Y1550D01*
X1441Y1550D02*
X1456Y1550D01*
X1264Y1549D02*
X1271Y1549D01*
X1293Y1549D02*
X1301Y1549D01*
X1324Y1549D02*
X1340Y1549D01*
X1375Y1549D02*
X1380Y1549D01*
X1390Y1549D02*
X1405Y1549D01*
X1438Y1549D02*
X1458Y1549D01*
X1264Y1548D02*
X1271Y1548D01*
X1293Y1548D02*
X1300Y1548D01*
X1323Y1548D02*
X1341Y1548D01*
X1375Y1548D02*
X1381Y1548D01*
X1388Y1548D02*
X1406Y1548D01*
X1437Y1548D02*
X1460Y1548D01*
X1264Y1547D02*
X1272Y1547D01*
X1293Y1547D02*
X1300Y1547D01*
X1323Y1547D02*
X1341Y1547D01*
X1374Y1547D02*
X1381Y1547D01*
X1387Y1547D02*
X1407Y1547D01*
X1436Y1547D02*
X1461Y1547D01*
X1265Y1546D02*
X1272Y1546D01*
X1292Y1546D02*
X1300Y1546D01*
X1323Y1546D02*
X1341Y1546D01*
X1374Y1546D02*
X1381Y1546D01*
X1385Y1546D02*
X1408Y1546D01*
X1435Y1546D02*
X1462Y1546D01*
X1265Y1545D02*
X1272Y1545D01*
X1292Y1545D02*
X1299Y1545D01*
X1323Y1545D02*
X1341Y1545D01*
X1374Y1545D02*
X1381Y1545D01*
X1384Y1545D02*
X1409Y1545D01*
X1433Y1545D02*
X1463Y1545D01*
X1266Y1544D02*
X1273Y1544D01*
X1291Y1544D02*
X1299Y1544D01*
X1324Y1544D02*
X1341Y1544D01*
X1374Y1544D02*
X1409Y1544D01*
X1432Y1544D02*
X1464Y1544D01*
X1266Y1543D02*
X1273Y1543D01*
X1291Y1543D02*
X1298Y1543D01*
X1325Y1543D02*
X1341Y1543D01*
X1374Y1543D02*
X1410Y1543D01*
X1432Y1543D02*
X1465Y1543D01*
X1266Y1542D02*
X1274Y1542D01*
X1291Y1542D02*
X1298Y1542D01*
X1334Y1542D02*
X1341Y1542D01*
X1374Y1542D02*
X1392Y1542D01*
X1402Y1542D02*
X1410Y1542D01*
X1431Y1542D02*
X1441Y1542D01*
X1456Y1542D02*
X1465Y1542D01*
X1267Y1541D02*
X1274Y1541D01*
X1290Y1541D02*
X1298Y1541D01*
X1334Y1541D02*
X1341Y1541D01*
X1374Y1541D02*
X1391Y1541D01*
X1403Y1541D02*
X1410Y1541D01*
X1431Y1541D02*
X1439Y1541D01*
X1457Y1541D02*
X1466Y1541D01*
X1267Y1540D02*
X1274Y1540D01*
X1290Y1540D02*
X1297Y1540D01*
X1334Y1540D02*
X1341Y1540D01*
X1374Y1540D02*
X1389Y1540D01*
X1404Y1540D02*
X1410Y1540D01*
X1430Y1540D02*
X1438Y1540D01*
X1458Y1540D02*
X1466Y1540D01*
X1267Y1539D02*
X1275Y1539D01*
X1289Y1539D02*
X1297Y1539D01*
X1334Y1539D02*
X1341Y1539D01*
X1374Y1539D02*
X1388Y1539D01*
X1404Y1539D02*
X1410Y1539D01*
X1430Y1539D02*
X1437Y1539D01*
X1459Y1539D02*
X1467Y1539D01*
X1268Y1538D02*
X1275Y1538D01*
X1289Y1538D02*
X1296Y1538D01*
X1334Y1538D02*
X1341Y1538D01*
X1374Y1538D02*
X1386Y1538D01*
X1404Y1538D02*
X1411Y1538D01*
X1430Y1538D02*
X1437Y1538D01*
X1460Y1538D02*
X1467Y1538D01*
X1268Y1537D02*
X1276Y1537D01*
X1289Y1537D02*
X1296Y1537D01*
X1334Y1537D02*
X1341Y1537D01*
X1374Y1537D02*
X1385Y1537D01*
X1404Y1537D02*
X1411Y1537D01*
X1430Y1537D02*
X1437Y1537D01*
X1460Y1537D02*
X1467Y1537D01*
X1269Y1536D02*
X1276Y1536D01*
X1288Y1536D02*
X1296Y1536D01*
X1334Y1536D02*
X1341Y1536D01*
X1374Y1536D02*
X1383Y1536D01*
X1404Y1536D02*
X1411Y1536D01*
X1430Y1536D02*
X1436Y1536D01*
X1460Y1536D02*
X1467Y1536D01*
X1269Y1535D02*
X1276Y1535D01*
X1288Y1535D02*
X1295Y1535D01*
X1334Y1535D02*
X1341Y1535D01*
X1374Y1535D02*
X1382Y1535D01*
X1404Y1535D02*
X1411Y1535D01*
X1430Y1535D02*
X1436Y1535D01*
X1460Y1535D02*
X1467Y1535D01*
X1269Y1534D02*
X1277Y1534D01*
X1288Y1534D02*
X1295Y1534D01*
X1334Y1534D02*
X1341Y1534D01*
X1374Y1534D02*
X1381Y1534D01*
X1404Y1534D02*
X1411Y1534D01*
X1430Y1534D02*
X1436Y1534D01*
X1460Y1534D02*
X1467Y1534D01*
X1270Y1533D02*
X1277Y1533D01*
X1287Y1533D02*
X1294Y1533D01*
X1334Y1533D02*
X1341Y1533D01*
X1374Y1533D02*
X1381Y1533D01*
X1404Y1533D02*
X1411Y1533D01*
X1430Y1533D02*
X1436Y1533D01*
X1460Y1533D02*
X1467Y1533D01*
X1270Y1532D02*
X1278Y1532D01*
X1287Y1532D02*
X1294Y1532D01*
X1334Y1532D02*
X1341Y1532D01*
X1374Y1532D02*
X1381Y1532D01*
X1404Y1532D02*
X1411Y1532D01*
X1430Y1532D02*
X1436Y1532D01*
X1460Y1532D02*
X1467Y1532D01*
X1271Y1531D02*
X1278Y1531D01*
X1286Y1531D02*
X1294Y1531D01*
X1334Y1531D02*
X1341Y1531D01*
X1374Y1531D02*
X1381Y1531D01*
X1404Y1531D02*
X1411Y1531D01*
X1430Y1531D02*
X1436Y1531D01*
X1460Y1531D02*
X1467Y1531D01*
X1271Y1530D02*
X1278Y1530D01*
X1286Y1530D02*
X1293Y1530D01*
X1334Y1530D02*
X1341Y1530D01*
X1374Y1530D02*
X1381Y1530D01*
X1404Y1530D02*
X1411Y1530D01*
X1430Y1530D02*
X1436Y1530D01*
X1460Y1530D02*
X1467Y1530D01*
X1271Y1529D02*
X1279Y1529D01*
X1286Y1529D02*
X1293Y1529D01*
X1334Y1529D02*
X1341Y1529D01*
X1374Y1529D02*
X1381Y1529D01*
X1404Y1529D02*
X1411Y1529D01*
X1430Y1529D02*
X1436Y1529D01*
X1460Y1529D02*
X1467Y1529D01*
X1272Y1528D02*
X1279Y1528D01*
X1285Y1528D02*
X1293Y1528D01*
X1334Y1528D02*
X1341Y1528D01*
X1374Y1528D02*
X1381Y1528D01*
X1404Y1528D02*
X1411Y1528D01*
X1430Y1528D02*
X1436Y1528D01*
X1460Y1528D02*
X1467Y1528D01*
X1272Y1527D02*
X1280Y1527D01*
X1285Y1527D02*
X1292Y1527D01*
X1334Y1527D02*
X1341Y1527D01*
X1374Y1527D02*
X1381Y1527D01*
X1404Y1527D02*
X1411Y1527D01*
X1430Y1527D02*
X1436Y1527D01*
X1460Y1527D02*
X1467Y1527D01*
X1273Y1526D02*
X1280Y1526D01*
X1284Y1526D02*
X1292Y1526D01*
X1334Y1526D02*
X1341Y1526D01*
X1374Y1526D02*
X1381Y1526D01*
X1404Y1526D02*
X1411Y1526D01*
X1430Y1526D02*
X1436Y1526D01*
X1460Y1526D02*
X1467Y1526D01*
X1273Y1525D02*
X1280Y1525D01*
X1284Y1525D02*
X1291Y1525D01*
X1334Y1525D02*
X1341Y1525D01*
X1374Y1525D02*
X1381Y1525D01*
X1404Y1525D02*
X1411Y1525D01*
X1430Y1525D02*
X1436Y1525D01*
X1460Y1525D02*
X1467Y1525D01*
X1273Y1524D02*
X1281Y1524D01*
X1284Y1524D02*
X1291Y1524D01*
X1334Y1524D02*
X1341Y1524D01*
X1374Y1524D02*
X1381Y1524D01*
X1404Y1524D02*
X1411Y1524D01*
X1430Y1524D02*
X1436Y1524D01*
X1460Y1524D02*
X1467Y1524D01*
X1274Y1523D02*
X1281Y1523D01*
X1283Y1523D02*
X1291Y1523D01*
X1334Y1523D02*
X1341Y1523D01*
X1374Y1523D02*
X1381Y1523D01*
X1404Y1523D02*
X1411Y1523D01*
X1430Y1523D02*
X1436Y1523D01*
X1460Y1523D02*
X1467Y1523D01*
X1274Y1522D02*
X1290Y1522D01*
X1334Y1522D02*
X1341Y1522D01*
X1374Y1522D02*
X1381Y1522D01*
X1404Y1522D02*
X1411Y1522D01*
X1430Y1522D02*
X1436Y1522D01*
X1460Y1522D02*
X1467Y1522D01*
X1274Y1521D02*
X1290Y1521D01*
X1334Y1521D02*
X1341Y1521D01*
X1374Y1521D02*
X1381Y1521D01*
X1404Y1521D02*
X1411Y1521D01*
X1430Y1521D02*
X1436Y1521D01*
X1460Y1521D02*
X1467Y1521D01*
X1275Y1520D02*
X1289Y1520D01*
X1334Y1520D02*
X1341Y1520D01*
X1374Y1520D02*
X1381Y1520D01*
X1404Y1520D02*
X1411Y1520D01*
X1430Y1520D02*
X1437Y1520D01*
X1460Y1520D02*
X1467Y1520D01*
X1275Y1519D02*
X1289Y1519D01*
X1334Y1519D02*
X1341Y1519D01*
X1374Y1519D02*
X1381Y1519D01*
X1404Y1519D02*
X1411Y1519D01*
X1430Y1519D02*
X1437Y1519D01*
X1460Y1519D02*
X1467Y1519D01*
X1276Y1518D02*
X1289Y1518D01*
X1334Y1518D02*
X1341Y1518D01*
X1374Y1518D02*
X1381Y1518D01*
X1404Y1518D02*
X1411Y1518D01*
X1430Y1518D02*
X1438Y1518D01*
X1459Y1518D02*
X1467Y1518D01*
X1276Y1517D02*
X1288Y1517D01*
X1334Y1517D02*
X1341Y1517D01*
X1374Y1517D02*
X1381Y1517D01*
X1405Y1517D02*
X1411Y1517D01*
X1430Y1517D02*
X1439Y1517D01*
X1458Y1517D02*
X1466Y1517D01*
X1276Y1516D02*
X1288Y1516D01*
X1334Y1516D02*
X1341Y1516D01*
X1374Y1516D02*
X1381Y1516D01*
X1405Y1516D02*
X1411Y1516D01*
X1431Y1516D02*
X1440Y1516D01*
X1457Y1516D02*
X1466Y1516D01*
X1277Y1515D02*
X1287Y1515D01*
X1334Y1515D02*
X1341Y1515D01*
X1374Y1515D02*
X1381Y1515D01*
X1405Y1515D02*
X1411Y1515D01*
X1431Y1515D02*
X1442Y1515D01*
X1455Y1515D02*
X1465Y1515D01*
X1277Y1514D02*
X1287Y1514D01*
X1325Y1514D02*
X1350Y1514D01*
X1374Y1514D02*
X1381Y1514D01*
X1405Y1514D02*
X1411Y1514D01*
X1432Y1514D02*
X1464Y1514D01*
X1278Y1513D02*
X1287Y1513D01*
X1323Y1513D02*
X1351Y1513D01*
X1374Y1513D02*
X1381Y1513D01*
X1405Y1513D02*
X1411Y1513D01*
X1433Y1513D02*
X1464Y1513D01*
X1278Y1512D02*
X1286Y1512D01*
X1323Y1512D02*
X1352Y1512D01*
X1374Y1512D02*
X1381Y1512D01*
X1405Y1512D02*
X1411Y1512D01*
X1434Y1512D02*
X1463Y1512D01*
X1278Y1511D02*
X1286Y1511D01*
X1323Y1511D02*
X1352Y1511D01*
X1374Y1511D02*
X1381Y1511D01*
X1405Y1511D02*
X1411Y1511D01*
X1435Y1511D02*
X1462Y1511D01*
X1279Y1510D02*
X1285Y1510D01*
X1323Y1510D02*
X1352Y1510D01*
X1374Y1510D02*
X1381Y1510D01*
X1405Y1510D02*
X1411Y1510D01*
X1436Y1510D02*
X1460Y1510D01*
X1279Y1509D02*
X1285Y1509D01*
X1323Y1509D02*
X1352Y1509D01*
X1375Y1509D02*
X1381Y1509D01*
X1405Y1509D02*
X1411Y1509D01*
X1438Y1509D02*
X1459Y1509D01*
X1280Y1508D02*
X1284Y1508D01*
X1324Y1508D02*
X1351Y1508D01*
X1376Y1508D02*
X1380Y1508D01*
X1406Y1508D02*
X1410Y1508D01*
X1439Y1508D02*
X1457Y1508D01*
X1282Y1507D02*
X1282Y1507D01*
X1326Y1507D02*
X1349Y1507D01*
X1408Y1507D02*
X1408Y1507D01*
X1444Y1507D02*
X1453Y1507D01*
X1883Y1212D02*
X1956Y1212D01*
X1638Y1211D02*
X1659Y1211D01*
X1685Y1211D02*
X1698Y1211D01*
X1727Y1211D02*
X1731Y1211D01*
X1760Y1211D02*
X1784Y1211D01*
X1883Y1211D02*
X1956Y1211D01*
X1635Y1210D02*
X1660Y1210D01*
X1685Y1210D02*
X1698Y1210D01*
X1726Y1210D02*
X1732Y1210D01*
X1759Y1210D02*
X1787Y1210D01*
X1883Y1210D02*
X1956Y1210D01*
X1634Y1209D02*
X1661Y1209D01*
X1685Y1209D02*
X1698Y1209D01*
X1725Y1209D02*
X1733Y1209D01*
X1758Y1209D02*
X1788Y1209D01*
X1883Y1209D02*
X1956Y1209D01*
X1633Y1208D02*
X1661Y1208D01*
X1685Y1208D02*
X1699Y1208D01*
X1725Y1208D02*
X1734Y1208D01*
X1758Y1208D02*
X1789Y1208D01*
X1883Y1208D02*
X1956Y1208D01*
X1632Y1207D02*
X1661Y1207D01*
X1685Y1207D02*
X1699Y1207D01*
X1725Y1207D02*
X1734Y1207D01*
X1757Y1207D02*
X1791Y1207D01*
X1883Y1207D02*
X1956Y1207D01*
X1631Y1206D02*
X1661Y1206D01*
X1685Y1206D02*
X1700Y1206D01*
X1725Y1206D02*
X1734Y1206D01*
X1757Y1206D02*
X1792Y1206D01*
X1883Y1206D02*
X1956Y1206D01*
X1630Y1205D02*
X1661Y1205D01*
X1685Y1205D02*
X1700Y1205D01*
X1725Y1205D02*
X1734Y1205D01*
X1758Y1205D02*
X1792Y1205D01*
X1883Y1205D02*
X1956Y1205D01*
X1629Y1204D02*
X1661Y1204D01*
X1685Y1204D02*
X1701Y1204D01*
X1725Y1204D02*
X1734Y1204D01*
X1758Y1204D02*
X1793Y1204D01*
X1883Y1204D02*
X1956Y1204D01*
X1628Y1203D02*
X1660Y1203D01*
X1685Y1203D02*
X1701Y1203D01*
X1725Y1203D02*
X1734Y1203D01*
X1759Y1203D02*
X1793Y1203D01*
X1883Y1203D02*
X1956Y1203D01*
X1628Y1202D02*
X1658Y1202D01*
X1685Y1202D02*
X1702Y1202D01*
X1725Y1202D02*
X1734Y1202D01*
X1760Y1202D02*
X1794Y1202D01*
X1883Y1202D02*
X1956Y1202D01*
X1627Y1201D02*
X1639Y1201D01*
X1685Y1201D02*
X1702Y1201D01*
X1725Y1201D02*
X1734Y1201D01*
X1767Y1201D02*
X1776Y1201D01*
X1783Y1201D02*
X1794Y1201D01*
X1883Y1201D02*
X1956Y1201D01*
X1626Y1200D02*
X1638Y1200D01*
X1685Y1200D02*
X1702Y1200D01*
X1725Y1200D02*
X1734Y1200D01*
X1767Y1200D02*
X1776Y1200D01*
X1784Y1200D02*
X1795Y1200D01*
X1883Y1200D02*
X1956Y1200D01*
X1625Y1199D02*
X1637Y1199D01*
X1685Y1199D02*
X1703Y1199D01*
X1725Y1199D02*
X1734Y1199D01*
X1767Y1199D02*
X1776Y1199D01*
X1785Y1199D02*
X1796Y1199D01*
X1883Y1199D02*
X1956Y1199D01*
X1624Y1198D02*
X1636Y1198D01*
X1685Y1198D02*
X1703Y1198D01*
X1725Y1198D02*
X1734Y1198D01*
X1767Y1198D02*
X1776Y1198D01*
X1786Y1198D02*
X1796Y1198D01*
X1883Y1198D02*
X1956Y1198D01*
X1624Y1197D02*
X1636Y1197D01*
X1685Y1197D02*
X1704Y1197D01*
X1725Y1197D02*
X1734Y1197D01*
X1767Y1197D02*
X1776Y1197D01*
X1786Y1197D02*
X1797Y1197D01*
X1883Y1197D02*
X1956Y1197D01*
X1623Y1196D02*
X1635Y1196D01*
X1685Y1196D02*
X1704Y1196D01*
X1725Y1196D02*
X1734Y1196D01*
X1767Y1196D02*
X1776Y1196D01*
X1787Y1196D02*
X1797Y1196D01*
X1883Y1196D02*
X1956Y1196D01*
X1622Y1195D02*
X1634Y1195D01*
X1685Y1195D02*
X1705Y1195D01*
X1725Y1195D02*
X1734Y1195D01*
X1767Y1195D02*
X1776Y1195D01*
X1787Y1195D02*
X1798Y1195D01*
X1883Y1195D02*
X1914Y1195D01*
X1925Y1195D02*
X1956Y1195D01*
X1621Y1194D02*
X1633Y1194D01*
X1685Y1194D02*
X1705Y1194D01*
X1725Y1194D02*
X1734Y1194D01*
X1767Y1194D02*
X1776Y1194D01*
X1788Y1194D02*
X1798Y1194D01*
X1883Y1194D02*
X1911Y1194D01*
X1928Y1194D02*
X1956Y1194D01*
X1621Y1193D02*
X1632Y1193D01*
X1685Y1193D02*
X1705Y1193D01*
X1725Y1193D02*
X1734Y1193D01*
X1767Y1193D02*
X1776Y1193D01*
X1788Y1193D02*
X1799Y1193D01*
X1883Y1193D02*
X1909Y1193D01*
X1930Y1193D02*
X1956Y1193D01*
X1620Y1192D02*
X1632Y1192D01*
X1685Y1192D02*
X1694Y1192D01*
X1696Y1192D02*
X1706Y1192D01*
X1725Y1192D02*
X1734Y1192D01*
X1767Y1192D02*
X1776Y1192D01*
X1789Y1192D02*
X1799Y1192D01*
X1883Y1192D02*
X1908Y1192D01*
X1931Y1192D02*
X1956Y1192D01*
X1619Y1191D02*
X1631Y1191D01*
X1685Y1191D02*
X1694Y1191D01*
X1696Y1191D02*
X1706Y1191D01*
X1725Y1191D02*
X1734Y1191D01*
X1767Y1191D02*
X1776Y1191D01*
X1789Y1191D02*
X1800Y1191D01*
X1883Y1191D02*
X1906Y1191D01*
X1933Y1191D02*
X1956Y1191D01*
X1618Y1190D02*
X1630Y1190D01*
X1685Y1190D02*
X1694Y1190D01*
X1697Y1190D02*
X1707Y1190D01*
X1725Y1190D02*
X1734Y1190D01*
X1767Y1190D02*
X1776Y1190D01*
X1790Y1190D02*
X1800Y1190D01*
X1883Y1190D02*
X1905Y1190D01*
X1934Y1190D02*
X1956Y1190D01*
X1617Y1189D02*
X1629Y1189D01*
X1685Y1189D02*
X1694Y1189D01*
X1697Y1189D02*
X1707Y1189D01*
X1725Y1189D02*
X1734Y1189D01*
X1767Y1189D02*
X1776Y1189D01*
X1790Y1189D02*
X1801Y1189D01*
X1883Y1189D02*
X1904Y1189D01*
X1935Y1189D02*
X1956Y1189D01*
X1617Y1188D02*
X1628Y1188D01*
X1685Y1188D02*
X1694Y1188D01*
X1698Y1188D02*
X1708Y1188D01*
X1725Y1188D02*
X1734Y1188D01*
X1767Y1188D02*
X1776Y1188D01*
X1791Y1188D02*
X1801Y1188D01*
X1883Y1188D02*
X1903Y1188D01*
X1935Y1188D02*
X1956Y1188D01*
X1616Y1187D02*
X1628Y1187D01*
X1685Y1187D02*
X1694Y1187D01*
X1698Y1187D02*
X1708Y1187D01*
X1725Y1187D02*
X1734Y1187D01*
X1767Y1187D02*
X1776Y1187D01*
X1791Y1187D02*
X1802Y1187D01*
X1883Y1187D02*
X1903Y1187D01*
X1936Y1187D02*
X1956Y1187D01*
X1615Y1186D02*
X1627Y1186D01*
X1685Y1186D02*
X1694Y1186D01*
X1698Y1186D02*
X1709Y1186D01*
X1725Y1186D02*
X1734Y1186D01*
X1767Y1186D02*
X1776Y1186D01*
X1792Y1186D02*
X1802Y1186D01*
X1883Y1186D02*
X1902Y1186D01*
X1937Y1186D02*
X1956Y1186D01*
X1615Y1185D02*
X1626Y1185D01*
X1685Y1185D02*
X1694Y1185D01*
X1699Y1185D02*
X1709Y1185D01*
X1725Y1185D02*
X1734Y1185D01*
X1767Y1185D02*
X1776Y1185D01*
X1792Y1185D02*
X1803Y1185D01*
X1883Y1185D02*
X1901Y1185D01*
X1937Y1185D02*
X1956Y1185D01*
X1614Y1184D02*
X1625Y1184D01*
X1685Y1184D02*
X1694Y1184D01*
X1699Y1184D02*
X1709Y1184D01*
X1725Y1184D02*
X1734Y1184D01*
X1767Y1184D02*
X1776Y1184D01*
X1793Y1184D02*
X1803Y1184D01*
X1883Y1184D02*
X1901Y1184D01*
X1938Y1184D02*
X1956Y1184D01*
X1614Y1183D02*
X1625Y1183D01*
X1685Y1183D02*
X1694Y1183D01*
X1700Y1183D02*
X1710Y1183D01*
X1725Y1183D02*
X1734Y1183D01*
X1767Y1183D02*
X1776Y1183D01*
X1793Y1183D02*
X1804Y1183D01*
X1883Y1183D02*
X1900Y1183D01*
X1938Y1183D02*
X1956Y1183D01*
X1614Y1182D02*
X1624Y1182D01*
X1685Y1182D02*
X1694Y1182D01*
X1700Y1182D02*
X1710Y1182D01*
X1725Y1182D02*
X1734Y1182D01*
X1767Y1182D02*
X1776Y1182D01*
X1794Y1182D02*
X1804Y1182D01*
X1883Y1182D02*
X1900Y1182D01*
X1939Y1182D02*
X1956Y1182D01*
X1613Y1181D02*
X1623Y1181D01*
X1685Y1181D02*
X1694Y1181D01*
X1701Y1181D02*
X1711Y1181D01*
X1725Y1181D02*
X1734Y1181D01*
X1767Y1181D02*
X1776Y1181D01*
X1794Y1181D02*
X1804Y1181D01*
X1883Y1181D02*
X1900Y1181D01*
X1939Y1181D02*
X1956Y1181D01*
X1613Y1180D02*
X1623Y1180D01*
X1685Y1180D02*
X1694Y1180D01*
X1701Y1180D02*
X1711Y1180D01*
X1725Y1180D02*
X1734Y1180D01*
X1767Y1180D02*
X1776Y1180D01*
X1795Y1180D02*
X1805Y1180D01*
X1883Y1180D02*
X1899Y1180D01*
X1939Y1180D02*
X1956Y1180D01*
X1613Y1179D02*
X1622Y1179D01*
X1685Y1179D02*
X1694Y1179D01*
X1702Y1179D02*
X1712Y1179D01*
X1725Y1179D02*
X1734Y1179D01*
X1767Y1179D02*
X1776Y1179D01*
X1795Y1179D02*
X1805Y1179D01*
X1883Y1179D02*
X1899Y1179D01*
X1940Y1179D02*
X1956Y1179D01*
X1613Y1178D02*
X1622Y1178D01*
X1685Y1178D02*
X1694Y1178D01*
X1702Y1178D02*
X1712Y1178D01*
X1725Y1178D02*
X1734Y1178D01*
X1767Y1178D02*
X1776Y1178D01*
X1796Y1178D02*
X1805Y1178D01*
X1883Y1178D02*
X1899Y1178D01*
X1940Y1178D02*
X1956Y1178D01*
X1613Y1177D02*
X1622Y1177D01*
X1685Y1177D02*
X1694Y1177D01*
X1702Y1177D02*
X1712Y1177D01*
X1725Y1177D02*
X1734Y1177D01*
X1767Y1177D02*
X1776Y1177D01*
X1796Y1177D02*
X1806Y1177D01*
X1883Y1177D02*
X1899Y1177D01*
X1940Y1177D02*
X1956Y1177D01*
X1613Y1176D02*
X1622Y1176D01*
X1685Y1176D02*
X1694Y1176D01*
X1703Y1176D02*
X1713Y1176D01*
X1725Y1176D02*
X1734Y1176D01*
X1767Y1176D02*
X1776Y1176D01*
X1796Y1176D02*
X1806Y1176D01*
X1883Y1176D02*
X1899Y1176D01*
X1940Y1176D02*
X1956Y1176D01*
X1613Y1175D02*
X1622Y1175D01*
X1685Y1175D02*
X1694Y1175D01*
X1703Y1175D02*
X1713Y1175D01*
X1725Y1175D02*
X1734Y1175D01*
X1767Y1175D02*
X1776Y1175D01*
X1797Y1175D02*
X1806Y1175D01*
X1883Y1175D02*
X1899Y1175D01*
X1940Y1175D02*
X1956Y1175D01*
X1613Y1174D02*
X1622Y1174D01*
X1685Y1174D02*
X1694Y1174D01*
X1704Y1174D02*
X1714Y1174D01*
X1725Y1174D02*
X1734Y1174D01*
X1767Y1174D02*
X1776Y1174D01*
X1797Y1174D02*
X1806Y1174D01*
X1883Y1174D02*
X1899Y1174D01*
X1940Y1174D02*
X1956Y1174D01*
X1613Y1173D02*
X1622Y1173D01*
X1685Y1173D02*
X1694Y1173D01*
X1704Y1173D02*
X1714Y1173D01*
X1725Y1173D02*
X1734Y1173D01*
X1767Y1173D02*
X1776Y1173D01*
X1797Y1173D02*
X1806Y1173D01*
X1883Y1173D02*
X1899Y1173D01*
X1940Y1173D02*
X1956Y1173D01*
X1613Y1172D02*
X1622Y1172D01*
X1685Y1172D02*
X1694Y1172D01*
X1705Y1172D02*
X1715Y1172D01*
X1725Y1172D02*
X1734Y1172D01*
X1767Y1172D02*
X1776Y1172D01*
X1797Y1172D02*
X1806Y1172D01*
X1883Y1172D02*
X1899Y1172D01*
X1940Y1172D02*
X1956Y1172D01*
X1613Y1171D02*
X1622Y1171D01*
X1685Y1171D02*
X1694Y1171D01*
X1705Y1171D02*
X1715Y1171D01*
X1725Y1171D02*
X1734Y1171D01*
X1767Y1171D02*
X1776Y1171D01*
X1797Y1171D02*
X1806Y1171D01*
X1883Y1171D02*
X1899Y1171D01*
X1939Y1171D02*
X1956Y1171D01*
X1613Y1170D02*
X1622Y1170D01*
X1685Y1170D02*
X1694Y1170D01*
X1705Y1170D02*
X1716Y1170D01*
X1725Y1170D02*
X1734Y1170D01*
X1767Y1170D02*
X1776Y1170D01*
X1797Y1170D02*
X1806Y1170D01*
X1883Y1170D02*
X1900Y1170D01*
X1939Y1170D02*
X1956Y1170D01*
X1613Y1169D02*
X1622Y1169D01*
X1641Y1169D02*
X1661Y1169D01*
X1685Y1169D02*
X1694Y1169D01*
X1706Y1169D02*
X1716Y1169D01*
X1725Y1169D02*
X1734Y1169D01*
X1767Y1169D02*
X1776Y1169D01*
X1796Y1169D02*
X1806Y1169D01*
X1883Y1169D02*
X1900Y1169D01*
X1939Y1169D02*
X1956Y1169D01*
X1613Y1168D02*
X1622Y1168D01*
X1639Y1168D02*
X1662Y1168D01*
X1685Y1168D02*
X1694Y1168D01*
X1706Y1168D02*
X1716Y1168D01*
X1725Y1168D02*
X1734Y1168D01*
X1767Y1168D02*
X1776Y1168D01*
X1796Y1168D02*
X1806Y1168D01*
X1883Y1168D02*
X1900Y1168D01*
X1938Y1168D02*
X1956Y1168D01*
X1613Y1167D02*
X1622Y1167D01*
X1638Y1167D02*
X1662Y1167D01*
X1685Y1167D02*
X1694Y1167D01*
X1707Y1167D02*
X1717Y1167D01*
X1725Y1167D02*
X1734Y1167D01*
X1767Y1167D02*
X1776Y1167D01*
X1796Y1167D02*
X1805Y1167D01*
X1883Y1167D02*
X1901Y1167D01*
X1938Y1167D02*
X1956Y1167D01*
X1613Y1166D02*
X1622Y1166D01*
X1638Y1166D02*
X1662Y1166D01*
X1685Y1166D02*
X1694Y1166D01*
X1707Y1166D02*
X1717Y1166D01*
X1725Y1166D02*
X1734Y1166D01*
X1767Y1166D02*
X1776Y1166D01*
X1795Y1166D02*
X1805Y1166D01*
X1883Y1166D02*
X1901Y1166D01*
X1937Y1166D02*
X1956Y1166D01*
X1613Y1165D02*
X1622Y1165D01*
X1638Y1165D02*
X1662Y1165D01*
X1685Y1165D02*
X1694Y1165D01*
X1708Y1165D02*
X1718Y1165D01*
X1725Y1165D02*
X1734Y1165D01*
X1767Y1165D02*
X1776Y1165D01*
X1795Y1165D02*
X1805Y1165D01*
X1883Y1165D02*
X1902Y1165D01*
X1937Y1165D02*
X1956Y1165D01*
X1613Y1164D02*
X1622Y1164D01*
X1638Y1164D02*
X1662Y1164D01*
X1685Y1164D02*
X1694Y1164D01*
X1708Y1164D02*
X1718Y1164D01*
X1725Y1164D02*
X1734Y1164D01*
X1767Y1164D02*
X1776Y1164D01*
X1794Y1164D02*
X1804Y1164D01*
X1883Y1164D02*
X1903Y1164D01*
X1936Y1164D02*
X1956Y1164D01*
X1613Y1163D02*
X1622Y1163D01*
X1638Y1163D02*
X1662Y1163D01*
X1685Y1163D02*
X1694Y1163D01*
X1709Y1163D02*
X1719Y1163D01*
X1725Y1163D02*
X1734Y1163D01*
X1767Y1163D02*
X1776Y1163D01*
X1794Y1163D02*
X1804Y1163D01*
X1883Y1163D02*
X1904Y1163D01*
X1935Y1163D02*
X1956Y1163D01*
X1613Y1162D02*
X1622Y1162D01*
X1638Y1162D02*
X1662Y1162D01*
X1685Y1162D02*
X1694Y1162D01*
X1709Y1162D02*
X1719Y1162D01*
X1725Y1162D02*
X1734Y1162D01*
X1767Y1162D02*
X1776Y1162D01*
X1793Y1162D02*
X1803Y1162D01*
X1883Y1162D02*
X1904Y1162D01*
X1934Y1162D02*
X1956Y1162D01*
X1613Y1161D02*
X1622Y1161D01*
X1639Y1161D02*
X1662Y1161D01*
X1685Y1161D02*
X1694Y1161D01*
X1709Y1161D02*
X1719Y1161D01*
X1725Y1161D02*
X1734Y1161D01*
X1767Y1161D02*
X1776Y1161D01*
X1793Y1161D02*
X1803Y1161D01*
X1883Y1161D02*
X1905Y1161D01*
X1933Y1161D02*
X1956Y1161D01*
X1613Y1160D02*
X1622Y1160D01*
X1640Y1160D02*
X1662Y1160D01*
X1685Y1160D02*
X1694Y1160D01*
X1710Y1160D02*
X1720Y1160D01*
X1725Y1160D02*
X1734Y1160D01*
X1767Y1160D02*
X1776Y1160D01*
X1792Y1160D02*
X1802Y1160D01*
X1883Y1160D02*
X1907Y1160D01*
X1932Y1160D02*
X1956Y1160D01*
X1613Y1159D02*
X1622Y1159D01*
X1652Y1159D02*
X1662Y1159D01*
X1685Y1159D02*
X1694Y1159D01*
X1710Y1159D02*
X1720Y1159D01*
X1725Y1159D02*
X1734Y1159D01*
X1767Y1159D02*
X1776Y1159D01*
X1792Y1159D02*
X1802Y1159D01*
X1883Y1159D02*
X1908Y1159D01*
X1931Y1159D02*
X1956Y1159D01*
X1613Y1158D02*
X1622Y1158D01*
X1652Y1158D02*
X1662Y1158D01*
X1685Y1158D02*
X1694Y1158D01*
X1711Y1158D02*
X1721Y1158D01*
X1725Y1158D02*
X1734Y1158D01*
X1767Y1158D02*
X1776Y1158D01*
X1791Y1158D02*
X1801Y1158D01*
X1883Y1158D02*
X1910Y1158D01*
X1929Y1158D02*
X1956Y1158D01*
X1613Y1157D02*
X1622Y1157D01*
X1652Y1157D02*
X1662Y1157D01*
X1685Y1157D02*
X1694Y1157D01*
X1711Y1157D02*
X1721Y1157D01*
X1725Y1157D02*
X1734Y1157D01*
X1767Y1157D02*
X1776Y1157D01*
X1791Y1157D02*
X1801Y1157D01*
X1883Y1157D02*
X1912Y1157D01*
X1927Y1157D02*
X1956Y1157D01*
X1613Y1156D02*
X1622Y1156D01*
X1652Y1156D02*
X1662Y1156D01*
X1685Y1156D02*
X1694Y1156D01*
X1712Y1156D02*
X1722Y1156D01*
X1725Y1156D02*
X1734Y1156D01*
X1767Y1156D02*
X1776Y1156D01*
X1790Y1156D02*
X1800Y1156D01*
X1883Y1156D02*
X1915Y1156D01*
X1924Y1156D02*
X1956Y1156D01*
X1613Y1155D02*
X1622Y1155D01*
X1652Y1155D02*
X1662Y1155D01*
X1685Y1155D02*
X1694Y1155D01*
X1712Y1155D02*
X1722Y1155D01*
X1725Y1155D02*
X1734Y1155D01*
X1767Y1155D02*
X1776Y1155D01*
X1790Y1155D02*
X1800Y1155D01*
X1883Y1155D02*
X1956Y1155D01*
X1613Y1154D02*
X1622Y1154D01*
X1652Y1154D02*
X1662Y1154D01*
X1685Y1154D02*
X1694Y1154D01*
X1712Y1154D02*
X1723Y1154D01*
X1725Y1154D02*
X1734Y1154D01*
X1767Y1154D02*
X1776Y1154D01*
X1789Y1154D02*
X1799Y1154D01*
X1883Y1154D02*
X1956Y1154D01*
X1613Y1153D02*
X1622Y1153D01*
X1652Y1153D02*
X1662Y1153D01*
X1685Y1153D02*
X1694Y1153D01*
X1713Y1153D02*
X1723Y1153D01*
X1725Y1153D02*
X1734Y1153D01*
X1767Y1153D02*
X1776Y1153D01*
X1789Y1153D02*
X1799Y1153D01*
X1883Y1153D02*
X1956Y1153D01*
X1613Y1152D02*
X1622Y1152D01*
X1652Y1152D02*
X1662Y1152D01*
X1685Y1152D02*
X1694Y1152D01*
X1713Y1152D02*
X1734Y1152D01*
X1767Y1152D02*
X1776Y1152D01*
X1788Y1152D02*
X1798Y1152D01*
X1883Y1152D02*
X1956Y1152D01*
X1613Y1151D02*
X1622Y1151D01*
X1652Y1151D02*
X1662Y1151D01*
X1685Y1151D02*
X1694Y1151D01*
X1714Y1151D02*
X1734Y1151D01*
X1767Y1151D02*
X1776Y1151D01*
X1788Y1151D02*
X1798Y1151D01*
X1883Y1151D02*
X1956Y1151D01*
X1613Y1150D02*
X1622Y1150D01*
X1652Y1150D02*
X1662Y1150D01*
X1685Y1150D02*
X1694Y1150D01*
X1714Y1150D02*
X1734Y1150D01*
X1767Y1150D02*
X1776Y1150D01*
X1787Y1150D02*
X1797Y1150D01*
X1883Y1150D02*
X1956Y1150D01*
X1613Y1149D02*
X1622Y1149D01*
X1652Y1149D02*
X1661Y1149D01*
X1685Y1149D02*
X1694Y1149D01*
X1715Y1149D02*
X1734Y1149D01*
X1767Y1149D02*
X1776Y1149D01*
X1787Y1149D02*
X1797Y1149D01*
X1883Y1149D02*
X1956Y1149D01*
X1613Y1148D02*
X1622Y1148D01*
X1652Y1148D02*
X1661Y1148D01*
X1685Y1148D02*
X1694Y1148D01*
X1715Y1148D02*
X1734Y1148D01*
X1767Y1148D02*
X1776Y1148D01*
X1786Y1148D02*
X1796Y1148D01*
X1883Y1148D02*
X1956Y1148D01*
X1613Y1147D02*
X1622Y1147D01*
X1652Y1147D02*
X1661Y1147D01*
X1685Y1147D02*
X1694Y1147D01*
X1716Y1147D02*
X1734Y1147D01*
X1767Y1147D02*
X1776Y1147D01*
X1786Y1147D02*
X1796Y1147D01*
X1883Y1147D02*
X1956Y1147D01*
X1613Y1146D02*
X1623Y1146D01*
X1651Y1146D02*
X1661Y1146D01*
X1685Y1146D02*
X1694Y1146D01*
X1716Y1146D02*
X1734Y1146D01*
X1767Y1146D02*
X1776Y1146D01*
X1785Y1146D02*
X1795Y1146D01*
X1883Y1146D02*
X1956Y1146D01*
X1613Y1145D02*
X1624Y1145D01*
X1650Y1145D02*
X1661Y1145D01*
X1685Y1145D02*
X1694Y1145D01*
X1716Y1145D02*
X1734Y1145D01*
X1767Y1145D02*
X1776Y1145D01*
X1784Y1145D02*
X1795Y1145D01*
X1883Y1145D02*
X1956Y1145D01*
X1614Y1144D02*
X1626Y1144D01*
X1649Y1144D02*
X1661Y1144D01*
X1685Y1144D02*
X1694Y1144D01*
X1717Y1144D02*
X1734Y1144D01*
X1767Y1144D02*
X1776Y1144D01*
X1782Y1144D02*
X1794Y1144D01*
X1883Y1144D02*
X1956Y1144D01*
X1614Y1143D02*
X1660Y1143D01*
X1685Y1143D02*
X1694Y1143D01*
X1717Y1143D02*
X1734Y1143D01*
X1760Y1143D02*
X1794Y1143D01*
X1883Y1143D02*
X1956Y1143D01*
X1614Y1142D02*
X1660Y1142D01*
X1685Y1142D02*
X1694Y1142D01*
X1718Y1142D02*
X1734Y1142D01*
X1759Y1142D02*
X1793Y1142D01*
X1883Y1142D02*
X1956Y1142D01*
X1615Y1141D02*
X1659Y1141D01*
X1685Y1141D02*
X1694Y1141D01*
X1718Y1141D02*
X1734Y1141D01*
X1758Y1141D02*
X1793Y1141D01*
X1883Y1141D02*
X1956Y1141D01*
X1616Y1140D02*
X1659Y1140D01*
X1685Y1140D02*
X1694Y1140D01*
X1719Y1140D02*
X1734Y1140D01*
X1758Y1140D02*
X1792Y1140D01*
X1883Y1140D02*
X1956Y1140D01*
X1616Y1139D02*
X1658Y1139D01*
X1685Y1139D02*
X1694Y1139D01*
X1719Y1139D02*
X1734Y1139D01*
X1757Y1139D02*
X1792Y1139D01*
X1883Y1139D02*
X1956Y1139D01*
X1617Y1138D02*
X1657Y1138D01*
X1685Y1138D02*
X1694Y1138D01*
X1719Y1138D02*
X1734Y1138D01*
X1757Y1138D02*
X1791Y1138D01*
X1618Y1137D02*
X1656Y1137D01*
X1685Y1137D02*
X1694Y1137D01*
X1720Y1137D02*
X1734Y1137D01*
X1758Y1137D02*
X1790Y1137D01*
X1620Y1136D02*
X1654Y1136D01*
X1686Y1136D02*
X1693Y1136D01*
X1720Y1136D02*
X1734Y1136D01*
X1758Y1136D02*
X1788Y1136D01*
X1622Y1135D02*
X1653Y1135D01*
X1687Y1135D02*
X1692Y1135D01*
X1721Y1135D02*
X1734Y1135D01*
X1759Y1135D02*
X1786Y1135D01*
X1624Y1134D02*
X1650Y1134D01*
X1688Y1134D02*
X1691Y1134D01*
X1721Y1134D02*
X1734Y1134D01*
X1761Y1134D02*
X1783Y1134D01*
X2047Y1114D02*
X2124Y1114D01*
X2047Y1113D02*
X2124Y1113D01*
X1524Y1112D02*
X1557Y1112D01*
X1668Y1112D02*
X1701Y1112D01*
X2047Y1112D02*
X2124Y1112D01*
X1520Y1111D02*
X1561Y1111D01*
X1665Y1111D02*
X1706Y1111D01*
X1737Y1111D02*
X1742Y1111D01*
X1777Y1111D02*
X1782Y1111D01*
X2047Y1111D02*
X2124Y1111D01*
X1519Y1110D02*
X1563Y1110D01*
X1664Y1110D02*
X1707Y1110D01*
X1736Y1110D02*
X1743Y1110D01*
X1776Y1110D02*
X1783Y1110D01*
X2047Y1110D02*
X2124Y1110D01*
X1519Y1109D02*
X1564Y1109D01*
X1663Y1109D02*
X1709Y1109D01*
X1736Y1109D02*
X1744Y1109D01*
X1775Y1109D02*
X1783Y1109D01*
X2047Y1109D02*
X2124Y1109D01*
X1518Y1108D02*
X1565Y1108D01*
X1663Y1108D02*
X1709Y1108D01*
X1735Y1108D02*
X1744Y1108D01*
X1775Y1108D02*
X1784Y1108D01*
X2047Y1108D02*
X2124Y1108D01*
X1518Y1107D02*
X1566Y1107D01*
X1663Y1107D02*
X1710Y1107D01*
X1735Y1107D02*
X1744Y1107D01*
X1775Y1107D02*
X1784Y1107D01*
X2047Y1107D02*
X2124Y1107D01*
X1518Y1106D02*
X1566Y1106D01*
X1663Y1106D02*
X1711Y1106D01*
X1735Y1106D02*
X1744Y1106D01*
X1775Y1106D02*
X1784Y1106D01*
X2047Y1106D02*
X2124Y1106D01*
X1519Y1105D02*
X1567Y1105D01*
X1663Y1105D02*
X1711Y1105D01*
X1735Y1105D02*
X1744Y1105D01*
X1775Y1105D02*
X1784Y1105D01*
X2047Y1105D02*
X2124Y1105D01*
X1519Y1104D02*
X1567Y1104D01*
X1664Y1104D02*
X1711Y1104D01*
X1735Y1104D02*
X1744Y1104D01*
X1775Y1104D02*
X1784Y1104D01*
X2047Y1104D02*
X2056Y1104D01*
X2081Y1104D02*
X2090Y1104D01*
X2115Y1104D02*
X2124Y1104D01*
X1520Y1103D02*
X1567Y1103D01*
X1665Y1103D02*
X1712Y1103D01*
X1735Y1103D02*
X1744Y1103D01*
X1775Y1103D02*
X1784Y1103D01*
X2047Y1103D02*
X2056Y1103D01*
X2081Y1103D02*
X2090Y1103D01*
X2115Y1103D02*
X2124Y1103D01*
X1523Y1102D02*
X1567Y1102D01*
X1667Y1102D02*
X1712Y1102D01*
X1735Y1102D02*
X1744Y1102D01*
X1775Y1102D02*
X1784Y1102D01*
X2047Y1102D02*
X2056Y1102D01*
X2081Y1102D02*
X2090Y1102D01*
X2115Y1102D02*
X2124Y1102D01*
X1558Y1101D02*
X1567Y1101D01*
X1703Y1101D02*
X1712Y1101D01*
X1735Y1101D02*
X1744Y1101D01*
X1775Y1101D02*
X1784Y1101D01*
X2047Y1101D02*
X2056Y1101D01*
X2081Y1101D02*
X2090Y1101D01*
X2115Y1101D02*
X2124Y1101D01*
X1558Y1100D02*
X1567Y1100D01*
X1703Y1100D02*
X1712Y1100D01*
X1735Y1100D02*
X1744Y1100D01*
X1775Y1100D02*
X1784Y1100D01*
X2047Y1100D02*
X2056Y1100D01*
X2081Y1100D02*
X2090Y1100D01*
X2115Y1100D02*
X2124Y1100D01*
X1558Y1099D02*
X1567Y1099D01*
X1703Y1099D02*
X1712Y1099D01*
X1735Y1099D02*
X1744Y1099D01*
X1775Y1099D02*
X1784Y1099D01*
X2047Y1099D02*
X2056Y1099D01*
X2081Y1099D02*
X2090Y1099D01*
X2115Y1099D02*
X2124Y1099D01*
X1558Y1098D02*
X1567Y1098D01*
X1703Y1098D02*
X1712Y1098D01*
X1735Y1098D02*
X1744Y1098D01*
X1775Y1098D02*
X1784Y1098D01*
X2047Y1098D02*
X2056Y1098D01*
X2081Y1098D02*
X2090Y1098D01*
X2115Y1098D02*
X2124Y1098D01*
X1558Y1097D02*
X1567Y1097D01*
X1703Y1097D02*
X1712Y1097D01*
X1735Y1097D02*
X1744Y1097D01*
X1775Y1097D02*
X1784Y1097D01*
X2047Y1097D02*
X2056Y1097D01*
X2081Y1097D02*
X2090Y1097D01*
X2115Y1097D02*
X2124Y1097D01*
X1558Y1096D02*
X1567Y1096D01*
X1703Y1096D02*
X1712Y1096D01*
X1735Y1096D02*
X1744Y1096D01*
X1775Y1096D02*
X1784Y1096D01*
X2047Y1096D02*
X2056Y1096D01*
X2081Y1096D02*
X2090Y1096D01*
X2115Y1096D02*
X2124Y1096D01*
X1558Y1095D02*
X1567Y1095D01*
X1703Y1095D02*
X1712Y1095D01*
X1735Y1095D02*
X1744Y1095D01*
X1775Y1095D02*
X1784Y1095D01*
X2047Y1095D02*
X2056Y1095D01*
X2081Y1095D02*
X2090Y1095D01*
X2115Y1095D02*
X2124Y1095D01*
X1558Y1094D02*
X1567Y1094D01*
X1703Y1094D02*
X1712Y1094D01*
X1735Y1094D02*
X1744Y1094D01*
X1775Y1094D02*
X1784Y1094D01*
X2047Y1094D02*
X2056Y1094D01*
X2081Y1094D02*
X2090Y1094D01*
X2115Y1094D02*
X2124Y1094D01*
X1558Y1093D02*
X1567Y1093D01*
X1703Y1093D02*
X1712Y1093D01*
X1735Y1093D02*
X1744Y1093D01*
X1775Y1093D02*
X1784Y1093D01*
X2047Y1093D02*
X2056Y1093D01*
X2081Y1093D02*
X2090Y1093D01*
X2115Y1093D02*
X2124Y1093D01*
X1558Y1092D02*
X1567Y1092D01*
X1703Y1092D02*
X1712Y1092D01*
X1735Y1092D02*
X1744Y1092D01*
X1775Y1092D02*
X1784Y1092D01*
X2047Y1092D02*
X2056Y1092D01*
X2081Y1092D02*
X2090Y1092D01*
X2115Y1092D02*
X2124Y1092D01*
X1558Y1091D02*
X1567Y1091D01*
X1703Y1091D02*
X1712Y1091D01*
X1735Y1091D02*
X1744Y1091D01*
X1775Y1091D02*
X1784Y1091D01*
X2047Y1091D02*
X2056Y1091D01*
X2081Y1091D02*
X2090Y1091D01*
X2115Y1091D02*
X2124Y1091D01*
X1558Y1090D02*
X1567Y1090D01*
X1703Y1090D02*
X1712Y1090D01*
X1735Y1090D02*
X1745Y1090D01*
X1774Y1090D02*
X1784Y1090D01*
X2047Y1090D02*
X2056Y1090D01*
X2081Y1090D02*
X2090Y1090D01*
X2115Y1090D02*
X2124Y1090D01*
X1558Y1089D02*
X1567Y1089D01*
X1703Y1089D02*
X1712Y1089D01*
X1735Y1089D02*
X1745Y1089D01*
X1774Y1089D02*
X1784Y1089D01*
X2047Y1089D02*
X2056Y1089D01*
X2081Y1089D02*
X2090Y1089D01*
X2115Y1089D02*
X2124Y1089D01*
X1558Y1088D02*
X1567Y1088D01*
X1703Y1088D02*
X1712Y1088D01*
X1736Y1088D02*
X1745Y1088D01*
X1774Y1088D02*
X1784Y1088D01*
X2047Y1088D02*
X2056Y1088D01*
X2081Y1088D02*
X2090Y1088D01*
X2115Y1088D02*
X2124Y1088D01*
X1558Y1087D02*
X1567Y1087D01*
X1703Y1087D02*
X1712Y1087D01*
X1736Y1087D02*
X1746Y1087D01*
X1773Y1087D02*
X1783Y1087D01*
X2047Y1087D02*
X2056Y1087D01*
X2081Y1087D02*
X2090Y1087D01*
X2115Y1087D02*
X2124Y1087D01*
X1558Y1086D02*
X1567Y1086D01*
X1703Y1086D02*
X1712Y1086D01*
X1736Y1086D02*
X1746Y1086D01*
X1773Y1086D02*
X1783Y1086D01*
X2047Y1086D02*
X2056Y1086D01*
X2081Y1086D02*
X2090Y1086D01*
X2115Y1086D02*
X2124Y1086D01*
X1558Y1085D02*
X1567Y1085D01*
X1703Y1085D02*
X1712Y1085D01*
X1737Y1085D02*
X1747Y1085D01*
X1773Y1085D02*
X1782Y1085D01*
X2047Y1085D02*
X2056Y1085D01*
X2081Y1085D02*
X2090Y1085D01*
X2115Y1085D02*
X2124Y1085D01*
X1558Y1084D02*
X1567Y1084D01*
X1703Y1084D02*
X1712Y1084D01*
X1737Y1084D02*
X1747Y1084D01*
X1772Y1084D02*
X1782Y1084D01*
X2047Y1084D02*
X2056Y1084D01*
X2081Y1084D02*
X2090Y1084D01*
X2115Y1084D02*
X2124Y1084D01*
X1558Y1083D02*
X1567Y1083D01*
X1703Y1083D02*
X1712Y1083D01*
X1737Y1083D02*
X1747Y1083D01*
X1772Y1083D02*
X1782Y1083D01*
X2047Y1083D02*
X2057Y1083D01*
X2081Y1083D02*
X2091Y1083D01*
X2115Y1083D02*
X2124Y1083D01*
X1558Y1082D02*
X1567Y1082D01*
X1702Y1082D02*
X1712Y1082D01*
X1738Y1082D02*
X1748Y1082D01*
X1771Y1082D02*
X1781Y1082D01*
X2047Y1082D02*
X2057Y1082D01*
X2080Y1082D02*
X2091Y1082D01*
X2114Y1082D02*
X2124Y1082D01*
X1557Y1081D02*
X1567Y1081D01*
X1702Y1081D02*
X1711Y1081D01*
X1738Y1081D02*
X1748Y1081D01*
X1771Y1081D02*
X1781Y1081D01*
X2048Y1081D02*
X2057Y1081D01*
X2080Y1081D02*
X2091Y1081D01*
X2114Y1081D02*
X2124Y1081D01*
X1557Y1080D02*
X1567Y1080D01*
X1701Y1080D02*
X1711Y1080D01*
X1739Y1080D02*
X1749Y1080D01*
X1771Y1080D02*
X1780Y1080D01*
X2048Y1080D02*
X2058Y1080D01*
X2079Y1080D02*
X2092Y1080D01*
X2113Y1080D02*
X2123Y1080D01*
X1556Y1079D02*
X1566Y1079D01*
X1700Y1079D02*
X1711Y1079D01*
X1739Y1079D02*
X1749Y1079D01*
X1770Y1079D02*
X1780Y1079D01*
X2048Y1079D02*
X2059Y1079D01*
X2079Y1079D02*
X2093Y1079D01*
X2113Y1079D02*
X2123Y1079D01*
X1533Y1078D02*
X1566Y1078D01*
X1677Y1078D02*
X1711Y1078D01*
X1739Y1078D02*
X1749Y1078D01*
X1770Y1078D02*
X1780Y1078D01*
X2049Y1078D02*
X2060Y1078D01*
X2078Y1078D02*
X2094Y1078D01*
X2112Y1078D02*
X2123Y1078D01*
X1530Y1077D02*
X1566Y1077D01*
X1675Y1077D02*
X1710Y1077D01*
X1740Y1077D02*
X1750Y1077D01*
X1769Y1077D02*
X1779Y1077D01*
X2049Y1077D02*
X2061Y1077D01*
X2077Y1077D02*
X2095Y1077D01*
X2110Y1077D02*
X2122Y1077D01*
X1529Y1076D02*
X1565Y1076D01*
X1674Y1076D02*
X1710Y1076D01*
X1740Y1076D02*
X1750Y1076D01*
X1769Y1076D02*
X1779Y1076D01*
X2050Y1076D02*
X2063Y1076D01*
X2075Y1076D02*
X2097Y1076D01*
X2108Y1076D02*
X2122Y1076D01*
X1529Y1075D02*
X1565Y1075D01*
X1673Y1075D02*
X1709Y1075D01*
X1741Y1075D02*
X1750Y1075D01*
X1769Y1075D02*
X1778Y1075D01*
X2050Y1075D02*
X2121Y1075D01*
X1528Y1074D02*
X1564Y1074D01*
X1673Y1074D02*
X1708Y1074D01*
X1741Y1074D02*
X1751Y1074D01*
X1768Y1074D02*
X1778Y1074D01*
X2051Y1074D02*
X2120Y1074D01*
X1528Y1073D02*
X1563Y1073D01*
X1673Y1073D02*
X1708Y1073D01*
X1741Y1073D02*
X1751Y1073D01*
X1768Y1073D02*
X1778Y1073D01*
X2052Y1073D02*
X2120Y1073D01*
X1528Y1072D02*
X1564Y1072D01*
X1673Y1072D02*
X1708Y1072D01*
X1742Y1072D02*
X1752Y1072D01*
X1767Y1072D02*
X1777Y1072D01*
X2052Y1072D02*
X2119Y1072D01*
X1529Y1071D02*
X1565Y1071D01*
X1673Y1071D02*
X1709Y1071D01*
X1742Y1071D02*
X1752Y1071D01*
X1767Y1071D02*
X1777Y1071D01*
X2053Y1071D02*
X2084Y1071D01*
X2087Y1071D02*
X2118Y1071D01*
X1529Y1070D02*
X1565Y1070D01*
X1674Y1070D02*
X1710Y1070D01*
X1742Y1070D02*
X1752Y1070D01*
X1767Y1070D02*
X1777Y1070D01*
X2055Y1070D02*
X2083Y1070D01*
X2088Y1070D02*
X2117Y1070D01*
X1530Y1069D02*
X1566Y1069D01*
X1675Y1069D02*
X1710Y1069D01*
X1743Y1069D02*
X1753Y1069D01*
X1766Y1069D02*
X1776Y1069D01*
X2056Y1069D02*
X2082Y1069D01*
X2090Y1069D02*
X2115Y1069D01*
X1534Y1068D02*
X1566Y1068D01*
X1678Y1068D02*
X1711Y1068D01*
X1743Y1068D02*
X1753Y1068D01*
X1766Y1068D02*
X1776Y1068D01*
X2057Y1068D02*
X2080Y1068D01*
X2091Y1068D02*
X2114Y1068D01*
X1556Y1067D02*
X1566Y1067D01*
X1700Y1067D02*
X1711Y1067D01*
X1744Y1067D02*
X1754Y1067D01*
X1765Y1067D02*
X1775Y1067D01*
X2059Y1067D02*
X2078Y1067D01*
X2093Y1067D02*
X2112Y1067D01*
X1557Y1066D02*
X1567Y1066D01*
X1701Y1066D02*
X1711Y1066D01*
X1744Y1066D02*
X1754Y1066D01*
X1765Y1066D02*
X1775Y1066D01*
X2062Y1066D02*
X2075Y1066D01*
X2096Y1066D02*
X2109Y1066D01*
X1557Y1065D02*
X1567Y1065D01*
X1609Y1065D02*
X1621Y1065D01*
X1702Y1065D02*
X1711Y1065D01*
X1744Y1065D02*
X1754Y1065D01*
X1765Y1065D02*
X1775Y1065D01*
X1558Y1064D02*
X1567Y1064D01*
X1607Y1064D02*
X1623Y1064D01*
X1702Y1064D02*
X1712Y1064D01*
X1745Y1064D02*
X1755Y1064D01*
X1764Y1064D02*
X1774Y1064D01*
X1558Y1063D02*
X1567Y1063D01*
X1606Y1063D02*
X1624Y1063D01*
X1703Y1063D02*
X1712Y1063D01*
X1745Y1063D02*
X1755Y1063D01*
X1764Y1063D02*
X1774Y1063D01*
X1558Y1062D02*
X1567Y1062D01*
X1606Y1062D02*
X1624Y1062D01*
X1703Y1062D02*
X1712Y1062D01*
X1746Y1062D02*
X1756Y1062D01*
X1764Y1062D02*
X1773Y1062D01*
X1558Y1061D02*
X1567Y1061D01*
X1606Y1061D02*
X1624Y1061D01*
X1703Y1061D02*
X1712Y1061D01*
X1746Y1061D02*
X1756Y1061D01*
X1763Y1061D02*
X1773Y1061D01*
X1558Y1060D02*
X1567Y1060D01*
X1605Y1060D02*
X1624Y1060D01*
X1703Y1060D02*
X1712Y1060D01*
X1746Y1060D02*
X1756Y1060D01*
X1763Y1060D02*
X1773Y1060D01*
X1558Y1059D02*
X1567Y1059D01*
X1605Y1059D02*
X1624Y1059D01*
X1703Y1059D02*
X1712Y1059D01*
X1747Y1059D02*
X1757Y1059D01*
X1762Y1059D02*
X1772Y1059D01*
X1558Y1058D02*
X1567Y1058D01*
X1605Y1058D02*
X1624Y1058D01*
X1703Y1058D02*
X1712Y1058D01*
X1747Y1058D02*
X1757Y1058D01*
X1762Y1058D02*
X1772Y1058D01*
X1558Y1057D02*
X1567Y1057D01*
X1605Y1057D02*
X1624Y1057D01*
X1703Y1057D02*
X1712Y1057D01*
X1748Y1057D02*
X1758Y1057D01*
X1762Y1057D02*
X1771Y1057D01*
X1558Y1056D02*
X1567Y1056D01*
X1605Y1056D02*
X1624Y1056D01*
X1703Y1056D02*
X1712Y1056D01*
X1748Y1056D02*
X1758Y1056D01*
X1761Y1056D02*
X1771Y1056D01*
X1558Y1055D02*
X1567Y1055D01*
X1605Y1055D02*
X1624Y1055D01*
X1703Y1055D02*
X1712Y1055D01*
X1748Y1055D02*
X1758Y1055D01*
X1761Y1055D02*
X1771Y1055D01*
X1558Y1054D02*
X1567Y1054D01*
X1605Y1054D02*
X1624Y1054D01*
X1703Y1054D02*
X1712Y1054D01*
X1749Y1054D02*
X1770Y1054D01*
X1558Y1053D02*
X1567Y1053D01*
X1605Y1053D02*
X1624Y1053D01*
X1703Y1053D02*
X1712Y1053D01*
X1749Y1053D02*
X1770Y1053D01*
X1558Y1052D02*
X1567Y1052D01*
X1605Y1052D02*
X1624Y1052D01*
X1703Y1052D02*
X1712Y1052D01*
X1749Y1052D02*
X1770Y1052D01*
X1558Y1051D02*
X1567Y1051D01*
X1606Y1051D02*
X1624Y1051D01*
X1703Y1051D02*
X1712Y1051D01*
X1750Y1051D02*
X1769Y1051D01*
X1558Y1050D02*
X1567Y1050D01*
X1606Y1050D02*
X1624Y1050D01*
X1703Y1050D02*
X1712Y1050D01*
X1750Y1050D02*
X1769Y1050D01*
X1558Y1049D02*
X1567Y1049D01*
X1606Y1049D02*
X1624Y1049D01*
X1703Y1049D02*
X1712Y1049D01*
X1751Y1049D02*
X1768Y1049D01*
X1558Y1048D02*
X1567Y1048D01*
X1607Y1048D02*
X1623Y1048D01*
X1703Y1048D02*
X1712Y1048D01*
X1751Y1048D02*
X1768Y1048D01*
X1558Y1047D02*
X1567Y1047D01*
X1609Y1047D02*
X1621Y1047D01*
X1703Y1047D02*
X1712Y1047D01*
X1751Y1047D02*
X1768Y1047D01*
X1558Y1046D02*
X1567Y1046D01*
X1703Y1046D02*
X1712Y1046D01*
X1752Y1046D02*
X1767Y1046D01*
X1558Y1045D02*
X1567Y1045D01*
X1703Y1045D02*
X1712Y1045D01*
X1752Y1045D02*
X1767Y1045D01*
X1523Y1044D02*
X1567Y1044D01*
X1667Y1044D02*
X1712Y1044D01*
X1753Y1044D02*
X1766Y1044D01*
X1520Y1043D02*
X1567Y1043D01*
X1665Y1043D02*
X1712Y1043D01*
X1753Y1043D02*
X1766Y1043D01*
X1519Y1042D02*
X1567Y1042D01*
X1664Y1042D02*
X1711Y1042D01*
X1753Y1042D02*
X1766Y1042D01*
X2050Y1042D02*
X2124Y1042D01*
X1519Y1041D02*
X1567Y1041D01*
X1663Y1041D02*
X1711Y1041D01*
X1754Y1041D02*
X1765Y1041D01*
X2048Y1041D02*
X2124Y1041D01*
X1518Y1040D02*
X1566Y1040D01*
X1663Y1040D02*
X1711Y1040D01*
X1754Y1040D02*
X1765Y1040D01*
X2048Y1040D02*
X2124Y1040D01*
X1518Y1039D02*
X1566Y1039D01*
X1663Y1039D02*
X1710Y1039D01*
X1755Y1039D02*
X1764Y1039D01*
X2047Y1039D02*
X2124Y1039D01*
X1518Y1038D02*
X1565Y1038D01*
X1663Y1038D02*
X1709Y1038D01*
X1755Y1038D02*
X1764Y1038D01*
X2047Y1038D02*
X2124Y1038D01*
X1519Y1037D02*
X1564Y1037D01*
X1663Y1037D02*
X1709Y1037D01*
X1755Y1037D02*
X1764Y1037D01*
X2047Y1037D02*
X2124Y1037D01*
X1519Y1036D02*
X1563Y1036D01*
X1664Y1036D02*
X1707Y1036D01*
X1756Y1036D02*
X1763Y1036D01*
X2047Y1036D02*
X2124Y1036D01*
X1520Y1035D02*
X1561Y1035D01*
X1665Y1035D02*
X1706Y1035D01*
X1757Y1035D02*
X1762Y1035D01*
X2048Y1035D02*
X2124Y1035D01*
X2049Y1034D02*
X2124Y1034D01*
X2050Y1033D02*
X2124Y1033D01*
X2110Y1032D02*
X2124Y1032D01*
X2109Y1031D02*
X2124Y1031D01*
X2107Y1030D02*
X2124Y1030D01*
X2106Y1029D02*
X2123Y1029D01*
X2104Y1028D02*
X2121Y1028D01*
X2103Y1027D02*
X2120Y1027D01*
X2102Y1026D02*
X2118Y1026D01*
X2100Y1025D02*
X2117Y1025D01*
X2099Y1024D02*
X2115Y1024D01*
X2097Y1023D02*
X2114Y1023D01*
X2092Y1022D02*
X2113Y1022D01*
X2091Y1021D02*
X2111Y1021D01*
X2090Y1020D02*
X2110Y1020D01*
X2090Y1019D02*
X2108Y1019D01*
X2090Y1018D02*
X2107Y1018D01*
X2090Y1017D02*
X2108Y1017D01*
X2090Y1016D02*
X2109Y1016D01*
X1597Y1015D02*
X1629Y1015D01*
X1665Y1015D02*
X1689Y1015D01*
X1757Y1015D02*
X1761Y1015D01*
X2090Y1015D02*
X2111Y1015D01*
X1595Y1014D02*
X1631Y1014D01*
X1663Y1014D02*
X1691Y1014D01*
X1755Y1014D02*
X1762Y1014D01*
X2091Y1014D02*
X2112Y1014D01*
X1594Y1013D02*
X1633Y1013D01*
X1663Y1013D02*
X1693Y1013D01*
X1755Y1013D02*
X1763Y1013D01*
X2093Y1013D02*
X2113Y1013D01*
X1593Y1012D02*
X1634Y1012D01*
X1662Y1012D02*
X1694Y1012D01*
X1754Y1012D02*
X1763Y1012D01*
X2098Y1012D02*
X2115Y1012D01*
X1592Y1011D02*
X1635Y1011D01*
X1662Y1011D02*
X1695Y1011D01*
X1754Y1011D02*
X1763Y1011D01*
X2100Y1011D02*
X2116Y1011D01*
X1591Y1010D02*
X1636Y1010D01*
X1662Y1010D02*
X1696Y1010D01*
X1754Y1010D02*
X1764Y1010D01*
X2101Y1010D02*
X2118Y1010D01*
X1591Y1009D02*
X1637Y1009D01*
X1662Y1009D02*
X1697Y1009D01*
X1753Y1009D02*
X1764Y1009D01*
X2103Y1009D02*
X2119Y1009D01*
X1590Y1008D02*
X1637Y1008D01*
X1663Y1008D02*
X1698Y1008D01*
X1753Y1008D02*
X1764Y1008D01*
X2104Y1008D02*
X2121Y1008D01*
X1590Y1007D02*
X1638Y1007D01*
X1664Y1007D02*
X1698Y1007D01*
X1753Y1007D02*
X1764Y1007D01*
X2105Y1007D02*
X2122Y1007D01*
X1590Y1006D02*
X1638Y1006D01*
X1665Y1006D02*
X1699Y1006D01*
X1752Y1006D02*
X1765Y1006D01*
X2107Y1006D02*
X2123Y1006D01*
X1590Y1005D02*
X1599Y1005D01*
X1628Y1005D02*
X1638Y1005D01*
X1672Y1005D02*
X1681Y1005D01*
X1688Y1005D02*
X1699Y1005D01*
X1752Y1005D02*
X1765Y1005D01*
X2108Y1005D02*
X2124Y1005D01*
X1590Y1004D02*
X1599Y1004D01*
X1629Y1004D02*
X1638Y1004D01*
X1672Y1004D02*
X1681Y1004D01*
X1689Y1004D02*
X1700Y1004D01*
X1752Y1004D02*
X1765Y1004D01*
X2110Y1004D02*
X2124Y1004D01*
X1590Y1003D02*
X1599Y1003D01*
X1629Y1003D02*
X1638Y1003D01*
X1672Y1003D02*
X1681Y1003D01*
X1690Y1003D02*
X1700Y1003D01*
X1752Y1003D02*
X1766Y1003D01*
X2110Y1003D02*
X2124Y1003D01*
X1590Y1002D02*
X1600Y1002D01*
X1629Y1002D02*
X1638Y1002D01*
X1672Y1002D02*
X1681Y1002D01*
X1690Y1002D02*
X1701Y1002D01*
X1751Y1002D02*
X1766Y1002D01*
X2049Y1002D02*
X2124Y1002D01*
X1590Y1001D02*
X1601Y1001D01*
X1630Y1001D02*
X1638Y1001D01*
X1672Y1001D02*
X1681Y1001D01*
X1691Y1001D02*
X1701Y1001D01*
X1751Y1001D02*
X1766Y1001D01*
X2048Y1001D02*
X2124Y1001D01*
X1591Y1000D02*
X1602Y1000D01*
X1630Y1000D02*
X1638Y1000D01*
X1672Y1000D02*
X1681Y1000D01*
X1691Y1000D02*
X1702Y1000D01*
X1751Y1000D02*
X1766Y1000D01*
X2048Y1000D02*
X2124Y1000D01*
X1591Y999D02*
X1603Y999D01*
X1631Y999D02*
X1637Y999D01*
X1672Y999D02*
X1681Y999D01*
X1692Y999D02*
X1702Y999D01*
X1750Y999D02*
X1767Y999D01*
X2047Y999D02*
X2124Y999D01*
X1592Y998D02*
X1603Y998D01*
X1632Y998D02*
X1636Y998D01*
X1672Y998D02*
X1681Y998D01*
X1692Y998D02*
X1703Y998D01*
X1750Y998D02*
X1767Y998D01*
X2047Y998D02*
X2124Y998D01*
X1592Y997D02*
X1604Y997D01*
X1672Y997D02*
X1681Y997D01*
X1693Y997D02*
X1703Y997D01*
X1750Y997D02*
X1767Y997D01*
X2047Y997D02*
X2124Y997D01*
X1593Y996D02*
X1605Y996D01*
X1672Y996D02*
X1681Y996D01*
X1693Y996D02*
X1704Y996D01*
X1749Y996D02*
X1768Y996D01*
X2048Y996D02*
X2124Y996D01*
X1594Y995D02*
X1606Y995D01*
X1672Y995D02*
X1681Y995D01*
X1694Y995D02*
X1704Y995D01*
X1749Y995D02*
X1768Y995D01*
X2048Y995D02*
X2124Y995D01*
X1595Y994D02*
X1606Y994D01*
X1672Y994D02*
X1681Y994D01*
X1694Y994D02*
X1705Y994D01*
X1749Y994D02*
X1768Y994D01*
X2049Y994D02*
X2124Y994D01*
X1595Y993D02*
X1607Y993D01*
X1672Y993D02*
X1681Y993D01*
X1695Y993D02*
X1705Y993D01*
X1749Y993D02*
X1768Y993D01*
X2052Y993D02*
X2124Y993D01*
X1596Y992D02*
X1608Y992D01*
X1672Y992D02*
X1681Y992D01*
X1695Y992D02*
X1706Y992D01*
X1748Y992D02*
X1769Y992D01*
X1597Y991D02*
X1609Y991D01*
X1672Y991D02*
X1681Y991D01*
X1696Y991D02*
X1706Y991D01*
X1748Y991D02*
X1769Y991D01*
X1598Y990D02*
X1610Y990D01*
X1672Y990D02*
X1681Y990D01*
X1696Y990D02*
X1707Y990D01*
X1748Y990D02*
X1757Y990D01*
X1760Y990D02*
X1769Y990D01*
X1598Y989D02*
X1610Y989D01*
X1672Y989D02*
X1681Y989D01*
X1697Y989D02*
X1707Y989D01*
X1747Y989D02*
X1757Y989D01*
X1760Y989D02*
X1770Y989D01*
X1599Y988D02*
X1611Y988D01*
X1672Y988D02*
X1681Y988D01*
X1697Y988D02*
X1708Y988D01*
X1747Y988D02*
X1757Y988D01*
X1760Y988D02*
X1770Y988D01*
X1600Y987D02*
X1612Y987D01*
X1672Y987D02*
X1681Y987D01*
X1698Y987D02*
X1708Y987D01*
X1747Y987D02*
X1756Y987D01*
X1761Y987D02*
X1770Y987D01*
X1601Y986D02*
X1613Y986D01*
X1672Y986D02*
X1681Y986D01*
X1698Y986D02*
X1709Y986D01*
X1747Y986D02*
X1756Y986D01*
X1761Y986D02*
X1771Y986D01*
X1601Y985D02*
X1613Y985D01*
X1672Y985D02*
X1681Y985D01*
X1699Y985D02*
X1709Y985D01*
X1746Y985D02*
X1756Y985D01*
X1761Y985D02*
X1771Y985D01*
X1602Y984D02*
X1614Y984D01*
X1672Y984D02*
X1681Y984D01*
X1699Y984D02*
X1709Y984D01*
X1746Y984D02*
X1756Y984D01*
X1762Y984D02*
X1771Y984D01*
X1603Y983D02*
X1615Y983D01*
X1672Y983D02*
X1681Y983D01*
X1700Y983D02*
X1710Y983D01*
X1746Y983D02*
X1755Y983D01*
X1762Y983D02*
X1771Y983D01*
X1604Y982D02*
X1616Y982D01*
X1672Y982D02*
X1681Y982D01*
X1700Y982D02*
X1710Y982D01*
X1745Y982D02*
X1755Y982D01*
X1762Y982D02*
X1772Y982D01*
X1605Y981D02*
X1617Y981D01*
X1672Y981D02*
X1681Y981D01*
X1701Y981D02*
X1710Y981D01*
X1745Y981D02*
X1755Y981D01*
X1762Y981D02*
X1772Y981D01*
X1605Y980D02*
X1617Y980D01*
X1672Y980D02*
X1681Y980D01*
X1701Y980D02*
X1710Y980D01*
X1745Y980D02*
X1754Y980D01*
X1763Y980D02*
X1772Y980D01*
X1606Y979D02*
X1618Y979D01*
X1672Y979D02*
X1681Y979D01*
X1701Y979D02*
X1711Y979D01*
X1745Y979D02*
X1754Y979D01*
X1763Y979D02*
X1773Y979D01*
X1607Y978D02*
X1619Y978D01*
X1672Y978D02*
X1681Y978D01*
X1701Y978D02*
X1711Y978D01*
X1744Y978D02*
X1754Y978D01*
X1763Y978D02*
X1773Y978D01*
X1608Y977D02*
X1620Y977D01*
X1672Y977D02*
X1681Y977D01*
X1702Y977D02*
X1711Y977D01*
X1744Y977D02*
X1753Y977D01*
X1764Y977D02*
X1773Y977D01*
X1608Y976D02*
X1620Y976D01*
X1672Y976D02*
X1681Y976D01*
X1702Y976D02*
X1711Y976D01*
X1744Y976D02*
X1753Y976D01*
X1764Y976D02*
X1773Y976D01*
X1609Y975D02*
X1621Y975D01*
X1672Y975D02*
X1681Y975D01*
X1701Y975D02*
X1711Y975D01*
X1743Y975D02*
X1753Y975D01*
X1764Y975D02*
X1774Y975D01*
X1610Y974D02*
X1622Y974D01*
X1672Y974D02*
X1681Y974D01*
X1701Y974D02*
X1711Y974D01*
X1743Y974D02*
X1753Y974D01*
X1765Y974D02*
X1774Y974D01*
X1611Y973D02*
X1623Y973D01*
X1672Y973D02*
X1681Y973D01*
X1701Y973D02*
X1710Y973D01*
X1743Y973D02*
X1752Y973D01*
X1765Y973D02*
X1774Y973D01*
X1612Y972D02*
X1624Y972D01*
X1672Y972D02*
X1681Y972D01*
X1701Y972D02*
X1710Y972D01*
X1742Y972D02*
X1752Y972D01*
X1765Y972D02*
X1775Y972D01*
X1612Y971D02*
X1624Y971D01*
X1672Y971D02*
X1681Y971D01*
X1700Y971D02*
X1710Y971D01*
X1742Y971D02*
X1752Y971D01*
X1765Y971D02*
X1775Y971D01*
X1613Y970D02*
X1625Y970D01*
X1672Y970D02*
X1681Y970D01*
X1700Y970D02*
X1710Y970D01*
X1742Y970D02*
X1751Y970D01*
X1766Y970D02*
X1775Y970D01*
X2047Y970D02*
X2124Y970D01*
X1614Y969D02*
X1626Y969D01*
X1672Y969D02*
X1681Y969D01*
X1699Y969D02*
X1709Y969D01*
X1742Y969D02*
X1751Y969D01*
X1766Y969D02*
X1775Y969D01*
X2047Y969D02*
X2124Y969D01*
X1615Y968D02*
X1627Y968D01*
X1672Y968D02*
X1681Y968D01*
X1699Y968D02*
X1709Y968D01*
X1741Y968D02*
X1751Y968D01*
X1766Y968D02*
X1776Y968D01*
X2047Y968D02*
X2124Y968D01*
X1615Y967D02*
X1627Y967D01*
X1672Y967D02*
X1681Y967D01*
X1698Y967D02*
X1708Y967D01*
X1741Y967D02*
X1751Y967D01*
X1767Y967D02*
X1776Y967D01*
X2047Y967D02*
X2124Y967D01*
X1616Y966D02*
X1628Y966D01*
X1672Y966D02*
X1681Y966D01*
X1698Y966D02*
X1708Y966D01*
X1741Y966D02*
X1750Y966D01*
X1767Y966D02*
X1776Y966D01*
X2047Y966D02*
X2124Y966D01*
X1617Y965D02*
X1629Y965D01*
X1672Y965D02*
X1681Y965D01*
X1697Y965D02*
X1708Y965D01*
X1740Y965D02*
X1750Y965D01*
X1767Y965D02*
X1777Y965D01*
X2047Y965D02*
X2124Y965D01*
X1618Y964D02*
X1630Y964D01*
X1672Y964D02*
X1681Y964D01*
X1697Y964D02*
X1707Y964D01*
X1740Y964D02*
X1777Y964D01*
X2047Y964D02*
X2124Y964D01*
X1619Y963D02*
X1631Y963D01*
X1672Y963D02*
X1681Y963D01*
X1696Y963D02*
X1707Y963D01*
X1740Y963D02*
X1777Y963D01*
X2047Y963D02*
X2124Y963D01*
X1619Y962D02*
X1631Y962D01*
X1672Y962D02*
X1681Y962D01*
X1696Y962D02*
X1706Y962D01*
X1740Y962D02*
X1778Y962D01*
X2047Y962D02*
X2124Y962D01*
X1620Y961D02*
X1632Y961D01*
X1672Y961D02*
X1681Y961D01*
X1695Y961D02*
X1706Y961D01*
X1739Y961D02*
X1778Y961D01*
X2047Y961D02*
X2124Y961D01*
X1621Y960D02*
X1633Y960D01*
X1672Y960D02*
X1681Y960D01*
X1695Y960D02*
X1705Y960D01*
X1739Y960D02*
X1778Y960D01*
X2047Y960D02*
X2056Y960D01*
X2081Y960D02*
X2090Y960D01*
X2115Y960D02*
X2124Y960D01*
X1622Y959D02*
X1634Y959D01*
X1672Y959D02*
X1681Y959D01*
X1694Y959D02*
X1705Y959D01*
X1739Y959D02*
X1778Y959D01*
X2047Y959D02*
X2056Y959D01*
X2081Y959D02*
X2090Y959D01*
X2115Y959D02*
X2124Y959D01*
X1622Y958D02*
X1634Y958D01*
X1672Y958D02*
X1681Y958D01*
X1694Y958D02*
X1704Y958D01*
X1738Y958D02*
X1779Y958D01*
X2047Y958D02*
X2056Y958D01*
X2081Y958D02*
X2090Y958D01*
X2115Y958D02*
X2124Y958D01*
X1623Y957D02*
X1635Y957D01*
X1672Y957D02*
X1681Y957D01*
X1693Y957D02*
X1704Y957D01*
X1738Y957D02*
X1779Y957D01*
X2047Y957D02*
X2056Y957D01*
X2081Y957D02*
X2090Y957D01*
X2115Y957D02*
X2124Y957D01*
X1593Y956D02*
X1595Y956D01*
X1624Y956D02*
X1636Y956D01*
X1672Y956D02*
X1681Y956D01*
X1693Y956D02*
X1703Y956D01*
X1738Y956D02*
X1779Y956D01*
X2047Y956D02*
X2056Y956D01*
X2081Y956D02*
X2090Y956D01*
X2115Y956D02*
X2124Y956D01*
X1591Y955D02*
X1597Y955D01*
X1625Y955D02*
X1637Y955D01*
X1672Y955D02*
X1681Y955D01*
X1692Y955D02*
X1703Y955D01*
X1737Y955D02*
X1780Y955D01*
X2047Y955D02*
X2056Y955D01*
X2081Y955D02*
X2090Y955D01*
X2115Y955D02*
X2124Y955D01*
X1591Y954D02*
X1598Y954D01*
X1626Y954D02*
X1637Y954D01*
X1672Y954D02*
X1681Y954D01*
X1692Y954D02*
X1702Y954D01*
X1737Y954D02*
X1747Y954D01*
X1770Y954D02*
X1780Y954D01*
X2047Y954D02*
X2056Y954D01*
X2081Y954D02*
X2090Y954D01*
X2115Y954D02*
X2124Y954D01*
X1590Y953D02*
X1598Y953D01*
X1626Y953D02*
X1638Y953D01*
X1672Y953D02*
X1681Y953D01*
X1691Y953D02*
X1702Y953D01*
X1737Y953D02*
X1746Y953D01*
X1771Y953D02*
X1780Y953D01*
X2047Y953D02*
X2056Y953D01*
X2081Y953D02*
X2090Y953D01*
X2115Y953D02*
X2124Y953D01*
X1590Y952D02*
X1599Y952D01*
X1627Y952D02*
X1638Y952D01*
X1672Y952D02*
X1681Y952D01*
X1691Y952D02*
X1701Y952D01*
X1737Y952D02*
X1746Y952D01*
X1771Y952D02*
X1780Y952D01*
X2047Y952D02*
X2056Y952D01*
X2081Y952D02*
X2090Y952D01*
X2115Y952D02*
X2124Y952D01*
X1590Y951D02*
X1599Y951D01*
X1628Y951D02*
X1638Y951D01*
X1672Y951D02*
X1681Y951D01*
X1690Y951D02*
X1701Y951D01*
X1736Y951D02*
X1746Y951D01*
X1771Y951D02*
X1781Y951D01*
X2047Y951D02*
X2056Y951D01*
X2081Y951D02*
X2090Y951D01*
X2115Y951D02*
X2124Y951D01*
X1590Y950D02*
X1599Y950D01*
X1629Y950D02*
X1638Y950D01*
X1672Y950D02*
X1681Y950D01*
X1690Y950D02*
X1700Y950D01*
X1736Y950D02*
X1746Y950D01*
X1772Y950D02*
X1781Y950D01*
X2047Y950D02*
X2056Y950D01*
X2081Y950D02*
X2090Y950D01*
X2115Y950D02*
X2124Y950D01*
X1590Y949D02*
X1600Y949D01*
X1629Y949D02*
X1638Y949D01*
X1672Y949D02*
X1681Y949D01*
X1689Y949D02*
X1700Y949D01*
X1736Y949D02*
X1745Y949D01*
X1772Y949D02*
X1781Y949D01*
X2047Y949D02*
X2056Y949D01*
X2081Y949D02*
X2090Y949D01*
X2115Y949D02*
X2124Y949D01*
X1590Y948D02*
X1601Y948D01*
X1629Y948D02*
X1638Y948D01*
X1672Y948D02*
X1681Y948D01*
X1687Y948D02*
X1699Y948D01*
X1735Y948D02*
X1745Y948D01*
X1772Y948D02*
X1782Y948D01*
X2047Y948D02*
X2056Y948D01*
X2081Y948D02*
X2090Y948D01*
X2115Y948D02*
X2124Y948D01*
X1590Y947D02*
X1638Y947D01*
X1664Y947D02*
X1699Y947D01*
X1735Y947D02*
X1745Y947D01*
X1772Y947D02*
X1782Y947D01*
X2047Y947D02*
X2056Y947D01*
X2081Y947D02*
X2090Y947D01*
X2115Y947D02*
X2124Y947D01*
X1591Y946D02*
X1638Y946D01*
X1663Y946D02*
X1698Y946D01*
X1735Y946D02*
X1744Y946D01*
X1773Y946D02*
X1782Y946D01*
X2047Y946D02*
X2056Y946D01*
X2081Y946D02*
X2090Y946D01*
X2115Y946D02*
X2124Y946D01*
X1591Y945D02*
X1638Y945D01*
X1663Y945D02*
X1698Y945D01*
X1735Y945D02*
X1744Y945D01*
X1773Y945D02*
X1782Y945D01*
X2047Y945D02*
X2056Y945D01*
X2081Y945D02*
X2090Y945D01*
X2115Y945D02*
X2124Y945D01*
X1592Y944D02*
X1637Y944D01*
X1662Y944D02*
X1697Y944D01*
X1734Y944D02*
X1744Y944D01*
X1773Y944D02*
X1783Y944D01*
X2047Y944D02*
X2056Y944D01*
X2081Y944D02*
X2090Y944D01*
X2115Y944D02*
X2124Y944D01*
X1593Y943D02*
X1637Y943D01*
X1662Y943D02*
X1696Y943D01*
X1734Y943D02*
X1744Y943D01*
X1774Y943D02*
X1783Y943D01*
X2047Y943D02*
X2056Y943D01*
X2082Y943D02*
X2089Y943D01*
X2115Y943D02*
X2124Y943D01*
X1593Y942D02*
X1636Y942D01*
X1662Y942D02*
X1695Y942D01*
X1734Y942D02*
X1743Y942D01*
X1774Y942D02*
X1783Y942D01*
X2047Y942D02*
X2056Y942D01*
X2083Y942D02*
X2089Y942D01*
X2115Y942D02*
X2124Y942D01*
X1595Y941D02*
X1635Y941D01*
X1662Y941D02*
X1694Y941D01*
X1734Y941D02*
X1743Y941D01*
X1774Y941D02*
X1783Y941D01*
X2047Y941D02*
X2056Y941D01*
X2084Y941D02*
X2087Y941D01*
X2115Y941D02*
X2124Y941D01*
X1596Y940D02*
X1634Y940D01*
X1663Y940D02*
X1693Y940D01*
X1735Y940D02*
X1742Y940D01*
X1775Y940D02*
X1782Y940D01*
X2047Y940D02*
X2056Y940D01*
X2115Y940D02*
X2124Y940D01*
X1598Y939D02*
X1632Y939D01*
X1664Y939D02*
X1691Y939D01*
X1736Y939D02*
X1741Y939D01*
X1776Y939D02*
X1781Y939D01*
X2047Y939D02*
X2056Y939D01*
X2115Y939D02*
X2124Y939D01*
X1600Y938D02*
X1630Y938D01*
X1665Y938D02*
X1687Y938D01*
X1738Y938D02*
X1740Y938D01*
X1777Y938D02*
X1779Y938D01*
X2047Y938D02*
X2056Y938D01*
X2115Y938D02*
X2124Y938D01*
X2047Y937D02*
X2056Y937D01*
X2115Y937D02*
X2124Y937D01*
X2047Y936D02*
X2056Y936D01*
X2115Y936D02*
X2124Y936D01*
X2047Y935D02*
X2056Y935D01*
X2115Y935D02*
X2124Y935D01*
X2047Y934D02*
X2056Y934D01*
X2115Y934D02*
X2124Y934D01*
X2047Y933D02*
X2056Y933D01*
X2115Y933D02*
X2124Y933D01*
X2047Y932D02*
X2056Y932D01*
X2115Y932D02*
X2124Y932D01*
X2047Y931D02*
X2056Y931D01*
X2115Y931D02*
X2124Y931D01*
X2047Y930D02*
X2056Y930D01*
X2115Y930D02*
X2124Y930D01*
X2047Y929D02*
X2056Y929D01*
X2115Y929D02*
X2124Y929D01*
X2047Y928D02*
X2056Y928D01*
X2115Y928D02*
X2124Y928D01*
X2047Y927D02*
X2056Y927D01*
X2115Y927D02*
X2124Y927D01*
X2047Y926D02*
X2056Y926D01*
X2115Y926D02*
X2124Y926D01*
X2047Y925D02*
X2056Y925D01*
X2115Y925D02*
X2124Y925D01*
X2047Y924D02*
X2056Y924D01*
X2115Y924D02*
X2124Y924D01*
X2048Y923D02*
X2055Y923D01*
X2116Y923D02*
X2123Y923D01*
X2049Y922D02*
X2055Y922D01*
X2117Y922D02*
X2122Y922D01*
X2050Y921D02*
X2053Y921D01*
X2118Y921D02*
X2121Y921D01*
X1606Y916D02*
X1632Y916D01*
X1693Y916D02*
X1713Y916D01*
X1745Y916D02*
X1745Y916D01*
X1603Y915D02*
X1637Y915D01*
X1689Y915D02*
X1715Y915D01*
X1743Y915D02*
X1748Y915D01*
X1601Y914D02*
X1638Y914D01*
X1687Y914D02*
X1716Y914D01*
X1742Y914D02*
X1749Y914D01*
X1600Y913D02*
X1640Y913D01*
X1685Y913D02*
X1717Y913D01*
X1741Y913D02*
X1749Y913D01*
X1599Y912D02*
X1641Y912D01*
X1684Y912D02*
X1717Y912D01*
X1741Y912D02*
X1750Y912D01*
X1598Y911D02*
X1642Y911D01*
X1683Y911D02*
X1717Y911D01*
X1741Y911D02*
X1750Y911D01*
X1597Y910D02*
X1643Y910D01*
X1682Y910D02*
X1717Y910D01*
X1741Y910D02*
X1750Y910D01*
X1597Y909D02*
X1643Y909D01*
X1682Y909D02*
X1717Y909D01*
X1741Y909D02*
X1750Y909D01*
X1597Y908D02*
X1644Y908D01*
X1681Y908D02*
X1716Y908D01*
X1741Y908D02*
X1750Y908D01*
X1596Y907D02*
X1644Y907D01*
X1680Y907D02*
X1715Y907D01*
X1741Y907D02*
X1750Y907D01*
X1596Y906D02*
X1644Y906D01*
X1680Y906D02*
X1712Y906D01*
X1741Y906D02*
X1750Y906D01*
X1596Y905D02*
X1605Y905D01*
X1635Y905D02*
X1645Y905D01*
X1680Y905D02*
X1691Y905D01*
X1741Y905D02*
X1750Y905D01*
X1596Y904D02*
X1605Y904D01*
X1635Y904D02*
X1645Y904D01*
X1679Y904D02*
X1690Y904D01*
X1741Y904D02*
X1750Y904D01*
X1596Y903D02*
X1606Y903D01*
X1636Y903D02*
X1645Y903D01*
X1679Y903D02*
X1689Y903D01*
X1741Y903D02*
X1750Y903D01*
X1596Y902D02*
X1607Y902D01*
X1636Y902D02*
X1645Y902D01*
X1678Y902D02*
X1688Y902D01*
X1741Y902D02*
X1750Y902D01*
X1597Y901D02*
X1608Y901D01*
X1636Y901D02*
X1645Y901D01*
X1678Y901D02*
X1688Y901D01*
X1741Y901D02*
X1750Y901D01*
X1597Y900D02*
X1609Y900D01*
X1637Y900D02*
X1644Y900D01*
X1677Y900D02*
X1687Y900D01*
X1741Y900D02*
X1750Y900D01*
X1598Y899D02*
X1609Y899D01*
X1637Y899D02*
X1643Y899D01*
X1677Y899D02*
X1687Y899D01*
X1741Y899D02*
X1750Y899D01*
X1598Y898D02*
X1610Y898D01*
X1639Y898D02*
X1642Y898D01*
X1676Y898D02*
X1686Y898D01*
X1741Y898D02*
X1750Y898D01*
X1599Y897D02*
X1611Y897D01*
X1676Y897D02*
X1686Y897D01*
X1741Y897D02*
X1750Y897D01*
X1600Y896D02*
X1612Y896D01*
X1675Y896D02*
X1685Y896D01*
X1741Y896D02*
X1750Y896D01*
X1601Y895D02*
X1612Y895D01*
X1675Y895D02*
X1685Y895D01*
X1741Y895D02*
X1750Y895D01*
X1601Y894D02*
X1613Y894D01*
X1674Y894D02*
X1684Y894D01*
X1741Y894D02*
X1750Y894D01*
X1602Y893D02*
X1614Y893D01*
X1674Y893D02*
X1684Y893D01*
X1741Y893D02*
X1750Y893D01*
X1603Y892D02*
X1615Y892D01*
X1673Y892D02*
X1683Y892D01*
X1741Y892D02*
X1750Y892D01*
X1604Y891D02*
X1616Y891D01*
X1673Y891D02*
X1683Y891D01*
X1741Y891D02*
X1750Y891D01*
X1604Y890D02*
X1616Y890D01*
X1672Y890D02*
X1682Y890D01*
X1741Y890D02*
X1750Y890D01*
X1605Y889D02*
X1617Y889D01*
X1672Y889D02*
X1682Y889D01*
X1741Y889D02*
X1750Y889D01*
X1606Y888D02*
X1618Y888D01*
X1671Y888D02*
X1681Y888D01*
X1741Y888D02*
X1750Y888D01*
X1607Y887D02*
X1619Y887D01*
X1671Y887D02*
X1681Y887D01*
X1741Y887D02*
X1750Y887D01*
X1607Y886D02*
X1619Y886D01*
X1670Y886D02*
X1680Y886D01*
X1741Y886D02*
X1750Y886D01*
X1608Y885D02*
X1620Y885D01*
X1670Y885D02*
X1680Y885D01*
X1741Y885D02*
X1750Y885D01*
X1609Y884D02*
X1621Y884D01*
X1669Y884D02*
X1679Y884D01*
X1741Y884D02*
X1750Y884D01*
X1610Y883D02*
X1622Y883D01*
X1669Y883D02*
X1679Y883D01*
X1741Y883D02*
X1750Y883D01*
X1611Y882D02*
X1623Y882D01*
X1669Y882D02*
X1678Y882D01*
X1741Y882D02*
X1750Y882D01*
X1611Y881D02*
X1623Y881D01*
X1669Y881D02*
X1678Y881D01*
X1741Y881D02*
X1750Y881D01*
X1612Y880D02*
X1624Y880D01*
X1669Y880D02*
X1678Y880D01*
X1741Y880D02*
X1750Y880D01*
X1613Y879D02*
X1625Y879D01*
X1669Y879D02*
X1678Y879D01*
X1741Y879D02*
X1750Y879D01*
X1614Y878D02*
X1626Y878D01*
X1668Y878D02*
X1678Y878D01*
X1741Y878D02*
X1750Y878D01*
X1614Y877D02*
X1626Y877D01*
X1668Y877D02*
X1678Y877D01*
X1741Y877D02*
X1750Y877D01*
X1615Y876D02*
X1627Y876D01*
X1668Y876D02*
X1678Y876D01*
X1741Y876D02*
X1750Y876D01*
X1616Y875D02*
X1628Y875D01*
X1669Y875D02*
X1678Y875D01*
X1741Y875D02*
X1750Y875D01*
X1617Y874D02*
X1629Y874D01*
X1669Y874D02*
X1678Y874D01*
X1741Y874D02*
X1750Y874D01*
X1618Y873D02*
X1630Y873D01*
X1669Y873D02*
X1678Y873D01*
X1741Y873D02*
X1750Y873D01*
X1618Y872D02*
X1630Y872D01*
X1669Y872D02*
X1679Y872D01*
X1741Y872D02*
X1750Y872D01*
X1619Y871D02*
X1631Y871D01*
X1669Y871D02*
X1679Y871D01*
X1741Y871D02*
X1750Y871D01*
X1620Y870D02*
X1632Y870D01*
X1670Y870D02*
X1679Y870D01*
X1741Y870D02*
X1750Y870D01*
X1621Y869D02*
X1633Y869D01*
X1670Y869D02*
X1680Y869D01*
X1741Y869D02*
X1750Y869D01*
X1621Y868D02*
X1633Y868D01*
X1670Y868D02*
X1680Y868D01*
X1741Y868D02*
X1750Y868D01*
X1622Y867D02*
X1634Y867D01*
X1671Y867D02*
X1681Y867D01*
X1741Y867D02*
X1750Y867D01*
X1623Y866D02*
X1635Y866D01*
X1671Y866D02*
X1681Y866D01*
X1741Y866D02*
X1750Y866D01*
X1624Y865D02*
X1636Y865D01*
X1672Y865D02*
X1682Y865D01*
X1741Y865D02*
X1750Y865D01*
X1625Y864D02*
X1637Y864D01*
X1672Y864D02*
X1682Y864D01*
X1741Y864D02*
X1750Y864D01*
X1625Y863D02*
X1637Y863D01*
X1673Y863D02*
X1683Y863D01*
X1741Y863D02*
X1750Y863D01*
X1626Y862D02*
X1638Y862D01*
X1673Y862D02*
X1684Y862D01*
X1741Y862D02*
X1750Y862D01*
X1627Y861D02*
X1639Y861D01*
X1674Y861D02*
X1684Y861D01*
X1741Y861D02*
X1750Y861D01*
X1628Y860D02*
X1640Y860D01*
X1674Y860D02*
X1685Y860D01*
X1741Y860D02*
X1750Y860D01*
X1628Y859D02*
X1640Y859D01*
X1675Y859D02*
X1685Y859D01*
X1741Y859D02*
X1750Y859D01*
X1629Y858D02*
X1641Y858D01*
X1675Y858D02*
X1686Y858D01*
X1741Y858D02*
X1750Y858D01*
X1630Y857D02*
X1642Y857D01*
X1676Y857D02*
X1686Y857D01*
X1741Y857D02*
X1750Y857D01*
X1599Y856D02*
X1603Y856D01*
X1631Y856D02*
X1643Y856D01*
X1676Y856D02*
X1687Y856D01*
X1741Y856D02*
X1750Y856D01*
X1597Y855D02*
X1604Y855D01*
X1632Y855D02*
X1643Y855D01*
X1677Y855D02*
X1687Y855D01*
X1741Y855D02*
X1750Y855D01*
X1597Y854D02*
X1605Y854D01*
X1632Y854D02*
X1644Y854D01*
X1677Y854D02*
X1688Y854D01*
X1741Y854D02*
X1750Y854D01*
X1596Y853D02*
X1605Y853D01*
X1633Y853D02*
X1644Y853D01*
X1678Y853D02*
X1688Y853D01*
X1741Y853D02*
X1750Y853D01*
X1596Y852D02*
X1605Y852D01*
X1634Y852D02*
X1645Y852D01*
X1678Y852D02*
X1689Y852D01*
X1741Y852D02*
X1750Y852D01*
X1596Y851D02*
X1605Y851D01*
X1635Y851D02*
X1645Y851D01*
X1679Y851D02*
X1689Y851D01*
X1741Y851D02*
X1750Y851D01*
X1596Y850D02*
X1606Y850D01*
X1635Y850D02*
X1645Y850D01*
X1679Y850D02*
X1690Y850D01*
X1741Y850D02*
X1750Y850D01*
X1596Y849D02*
X1607Y849D01*
X1636Y849D02*
X1645Y849D01*
X1680Y849D02*
X1691Y849D01*
X1741Y849D02*
X1750Y849D01*
X1597Y848D02*
X1645Y848D01*
X1680Y848D02*
X1713Y848D01*
X1741Y848D02*
X1785Y848D01*
X1597Y847D02*
X1645Y847D01*
X1681Y847D02*
X1715Y847D01*
X1741Y847D02*
X1788Y847D01*
X1597Y846D02*
X1644Y846D01*
X1681Y846D02*
X1716Y846D01*
X1741Y846D02*
X1788Y846D01*
X1598Y845D02*
X1644Y845D01*
X1682Y845D02*
X1717Y845D01*
X1741Y845D02*
X1789Y845D01*
X1599Y844D02*
X1643Y844D01*
X1683Y844D02*
X1717Y844D01*
X1741Y844D02*
X1789Y844D01*
X1599Y843D02*
X1643Y843D01*
X1683Y843D02*
X1717Y843D01*
X1741Y843D02*
X1789Y843D01*
X1600Y842D02*
X1642Y842D01*
X1685Y842D02*
X1717Y842D01*
X1741Y842D02*
X1789Y842D01*
X1601Y841D02*
X1641Y841D01*
X1686Y841D02*
X1717Y841D01*
X1741Y841D02*
X1789Y841D01*
X1603Y840D02*
X1640Y840D01*
X1687Y840D02*
X1716Y840D01*
X1741Y840D02*
X1788Y840D01*
X1605Y839D02*
X1638Y839D01*
X1689Y839D02*
X1715Y839D01*
X1741Y839D02*
X1787Y839D01*
X1569Y653D02*
X1573Y653D01*
X1637Y653D02*
X1641Y653D01*
X1568Y652D02*
X1574Y652D01*
X1635Y652D02*
X1642Y652D01*
X1567Y651D02*
X1575Y651D01*
X1635Y651D02*
X1643Y651D01*
X1567Y650D02*
X1575Y650D01*
X1634Y650D02*
X1643Y650D01*
X1566Y649D02*
X1575Y649D01*
X1634Y649D02*
X1643Y649D01*
X1566Y648D02*
X1575Y648D01*
X1634Y648D02*
X1643Y648D01*
X1566Y647D02*
X1575Y647D01*
X1634Y647D02*
X1643Y647D01*
X1566Y646D02*
X1575Y646D01*
X1634Y646D02*
X1643Y646D01*
X1566Y645D02*
X1575Y645D01*
X1634Y645D02*
X1643Y645D01*
X1566Y644D02*
X1575Y644D01*
X1605Y644D02*
X1605Y644D01*
X1634Y644D02*
X1643Y644D01*
X1566Y643D02*
X1575Y643D01*
X1602Y643D02*
X1607Y643D01*
X1634Y643D02*
X1643Y643D01*
X1566Y642D02*
X1575Y642D01*
X1601Y642D02*
X1608Y642D01*
X1634Y642D02*
X1643Y642D01*
X1566Y641D02*
X1575Y641D01*
X1601Y641D02*
X1609Y641D01*
X1634Y641D02*
X1643Y641D01*
X1566Y640D02*
X1575Y640D01*
X1601Y640D02*
X1609Y640D01*
X1634Y640D02*
X1643Y640D01*
X1566Y639D02*
X1575Y639D01*
X1600Y639D02*
X1609Y639D01*
X1634Y639D02*
X1643Y639D01*
X1566Y638D02*
X1575Y638D01*
X1600Y638D02*
X1609Y638D01*
X1634Y638D02*
X1643Y638D01*
X1566Y637D02*
X1575Y637D01*
X1600Y637D02*
X1609Y637D01*
X1634Y637D02*
X1643Y637D01*
X1566Y636D02*
X1575Y636D01*
X1600Y636D02*
X1609Y636D01*
X1634Y636D02*
X1643Y636D01*
X1566Y635D02*
X1575Y635D01*
X1600Y635D02*
X1609Y635D01*
X1634Y635D02*
X1643Y635D01*
X1566Y634D02*
X1575Y634D01*
X1600Y634D02*
X1609Y634D01*
X1634Y634D02*
X1643Y634D01*
X1566Y633D02*
X1575Y633D01*
X1600Y633D02*
X1609Y633D01*
X1634Y633D02*
X1643Y633D01*
X1566Y632D02*
X1575Y632D01*
X1600Y632D02*
X1609Y632D01*
X1634Y632D02*
X1643Y632D01*
X1566Y631D02*
X1575Y631D01*
X1600Y631D02*
X1609Y631D01*
X1634Y631D02*
X1643Y631D01*
X1566Y630D02*
X1575Y630D01*
X1600Y630D02*
X1609Y630D01*
X1634Y630D02*
X1643Y630D01*
X1566Y629D02*
X1575Y629D01*
X1600Y629D02*
X1609Y629D01*
X1634Y629D02*
X1643Y629D01*
X1566Y628D02*
X1575Y628D01*
X1600Y628D02*
X1609Y628D01*
X1634Y628D02*
X1643Y628D01*
X1566Y627D02*
X1575Y627D01*
X1600Y627D02*
X1609Y627D01*
X1634Y627D02*
X1643Y627D01*
X1566Y626D02*
X1575Y626D01*
X1600Y626D02*
X1609Y626D01*
X1634Y626D02*
X1643Y626D01*
X1566Y625D02*
X1575Y625D01*
X1600Y625D02*
X1609Y625D01*
X1634Y625D02*
X1643Y625D01*
X1566Y624D02*
X1575Y624D01*
X1600Y624D02*
X1609Y624D01*
X1634Y624D02*
X1643Y624D01*
X1566Y623D02*
X1575Y623D01*
X1600Y623D02*
X1609Y623D01*
X1634Y623D02*
X1643Y623D01*
X1566Y622D02*
X1575Y622D01*
X1600Y622D02*
X1609Y622D01*
X1634Y622D02*
X1643Y622D01*
X1566Y621D02*
X1575Y621D01*
X1600Y621D02*
X1609Y621D01*
X1634Y621D02*
X1643Y621D01*
X1566Y620D02*
X1575Y620D01*
X1600Y620D02*
X1609Y620D01*
X1634Y620D02*
X1643Y620D01*
X1566Y619D02*
X1575Y619D01*
X1600Y619D02*
X1610Y619D01*
X1634Y619D02*
X1643Y619D01*
X1566Y618D02*
X1575Y618D01*
X1600Y618D02*
X1610Y618D01*
X1634Y618D02*
X1643Y618D01*
X1566Y617D02*
X1575Y617D01*
X1600Y617D02*
X1610Y617D01*
X1634Y617D02*
X1643Y617D01*
X1566Y616D02*
X1575Y616D01*
X1599Y616D02*
X1611Y616D01*
X1634Y616D02*
X1643Y616D01*
X1566Y615D02*
X1575Y615D01*
X1598Y615D02*
X1612Y615D01*
X1634Y615D02*
X1643Y615D01*
X1566Y614D02*
X1643Y614D01*
X1567Y613D02*
X1643Y613D01*
X1567Y612D02*
X1643Y612D01*
X1567Y611D02*
X1643Y611D01*
X1567Y610D02*
X1642Y610D01*
X1568Y609D02*
X1642Y609D01*
X1569Y608D02*
X1641Y608D01*
X1570Y607D02*
X1603Y607D01*
X1607Y607D02*
X1640Y607D01*
X1571Y606D02*
X1601Y606D01*
X1608Y606D02*
X1639Y606D01*
X1573Y605D02*
X1599Y605D01*
X1611Y605D02*
X1637Y605D01*
X1465Y587D02*
X1497Y587D01*
X1462Y586D02*
X1501Y586D01*
X1460Y585D02*
X1503Y585D01*
X1458Y584D02*
X1505Y584D01*
X1457Y583D02*
X1506Y583D01*
X1456Y582D02*
X1507Y582D01*
X1455Y581D02*
X1509Y581D01*
X1455Y580D02*
X1510Y580D01*
X1454Y579D02*
X1511Y579D01*
X1454Y578D02*
X1513Y578D01*
X1453Y577D02*
X1466Y577D01*
X1496Y577D02*
X1514Y577D01*
X1681Y577D02*
X1688Y577D01*
X1734Y577D02*
X1743Y577D01*
X465Y576D02*
X497Y576D01*
X1453Y576D02*
X1464Y576D01*
X1499Y576D02*
X1515Y576D01*
X1679Y576D02*
X1689Y576D01*
X1732Y576D02*
X1744Y576D01*
X462Y575D02*
X501Y575D01*
X1453Y575D02*
X1463Y575D01*
X1501Y575D02*
X1516Y575D01*
X1678Y575D02*
X1689Y575D01*
X1731Y575D02*
X1745Y575D01*
X460Y574D02*
X503Y574D01*
X1453Y574D02*
X1462Y574D01*
X1502Y574D02*
X1518Y574D01*
X1676Y574D02*
X1690Y574D01*
X1730Y574D02*
X1746Y574D01*
X459Y573D02*
X505Y573D01*
X1453Y573D02*
X1462Y573D01*
X1504Y573D02*
X1519Y573D01*
X1675Y573D02*
X1690Y573D01*
X1728Y573D02*
X1747Y573D01*
X358Y572D02*
X365Y572D01*
X412Y572D02*
X420Y572D01*
X457Y572D02*
X506Y572D01*
X1452Y572D02*
X1462Y572D01*
X1505Y572D02*
X1520Y572D01*
X1675Y572D02*
X1690Y572D01*
X1727Y572D02*
X1748Y572D01*
X357Y571D02*
X366Y571D01*
X410Y571D02*
X422Y571D01*
X457Y571D02*
X508Y571D01*
X1452Y571D02*
X1462Y571D01*
X1506Y571D02*
X1522Y571D01*
X1674Y571D02*
X1689Y571D01*
X1726Y571D02*
X1748Y571D01*
X355Y570D02*
X367Y570D01*
X409Y570D02*
X423Y570D01*
X456Y570D02*
X509Y570D01*
X1452Y570D02*
X1462Y570D01*
X1507Y570D02*
X1523Y570D01*
X1674Y570D02*
X1689Y570D01*
X1725Y570D02*
X1749Y570D01*
X263Y569D02*
X268Y569D01*
X316Y569D02*
X323Y569D01*
X354Y569D02*
X367Y569D01*
X407Y569D02*
X424Y569D01*
X455Y569D02*
X510Y569D01*
X1452Y569D02*
X1462Y569D01*
X1509Y569D02*
X1524Y569D01*
X1673Y569D02*
X1688Y569D01*
X1723Y569D02*
X1749Y569D01*
X261Y568D02*
X270Y568D01*
X314Y568D02*
X325Y568D01*
X353Y568D02*
X367Y568D01*
X406Y568D02*
X425Y568D01*
X454Y568D02*
X512Y568D01*
X1452Y568D02*
X1462Y568D01*
X1510Y568D02*
X1525Y568D01*
X1673Y568D02*
X1686Y568D01*
X1722Y568D02*
X1749Y568D01*
X259Y567D02*
X270Y567D01*
X313Y567D02*
X326Y567D01*
X352Y567D02*
X367Y567D01*
X405Y567D02*
X425Y567D01*
X454Y567D02*
X513Y567D01*
X1452Y567D02*
X1462Y567D01*
X1511Y567D02*
X1526Y567D01*
X1673Y567D02*
X1683Y567D01*
X1721Y567D02*
X1736Y567D01*
X1740Y567D02*
X1749Y567D01*
X258Y566D02*
X271Y566D01*
X311Y566D02*
X327Y566D01*
X352Y566D02*
X367Y566D01*
X403Y566D02*
X426Y566D01*
X454Y566D02*
X466Y566D01*
X497Y566D02*
X514Y566D01*
X1452Y566D02*
X1462Y566D01*
X1512Y566D02*
X1527Y566D01*
X1582Y566D02*
X1594Y566D01*
X1672Y566D02*
X1682Y566D01*
X1719Y566D02*
X1735Y566D01*
X1740Y566D02*
X1749Y566D01*
X257Y565D02*
X271Y565D01*
X310Y565D02*
X328Y565D01*
X351Y565D02*
X366Y565D01*
X402Y565D02*
X426Y565D01*
X453Y565D02*
X464Y565D01*
X500Y565D02*
X516Y565D01*
X1452Y565D02*
X1462Y565D01*
X1514Y565D02*
X1527Y565D01*
X1580Y565D02*
X1595Y565D01*
X1672Y565D02*
X1681Y565D01*
X1718Y565D02*
X1734Y565D01*
X1740Y565D02*
X1749Y565D01*
X256Y564D02*
X271Y564D01*
X309Y564D02*
X329Y564D01*
X351Y564D02*
X366Y564D01*
X401Y564D02*
X427Y564D01*
X453Y564D02*
X463Y564D01*
X501Y564D02*
X517Y564D01*
X1452Y564D02*
X1462Y564D01*
X1515Y564D02*
X1528Y564D01*
X1580Y564D02*
X1596Y564D01*
X1672Y564D02*
X1681Y564D01*
X1717Y564D02*
X1733Y564D01*
X1740Y564D02*
X1749Y564D01*
X256Y563D02*
X271Y563D01*
X308Y563D02*
X330Y563D01*
X350Y563D02*
X363Y563D01*
X400Y563D02*
X427Y563D01*
X453Y563D02*
X462Y563D01*
X503Y563D02*
X518Y563D01*
X1452Y563D02*
X1462Y563D01*
X1516Y563D02*
X1528Y563D01*
X1579Y563D02*
X1596Y563D01*
X1672Y563D02*
X1681Y563D01*
X1716Y563D02*
X1731Y563D01*
X1740Y563D02*
X1749Y563D01*
X255Y562D02*
X270Y562D01*
X306Y562D02*
X330Y562D01*
X350Y562D02*
X360Y562D01*
X398Y562D02*
X414Y562D01*
X418Y562D02*
X427Y562D01*
X453Y562D02*
X462Y562D01*
X504Y562D02*
X519Y562D01*
X1452Y562D02*
X1462Y562D01*
X1481Y562D02*
X1484Y562D01*
X1518Y562D02*
X1529Y562D01*
X1579Y562D02*
X1597Y562D01*
X1672Y562D02*
X1681Y562D01*
X1714Y562D02*
X1730Y562D01*
X1740Y562D02*
X1749Y562D01*
X255Y561D02*
X270Y561D01*
X305Y561D02*
X330Y561D01*
X350Y561D02*
X359Y561D01*
X397Y561D02*
X413Y561D01*
X418Y561D02*
X427Y561D01*
X453Y561D02*
X462Y561D01*
X505Y561D02*
X521Y561D01*
X1452Y561D02*
X1462Y561D01*
X1480Y561D02*
X1485Y561D01*
X1519Y561D02*
X1529Y561D01*
X1579Y561D02*
X1597Y561D01*
X1672Y561D02*
X1681Y561D01*
X1713Y561D02*
X1729Y561D01*
X1740Y561D02*
X1749Y561D01*
X1789Y561D02*
X1793Y561D01*
X1842Y561D02*
X1847Y561D01*
X254Y560D02*
X268Y560D01*
X304Y560D02*
X330Y560D01*
X350Y560D02*
X359Y560D01*
X396Y560D02*
X411Y560D01*
X418Y560D02*
X427Y560D01*
X453Y560D02*
X462Y560D01*
X507Y560D02*
X522Y560D01*
X1452Y560D02*
X1462Y560D01*
X1479Y560D02*
X1486Y560D01*
X1520Y560D02*
X1529Y560D01*
X1579Y560D02*
X1597Y560D01*
X1672Y560D02*
X1681Y560D01*
X1712Y560D02*
X1727Y560D01*
X1740Y560D02*
X1749Y560D01*
X1786Y560D02*
X1794Y560D01*
X1840Y560D02*
X1850Y560D01*
X254Y559D02*
X264Y559D01*
X302Y559D02*
X318Y559D01*
X321Y559D02*
X331Y559D01*
X350Y559D02*
X359Y559D01*
X394Y559D02*
X410Y559D01*
X418Y559D02*
X427Y559D01*
X453Y559D02*
X462Y559D01*
X508Y559D02*
X523Y559D01*
X1452Y559D02*
X1462Y559D01*
X1478Y559D02*
X1487Y559D01*
X1520Y559D02*
X1529Y559D01*
X1579Y559D02*
X1597Y559D01*
X1672Y559D02*
X1681Y559D01*
X1710Y559D02*
X1726Y559D01*
X1740Y559D02*
X1749Y559D01*
X1785Y559D02*
X1795Y559D01*
X1838Y559D02*
X1851Y559D01*
X254Y558D02*
X263Y558D01*
X301Y558D02*
X317Y558D01*
X321Y558D02*
X331Y558D01*
X350Y558D02*
X359Y558D01*
X393Y558D02*
X409Y558D01*
X418Y558D02*
X427Y558D01*
X453Y558D02*
X462Y558D01*
X509Y558D02*
X524Y558D01*
X1452Y558D02*
X1462Y558D01*
X1478Y558D02*
X1487Y558D01*
X1520Y558D02*
X1529Y558D01*
X1579Y558D02*
X1597Y558D01*
X1672Y558D02*
X1681Y558D01*
X1709Y558D02*
X1725Y558D01*
X1740Y558D02*
X1749Y558D01*
X1783Y558D02*
X1796Y558D01*
X1837Y558D02*
X1852Y558D01*
X254Y557D02*
X263Y557D01*
X300Y557D02*
X316Y557D01*
X321Y557D02*
X331Y557D01*
X350Y557D02*
X359Y557D01*
X392Y557D02*
X408Y557D01*
X418Y557D02*
X427Y557D01*
X453Y557D02*
X462Y557D01*
X510Y557D02*
X526Y557D01*
X1452Y557D02*
X1462Y557D01*
X1478Y557D02*
X1487Y557D01*
X1520Y557D02*
X1529Y557D01*
X1579Y557D02*
X1597Y557D01*
X1672Y557D02*
X1681Y557D01*
X1708Y557D02*
X1724Y557D01*
X1740Y557D02*
X1749Y557D01*
X1782Y557D02*
X1796Y557D01*
X1835Y557D02*
X1853Y557D01*
X254Y556D02*
X263Y556D01*
X299Y556D02*
X314Y556D01*
X321Y556D02*
X331Y556D01*
X350Y556D02*
X359Y556D01*
X391Y556D02*
X406Y556D01*
X418Y556D02*
X427Y556D01*
X453Y556D02*
X462Y556D01*
X512Y556D02*
X527Y556D01*
X1452Y556D02*
X1462Y556D01*
X1478Y556D02*
X1487Y556D01*
X1520Y556D02*
X1529Y556D01*
X1579Y556D02*
X1597Y556D01*
X1672Y556D02*
X1681Y556D01*
X1707Y556D02*
X1722Y556D01*
X1740Y556D02*
X1749Y556D01*
X1781Y556D02*
X1796Y556D01*
X1834Y556D02*
X1854Y556D01*
X254Y555D02*
X263Y555D01*
X297Y555D02*
X313Y555D01*
X321Y555D02*
X331Y555D01*
X350Y555D02*
X359Y555D01*
X389Y555D02*
X405Y555D01*
X418Y555D02*
X427Y555D01*
X453Y555D02*
X462Y555D01*
X513Y555D02*
X527Y555D01*
X1452Y555D02*
X1462Y555D01*
X1478Y555D02*
X1487Y555D01*
X1520Y555D02*
X1529Y555D01*
X1579Y555D02*
X1597Y555D01*
X1672Y555D02*
X1681Y555D01*
X1705Y555D02*
X1721Y555D01*
X1740Y555D02*
X1749Y555D01*
X1781Y555D02*
X1796Y555D01*
X1833Y555D02*
X1854Y555D01*
X254Y554D02*
X263Y554D01*
X296Y554D02*
X312Y554D01*
X321Y554D02*
X331Y554D01*
X350Y554D02*
X359Y554D01*
X388Y554D02*
X404Y554D01*
X418Y554D02*
X427Y554D01*
X453Y554D02*
X462Y554D01*
X514Y554D02*
X528Y554D01*
X1452Y554D02*
X1462Y554D01*
X1478Y554D02*
X1487Y554D01*
X1520Y554D02*
X1529Y554D01*
X1579Y554D02*
X1597Y554D01*
X1672Y554D02*
X1681Y554D01*
X1704Y554D02*
X1720Y554D01*
X1740Y554D02*
X1749Y554D01*
X1780Y554D02*
X1795Y554D01*
X1832Y554D02*
X1855Y554D01*
X254Y553D02*
X263Y553D01*
X295Y553D02*
X310Y553D01*
X321Y553D02*
X331Y553D01*
X350Y553D02*
X359Y553D01*
X387Y553D02*
X402Y553D01*
X418Y553D02*
X427Y553D01*
X453Y553D02*
X462Y553D01*
X515Y553D02*
X528Y553D01*
X1452Y553D02*
X1462Y553D01*
X1478Y553D02*
X1487Y553D01*
X1520Y553D02*
X1529Y553D01*
X1579Y553D02*
X1597Y553D01*
X1672Y553D02*
X1681Y553D01*
X1703Y553D02*
X1718Y553D01*
X1740Y553D02*
X1749Y553D01*
X1780Y553D02*
X1795Y553D01*
X1830Y553D02*
X1855Y553D01*
X254Y552D02*
X263Y552D01*
X293Y552D02*
X309Y552D01*
X321Y552D02*
X331Y552D01*
X350Y552D02*
X359Y552D01*
X385Y552D02*
X401Y552D01*
X418Y552D02*
X427Y552D01*
X453Y552D02*
X462Y552D01*
X517Y552D02*
X529Y552D01*
X1453Y552D02*
X1462Y552D01*
X1478Y552D02*
X1487Y552D01*
X1520Y552D02*
X1529Y552D01*
X1579Y552D02*
X1597Y552D01*
X1672Y552D02*
X1681Y552D01*
X1701Y552D02*
X1717Y552D01*
X1740Y552D02*
X1749Y552D01*
X1779Y552D02*
X1794Y552D01*
X1829Y552D02*
X1855Y552D01*
X254Y551D02*
X263Y551D01*
X292Y551D02*
X308Y551D01*
X321Y551D02*
X331Y551D01*
X350Y551D02*
X359Y551D01*
X384Y551D02*
X400Y551D01*
X418Y551D02*
X427Y551D01*
X453Y551D02*
X462Y551D01*
X481Y551D02*
X484Y551D01*
X518Y551D02*
X529Y551D01*
X1453Y551D02*
X1462Y551D01*
X1478Y551D02*
X1487Y551D01*
X1520Y551D02*
X1529Y551D01*
X1579Y551D02*
X1597Y551D01*
X1672Y551D02*
X1681Y551D01*
X1700Y551D02*
X1716Y551D01*
X1740Y551D02*
X1749Y551D01*
X1779Y551D02*
X1790Y551D01*
X1828Y551D02*
X1843Y551D01*
X1846Y551D02*
X1855Y551D01*
X254Y550D02*
X263Y550D01*
X291Y550D02*
X307Y550D01*
X321Y550D02*
X331Y550D01*
X350Y550D02*
X359Y550D01*
X383Y550D02*
X399Y550D01*
X418Y550D02*
X427Y550D01*
X453Y550D02*
X462Y550D01*
X480Y550D02*
X486Y550D01*
X519Y550D02*
X529Y550D01*
X1453Y550D02*
X1462Y550D01*
X1478Y550D02*
X1487Y550D01*
X1520Y550D02*
X1529Y550D01*
X1579Y550D02*
X1596Y550D01*
X1672Y550D02*
X1681Y550D01*
X1699Y550D02*
X1715Y550D01*
X1740Y550D02*
X1749Y550D01*
X1779Y550D02*
X1788Y550D01*
X1826Y550D02*
X1842Y550D01*
X1846Y550D02*
X1856Y550D01*
X254Y549D02*
X263Y549D01*
X290Y549D02*
X305Y549D01*
X321Y549D02*
X331Y549D01*
X350Y549D02*
X359Y549D01*
X382Y549D02*
X397Y549D01*
X418Y549D02*
X427Y549D01*
X453Y549D02*
X462Y549D01*
X479Y549D02*
X487Y549D01*
X520Y549D02*
X530Y549D01*
X1453Y549D02*
X1463Y549D01*
X1478Y549D02*
X1487Y549D01*
X1520Y549D02*
X1529Y549D01*
X1580Y549D02*
X1596Y549D01*
X1672Y549D02*
X1681Y549D01*
X1698Y549D02*
X1713Y549D01*
X1740Y549D02*
X1749Y549D01*
X1779Y549D02*
X1788Y549D01*
X1825Y549D02*
X1841Y549D01*
X1846Y549D02*
X1856Y549D01*
X254Y548D02*
X263Y548D01*
X288Y548D02*
X304Y548D01*
X321Y548D02*
X331Y548D01*
X350Y548D02*
X359Y548D01*
X380Y548D02*
X396Y548D01*
X418Y548D02*
X427Y548D01*
X453Y548D02*
X462Y548D01*
X479Y548D02*
X487Y548D01*
X520Y548D02*
X530Y548D01*
X1453Y548D02*
X1465Y548D01*
X1478Y548D02*
X1487Y548D01*
X1520Y548D02*
X1529Y548D01*
X1581Y548D02*
X1595Y548D01*
X1672Y548D02*
X1681Y548D01*
X1696Y548D02*
X1712Y548D01*
X1740Y548D02*
X1749Y548D01*
X1779Y548D02*
X1788Y548D01*
X1824Y548D02*
X1840Y548D01*
X1846Y548D02*
X1856Y548D01*
X254Y547D02*
X263Y547D01*
X287Y547D02*
X303Y547D01*
X321Y547D02*
X331Y547D01*
X350Y547D02*
X359Y547D01*
X379Y547D02*
X395Y547D01*
X418Y547D02*
X427Y547D01*
X453Y547D02*
X462Y547D01*
X478Y547D02*
X487Y547D01*
X521Y547D02*
X530Y547D01*
X1454Y547D02*
X1487Y547D01*
X1520Y547D02*
X1529Y547D01*
X1583Y547D02*
X1593Y547D01*
X1672Y547D02*
X1681Y547D01*
X1695Y547D02*
X1711Y547D01*
X1740Y547D02*
X1749Y547D01*
X1779Y547D02*
X1788Y547D01*
X1823Y547D02*
X1838Y547D01*
X1846Y547D02*
X1856Y547D01*
X254Y546D02*
X263Y546D01*
X286Y546D02*
X301Y546D01*
X321Y546D02*
X331Y546D01*
X350Y546D02*
X359Y546D01*
X378Y546D02*
X393Y546D01*
X418Y546D02*
X427Y546D01*
X453Y546D02*
X462Y546D01*
X478Y546D02*
X487Y546D01*
X521Y546D02*
X530Y546D01*
X1454Y546D02*
X1487Y546D01*
X1520Y546D02*
X1529Y546D01*
X1672Y546D02*
X1681Y546D01*
X1694Y546D02*
X1709Y546D01*
X1740Y546D02*
X1749Y546D01*
X1779Y546D02*
X1788Y546D01*
X1821Y546D02*
X1837Y546D01*
X1846Y546D02*
X1856Y546D01*
X254Y545D02*
X263Y545D01*
X284Y545D02*
X300Y545D01*
X321Y545D02*
X331Y545D01*
X350Y545D02*
X359Y545D01*
X376Y545D02*
X392Y545D01*
X418Y545D02*
X427Y545D01*
X453Y545D02*
X462Y545D01*
X478Y545D02*
X487Y545D01*
X521Y545D02*
X530Y545D01*
X1455Y545D02*
X1487Y545D01*
X1520Y545D02*
X1529Y545D01*
X1672Y545D02*
X1681Y545D01*
X1692Y545D02*
X1708Y545D01*
X1740Y545D02*
X1749Y545D01*
X1779Y545D02*
X1788Y545D01*
X1820Y545D02*
X1836Y545D01*
X1846Y545D02*
X1856Y545D01*
X254Y544D02*
X263Y544D01*
X283Y544D02*
X299Y544D01*
X321Y544D02*
X331Y544D01*
X350Y544D02*
X359Y544D01*
X375Y544D02*
X391Y544D01*
X418Y544D02*
X427Y544D01*
X453Y544D02*
X462Y544D01*
X478Y544D02*
X487Y544D01*
X521Y544D02*
X530Y544D01*
X1455Y544D02*
X1487Y544D01*
X1520Y544D02*
X1529Y544D01*
X1672Y544D02*
X1681Y544D01*
X1691Y544D02*
X1707Y544D01*
X1740Y544D02*
X1749Y544D01*
X1779Y544D02*
X1788Y544D01*
X1819Y544D02*
X1834Y544D01*
X1846Y544D02*
X1856Y544D01*
X254Y543D02*
X263Y543D01*
X282Y543D02*
X298Y543D01*
X321Y543D02*
X331Y543D01*
X350Y543D02*
X359Y543D01*
X374Y543D02*
X390Y543D01*
X418Y543D02*
X427Y543D01*
X453Y543D02*
X462Y543D01*
X478Y543D02*
X487Y543D01*
X521Y543D02*
X530Y543D01*
X1456Y543D02*
X1487Y543D01*
X1520Y543D02*
X1529Y543D01*
X1672Y543D02*
X1681Y543D01*
X1690Y543D02*
X1706Y543D01*
X1740Y543D02*
X1749Y543D01*
X1779Y543D02*
X1788Y543D01*
X1817Y543D02*
X1833Y543D01*
X1846Y543D02*
X1856Y543D01*
X254Y542D02*
X263Y542D01*
X281Y542D02*
X296Y542D01*
X321Y542D02*
X331Y542D01*
X350Y542D02*
X359Y542D01*
X373Y542D02*
X388Y542D01*
X418Y542D02*
X427Y542D01*
X453Y542D02*
X462Y542D01*
X478Y542D02*
X487Y542D01*
X521Y542D02*
X530Y542D01*
X1457Y542D02*
X1487Y542D01*
X1520Y542D02*
X1529Y542D01*
X1672Y542D02*
X1681Y542D01*
X1688Y542D02*
X1704Y542D01*
X1740Y542D02*
X1749Y542D01*
X1779Y542D02*
X1788Y542D01*
X1816Y542D02*
X1832Y542D01*
X1846Y542D02*
X1856Y542D01*
X254Y541D02*
X263Y541D01*
X279Y541D02*
X295Y541D01*
X321Y541D02*
X331Y541D01*
X350Y541D02*
X359Y541D01*
X371Y541D02*
X387Y541D01*
X418Y541D02*
X427Y541D01*
X453Y541D02*
X462Y541D01*
X478Y541D02*
X487Y541D01*
X521Y541D02*
X530Y541D01*
X1458Y541D02*
X1487Y541D01*
X1521Y541D02*
X1529Y541D01*
X1672Y541D02*
X1681Y541D01*
X1687Y541D02*
X1703Y541D01*
X1740Y541D02*
X1749Y541D01*
X1779Y541D02*
X1788Y541D01*
X1815Y541D02*
X1831Y541D01*
X1846Y541D02*
X1856Y541D01*
X254Y540D02*
X263Y540D01*
X278Y540D02*
X294Y540D01*
X321Y540D02*
X331Y540D01*
X350Y540D02*
X359Y540D01*
X370Y540D02*
X386Y540D01*
X418Y540D02*
X427Y540D01*
X453Y540D02*
X462Y540D01*
X478Y540D02*
X487Y540D01*
X521Y540D02*
X530Y540D01*
X1459Y540D02*
X1487Y540D01*
X1521Y540D02*
X1529Y540D01*
X1672Y540D02*
X1681Y540D01*
X1686Y540D02*
X1702Y540D01*
X1740Y540D02*
X1749Y540D01*
X1779Y540D02*
X1788Y540D01*
X1814Y540D02*
X1829Y540D01*
X1846Y540D02*
X1856Y540D01*
X254Y539D02*
X263Y539D01*
X277Y539D02*
X292Y539D01*
X321Y539D02*
X331Y539D01*
X350Y539D02*
X359Y539D01*
X369Y539D02*
X384Y539D01*
X418Y539D02*
X427Y539D01*
X453Y539D02*
X463Y539D01*
X478Y539D02*
X487Y539D01*
X521Y539D02*
X530Y539D01*
X1461Y539D02*
X1487Y539D01*
X1522Y539D02*
X1528Y539D01*
X1672Y539D02*
X1682Y539D01*
X1685Y539D02*
X1700Y539D01*
X1739Y539D02*
X1749Y539D01*
X1779Y539D02*
X1788Y539D01*
X1812Y539D02*
X1828Y539D01*
X1846Y539D02*
X1856Y539D01*
X254Y538D02*
X263Y538D01*
X275Y538D02*
X291Y538D01*
X321Y538D02*
X331Y538D01*
X350Y538D02*
X359Y538D01*
X367Y538D02*
X383Y538D01*
X418Y538D02*
X427Y538D01*
X453Y538D02*
X464Y538D01*
X478Y538D02*
X487Y538D01*
X521Y538D02*
X530Y538D01*
X1464Y538D02*
X1487Y538D01*
X1523Y538D02*
X1527Y538D01*
X1672Y538D02*
X1699Y538D01*
X1735Y538D02*
X1749Y538D01*
X1779Y538D02*
X1788Y538D01*
X1811Y538D02*
X1827Y538D01*
X1846Y538D02*
X1856Y538D01*
X254Y537D02*
X263Y537D01*
X274Y537D02*
X290Y537D01*
X321Y537D02*
X331Y537D01*
X350Y537D02*
X359Y537D01*
X366Y537D02*
X382Y537D01*
X418Y537D02*
X427Y537D01*
X454Y537D02*
X465Y537D01*
X478Y537D02*
X487Y537D01*
X521Y537D02*
X530Y537D01*
X1673Y537D02*
X1698Y537D01*
X1733Y537D02*
X1748Y537D01*
X1779Y537D02*
X1788Y537D01*
X1810Y537D02*
X1825Y537D01*
X1846Y537D02*
X1856Y537D01*
X254Y536D02*
X263Y536D01*
X273Y536D02*
X289Y536D01*
X321Y536D02*
X331Y536D01*
X350Y536D02*
X359Y536D01*
X365Y536D02*
X381Y536D01*
X418Y536D02*
X427Y536D01*
X454Y536D02*
X487Y536D01*
X521Y536D02*
X530Y536D01*
X563Y536D02*
X565Y536D01*
X1673Y536D02*
X1697Y536D01*
X1733Y536D02*
X1748Y536D01*
X1779Y536D02*
X1788Y536D01*
X1808Y536D02*
X1824Y536D01*
X1846Y536D02*
X1856Y536D01*
X254Y535D02*
X263Y535D01*
X272Y535D02*
X287Y535D01*
X321Y535D02*
X331Y535D01*
X350Y535D02*
X359Y535D01*
X364Y535D02*
X379Y535D01*
X417Y535D02*
X427Y535D01*
X454Y535D02*
X487Y535D01*
X521Y535D02*
X530Y535D01*
X561Y535D02*
X567Y535D01*
X1673Y535D02*
X1695Y535D01*
X1732Y535D02*
X1747Y535D01*
X1779Y535D02*
X1788Y535D01*
X1807Y535D02*
X1823Y535D01*
X1846Y535D02*
X1856Y535D01*
X254Y534D02*
X263Y534D01*
X270Y534D02*
X286Y534D01*
X321Y534D02*
X331Y534D01*
X350Y534D02*
X359Y534D01*
X362Y534D02*
X378Y534D01*
X416Y534D02*
X427Y534D01*
X455Y534D02*
X487Y534D01*
X521Y534D02*
X530Y534D01*
X560Y534D02*
X568Y534D01*
X1674Y534D02*
X1694Y534D01*
X1732Y534D02*
X1747Y534D01*
X1779Y534D02*
X1788Y534D01*
X1806Y534D02*
X1822Y534D01*
X1846Y534D02*
X1856Y534D01*
X254Y533D02*
X263Y533D01*
X269Y533D02*
X285Y533D01*
X321Y533D02*
X331Y533D01*
X350Y533D02*
X377Y533D01*
X413Y533D02*
X426Y533D01*
X456Y533D02*
X487Y533D01*
X521Y533D02*
X530Y533D01*
X560Y533D02*
X568Y533D01*
X1674Y533D02*
X1693Y533D01*
X1732Y533D02*
X1746Y533D01*
X1779Y533D02*
X1788Y533D01*
X1805Y533D02*
X1820Y533D01*
X1846Y533D02*
X1856Y533D01*
X254Y532D02*
X263Y532D01*
X268Y532D02*
X283Y532D01*
X321Y532D02*
X330Y532D01*
X350Y532D02*
X375Y532D01*
X411Y532D02*
X426Y532D01*
X456Y532D02*
X487Y532D01*
X521Y532D02*
X530Y532D01*
X559Y532D02*
X568Y532D01*
X1675Y532D02*
X1691Y532D01*
X1732Y532D02*
X1745Y532D01*
X1779Y532D02*
X1788Y532D01*
X1803Y532D02*
X1819Y532D01*
X1846Y532D02*
X1856Y532D01*
X254Y531D02*
X263Y531D01*
X266Y531D02*
X282Y531D01*
X320Y531D02*
X330Y531D01*
X350Y531D02*
X374Y531D01*
X410Y531D02*
X426Y531D01*
X457Y531D02*
X487Y531D01*
X521Y531D02*
X530Y531D01*
X559Y531D02*
X569Y531D01*
X1676Y531D02*
X1690Y531D01*
X1732Y531D02*
X1744Y531D01*
X1779Y531D02*
X1788Y531D01*
X1802Y531D02*
X1818Y531D01*
X1846Y531D02*
X1856Y531D01*
X254Y530D02*
X281Y530D01*
X318Y530D02*
X330Y530D01*
X351Y530D02*
X373Y530D01*
X410Y530D02*
X425Y530D01*
X458Y530D02*
X487Y530D01*
X521Y530D02*
X530Y530D01*
X558Y530D02*
X568Y530D01*
X1678Y530D02*
X1689Y530D01*
X1733Y530D02*
X1742Y530D01*
X1779Y530D02*
X1788Y530D01*
X1801Y530D02*
X1816Y530D01*
X1846Y530D02*
X1856Y530D01*
X254Y529D02*
X280Y529D01*
X315Y529D02*
X330Y529D01*
X351Y529D02*
X372Y529D01*
X409Y529D02*
X424Y529D01*
X460Y529D02*
X487Y529D01*
X521Y529D02*
X529Y529D01*
X558Y529D02*
X568Y529D01*
X1680Y529D02*
X1687Y529D01*
X1734Y529D02*
X1740Y529D01*
X1779Y529D02*
X1788Y529D01*
X1799Y529D02*
X1815Y529D01*
X1846Y529D02*
X1856Y529D01*
X254Y528D02*
X278Y528D01*
X314Y528D02*
X329Y528D01*
X352Y528D02*
X370Y528D01*
X409Y528D02*
X424Y528D01*
X461Y528D02*
X487Y528D01*
X522Y528D02*
X528Y528D01*
X557Y528D02*
X568Y528D01*
X1779Y528D02*
X1788Y528D01*
X1798Y528D02*
X1814Y528D01*
X1846Y528D02*
X1856Y528D01*
X254Y527D02*
X277Y527D01*
X313Y527D02*
X329Y527D01*
X353Y527D02*
X369Y527D01*
X410Y527D02*
X423Y527D01*
X464Y527D02*
X487Y527D01*
X524Y527D02*
X527Y527D01*
X557Y527D02*
X567Y527D01*
X1779Y527D02*
X1788Y527D01*
X1797Y527D02*
X1813Y527D01*
X1846Y527D02*
X1856Y527D01*
X255Y526D02*
X276Y526D01*
X313Y526D02*
X328Y526D01*
X354Y526D02*
X368Y526D01*
X410Y526D02*
X421Y526D01*
X557Y526D02*
X567Y526D01*
X589Y526D02*
X632Y526D01*
X1779Y526D02*
X1788Y526D01*
X1796Y526D02*
X1811Y526D01*
X1846Y526D02*
X1856Y526D01*
X255Y525D02*
X274Y525D01*
X313Y525D02*
X328Y525D01*
X355Y525D02*
X366Y525D01*
X411Y525D02*
X420Y525D01*
X556Y525D02*
X566Y525D01*
X589Y525D02*
X632Y525D01*
X1779Y525D02*
X1788Y525D01*
X1794Y525D02*
X1810Y525D01*
X1846Y525D02*
X1855Y525D01*
X256Y524D02*
X273Y524D01*
X313Y524D02*
X327Y524D01*
X357Y524D02*
X365Y524D01*
X412Y524D02*
X418Y524D01*
X556Y524D02*
X566Y524D01*
X589Y524D02*
X632Y524D01*
X1779Y524D02*
X1788Y524D01*
X1793Y524D02*
X1809Y524D01*
X1846Y524D02*
X1855Y524D01*
X257Y523D02*
X272Y523D01*
X313Y523D02*
X326Y523D01*
X556Y523D02*
X566Y523D01*
X589Y523D02*
X632Y523D01*
X1779Y523D02*
X1788Y523D01*
X1792Y523D02*
X1807Y523D01*
X1846Y523D02*
X1855Y523D01*
X258Y522D02*
X271Y522D01*
X314Y522D02*
X324Y522D01*
X556Y522D02*
X565Y522D01*
X589Y522D02*
X632Y522D01*
X1779Y522D02*
X1788Y522D01*
X1790Y522D02*
X1806Y522D01*
X1844Y522D02*
X1855Y522D01*
X260Y521D02*
X269Y521D01*
X315Y521D02*
X323Y521D01*
X555Y521D02*
X565Y521D01*
X589Y521D02*
X632Y521D01*
X1779Y521D02*
X1805Y521D01*
X1841Y521D02*
X1855Y521D01*
X263Y520D02*
X266Y520D01*
X317Y520D02*
X319Y520D01*
X555Y520D02*
X564Y520D01*
X589Y520D02*
X632Y520D01*
X1779Y520D02*
X1804Y520D01*
X1839Y520D02*
X1854Y520D01*
X555Y519D02*
X564Y519D01*
X589Y519D02*
X632Y519D01*
X1779Y519D02*
X1802Y519D01*
X1839Y519D02*
X1854Y519D01*
X555Y518D02*
X564Y518D01*
X589Y518D02*
X632Y518D01*
X1780Y518D02*
X1801Y518D01*
X1838Y518D02*
X1853Y518D01*
X555Y517D02*
X564Y517D01*
X589Y517D02*
X632Y517D01*
X1780Y517D02*
X1800Y517D01*
X1838Y517D02*
X1853Y517D01*
X555Y516D02*
X564Y516D01*
X589Y516D02*
X599Y516D01*
X623Y516D02*
X632Y516D01*
X1781Y516D02*
X1798Y516D01*
X1838Y516D02*
X1852Y516D01*
X555Y515D02*
X564Y515D01*
X589Y515D02*
X598Y515D01*
X623Y515D02*
X632Y515D01*
X1782Y515D02*
X1797Y515D01*
X1838Y515D02*
X1851Y515D01*
X555Y514D02*
X564Y514D01*
X589Y514D02*
X598Y514D01*
X623Y514D02*
X632Y514D01*
X1455Y514D02*
X1529Y514D01*
X1783Y514D02*
X1796Y514D01*
X1839Y514D02*
X1850Y514D01*
X555Y513D02*
X564Y513D01*
X589Y513D02*
X598Y513D01*
X623Y513D02*
X632Y513D01*
X1454Y513D02*
X1529Y513D01*
X1785Y513D02*
X1794Y513D01*
X1840Y513D02*
X1848Y513D01*
X555Y512D02*
X564Y512D01*
X589Y512D02*
X598Y512D01*
X623Y512D02*
X632Y512D01*
X1453Y512D02*
X1529Y512D01*
X1787Y512D02*
X1792Y512D01*
X1841Y512D02*
X1845Y512D01*
X555Y511D02*
X564Y511D01*
X589Y511D02*
X598Y511D01*
X623Y511D02*
X632Y511D01*
X1453Y511D02*
X1529Y511D01*
X555Y510D02*
X564Y510D01*
X589Y510D02*
X598Y510D01*
X623Y510D02*
X632Y510D01*
X1452Y510D02*
X1529Y510D01*
X555Y509D02*
X564Y509D01*
X589Y509D02*
X598Y509D01*
X623Y509D02*
X632Y509D01*
X1453Y509D02*
X1529Y509D01*
X1570Y509D02*
X1572Y509D01*
X1638Y509D02*
X1640Y509D01*
X555Y508D02*
X564Y508D01*
X589Y508D02*
X598Y508D01*
X623Y508D02*
X632Y508D01*
X1453Y508D02*
X1529Y508D01*
X1568Y508D02*
X1574Y508D01*
X1636Y508D02*
X1642Y508D01*
X555Y507D02*
X564Y507D01*
X589Y507D02*
X598Y507D01*
X623Y507D02*
X632Y507D01*
X1453Y507D02*
X1529Y507D01*
X1567Y507D02*
X1575Y507D01*
X1635Y507D02*
X1643Y507D01*
X555Y506D02*
X564Y506D01*
X589Y506D02*
X598Y506D01*
X623Y506D02*
X632Y506D01*
X1454Y506D02*
X1529Y506D01*
X1567Y506D02*
X1575Y506D01*
X1635Y506D02*
X1643Y506D01*
X555Y505D02*
X564Y505D01*
X589Y505D02*
X598Y505D01*
X623Y505D02*
X632Y505D01*
X1457Y505D02*
X1529Y505D01*
X1567Y505D02*
X1575Y505D01*
X1634Y505D02*
X1643Y505D01*
X1675Y505D02*
X1679Y505D01*
X1743Y505D02*
X1747Y505D01*
X555Y504D02*
X564Y504D01*
X589Y504D02*
X598Y504D01*
X623Y504D02*
X632Y504D01*
X1511Y504D02*
X1529Y504D01*
X1566Y504D02*
X1575Y504D01*
X1634Y504D02*
X1643Y504D01*
X1674Y504D02*
X1680Y504D01*
X1742Y504D02*
X1748Y504D01*
X455Y503D02*
X530Y503D01*
X555Y503D02*
X564Y503D01*
X589Y503D02*
X598Y503D01*
X623Y503D02*
X632Y503D01*
X1508Y503D02*
X1529Y503D01*
X1566Y503D02*
X1575Y503D01*
X1634Y503D02*
X1643Y503D01*
X1673Y503D02*
X1681Y503D01*
X1741Y503D02*
X1749Y503D01*
X454Y502D02*
X530Y502D01*
X555Y502D02*
X564Y502D01*
X589Y502D02*
X598Y502D01*
X623Y502D02*
X632Y502D01*
X1506Y502D02*
X1529Y502D01*
X1566Y502D02*
X1575Y502D01*
X1634Y502D02*
X1643Y502D01*
X1673Y502D02*
X1681Y502D01*
X1740Y502D02*
X1749Y502D01*
X453Y501D02*
X530Y501D01*
X555Y501D02*
X564Y501D01*
X589Y501D02*
X598Y501D01*
X623Y501D02*
X632Y501D01*
X1504Y501D02*
X1528Y501D01*
X1566Y501D02*
X1575Y501D01*
X1634Y501D02*
X1643Y501D01*
X1672Y501D02*
X1681Y501D01*
X1740Y501D02*
X1749Y501D01*
X353Y500D02*
X356Y500D01*
X420Y500D02*
X424Y500D01*
X453Y500D02*
X530Y500D01*
X555Y500D02*
X564Y500D01*
X589Y500D02*
X598Y500D01*
X623Y500D02*
X632Y500D01*
X1501Y500D02*
X1526Y500D01*
X1566Y500D02*
X1575Y500D01*
X1634Y500D02*
X1643Y500D01*
X1672Y500D02*
X1681Y500D01*
X1740Y500D02*
X1749Y500D01*
X351Y499D02*
X358Y499D01*
X419Y499D02*
X425Y499D01*
X453Y499D02*
X530Y499D01*
X555Y499D02*
X564Y499D01*
X589Y499D02*
X598Y499D01*
X623Y499D02*
X632Y499D01*
X1499Y499D02*
X1523Y499D01*
X1566Y499D02*
X1575Y499D01*
X1603Y499D02*
X1606Y499D01*
X1634Y499D02*
X1643Y499D01*
X1672Y499D02*
X1681Y499D01*
X1740Y499D02*
X1749Y499D01*
X351Y498D02*
X358Y498D01*
X418Y498D02*
X426Y498D01*
X453Y498D02*
X530Y498D01*
X555Y498D02*
X564Y498D01*
X589Y498D02*
X598Y498D01*
X623Y498D02*
X632Y498D01*
X1497Y498D02*
X1521Y498D01*
X1566Y498D02*
X1575Y498D01*
X1602Y498D02*
X1608Y498D01*
X1634Y498D02*
X1643Y498D01*
X1672Y498D02*
X1681Y498D01*
X1740Y498D02*
X1749Y498D01*
X289Y497D02*
X295Y497D01*
X350Y497D02*
X359Y497D01*
X418Y497D02*
X427Y497D01*
X453Y497D02*
X530Y497D01*
X555Y497D02*
X564Y497D01*
X589Y497D02*
X598Y497D01*
X623Y497D02*
X632Y497D01*
X1495Y497D02*
X1519Y497D01*
X1566Y497D02*
X1575Y497D01*
X1601Y497D02*
X1609Y497D01*
X1634Y497D02*
X1643Y497D01*
X1672Y497D02*
X1681Y497D01*
X1740Y497D02*
X1749Y497D01*
X285Y496D02*
X299Y496D01*
X350Y496D02*
X359Y496D01*
X418Y496D02*
X427Y496D01*
X454Y496D02*
X530Y496D01*
X555Y496D02*
X598Y496D01*
X623Y496D02*
X632Y496D01*
X1492Y496D02*
X1517Y496D01*
X1566Y496D02*
X1575Y496D01*
X1601Y496D02*
X1609Y496D01*
X1634Y496D02*
X1643Y496D01*
X1672Y496D02*
X1682Y496D01*
X1740Y496D02*
X1749Y496D01*
X283Y495D02*
X302Y495D01*
X350Y495D02*
X359Y495D01*
X418Y495D02*
X427Y495D01*
X455Y495D02*
X530Y495D01*
X555Y495D02*
X598Y495D01*
X623Y495D02*
X632Y495D01*
X1490Y495D02*
X1514Y495D01*
X1566Y495D02*
X1575Y495D01*
X1600Y495D02*
X1609Y495D01*
X1634Y495D02*
X1643Y495D01*
X1672Y495D02*
X1749Y495D01*
X280Y494D02*
X304Y494D01*
X350Y494D02*
X359Y494D01*
X418Y494D02*
X427Y494D01*
X457Y494D02*
X530Y494D01*
X556Y494D02*
X598Y494D01*
X623Y494D02*
X632Y494D01*
X1488Y494D02*
X1512Y494D01*
X1566Y494D02*
X1575Y494D01*
X1600Y494D02*
X1609Y494D01*
X1634Y494D02*
X1643Y494D01*
X1672Y494D02*
X1749Y494D01*
X278Y493D02*
X306Y493D01*
X350Y493D02*
X359Y493D01*
X418Y493D02*
X427Y493D01*
X511Y493D02*
X530Y493D01*
X556Y493D02*
X598Y493D01*
X623Y493D02*
X632Y493D01*
X1485Y493D02*
X1510Y493D01*
X1566Y493D02*
X1575Y493D01*
X1600Y493D02*
X1609Y493D01*
X1634Y493D02*
X1643Y493D01*
X1672Y493D02*
X1749Y493D01*
X276Y492D02*
X308Y492D01*
X350Y492D02*
X359Y492D01*
X418Y492D02*
X427Y492D01*
X509Y492D02*
X530Y492D01*
X556Y492D02*
X597Y492D01*
X623Y492D02*
X632Y492D01*
X1483Y492D02*
X1507Y492D01*
X1566Y492D02*
X1575Y492D01*
X1600Y492D02*
X1609Y492D01*
X1634Y492D02*
X1643Y492D01*
X1672Y492D02*
X1749Y492D01*
X274Y491D02*
X310Y491D01*
X350Y491D02*
X359Y491D01*
X418Y491D02*
X427Y491D01*
X506Y491D02*
X530Y491D01*
X557Y491D02*
X597Y491D01*
X623Y491D02*
X632Y491D01*
X1481Y491D02*
X1505Y491D01*
X1566Y491D02*
X1575Y491D01*
X1600Y491D02*
X1609Y491D01*
X1634Y491D02*
X1643Y491D01*
X1672Y491D02*
X1749Y491D01*
X272Y490D02*
X312Y490D01*
X350Y490D02*
X427Y490D01*
X504Y490D02*
X528Y490D01*
X558Y490D02*
X596Y490D01*
X623Y490D02*
X632Y490D01*
X1479Y490D02*
X1503Y490D01*
X1566Y490D02*
X1575Y490D01*
X1600Y490D02*
X1609Y490D01*
X1634Y490D02*
X1643Y490D01*
X1672Y490D02*
X1749Y490D01*
X270Y489D02*
X314Y489D01*
X350Y489D02*
X427Y489D01*
X502Y489D02*
X526Y489D01*
X559Y489D02*
X595Y489D01*
X624Y489D02*
X632Y489D01*
X1476Y489D02*
X1501Y489D01*
X1566Y489D02*
X1575Y489D01*
X1600Y489D02*
X1609Y489D01*
X1634Y489D02*
X1643Y489D01*
X1672Y489D02*
X1749Y489D01*
X1817Y489D02*
X1817Y489D01*
X268Y488D02*
X316Y488D01*
X350Y488D02*
X427Y488D01*
X499Y488D02*
X524Y488D01*
X560Y488D02*
X593Y488D01*
X625Y488D02*
X631Y488D01*
X1474Y488D02*
X1498Y488D01*
X1566Y488D02*
X1575Y488D01*
X1600Y488D02*
X1609Y488D01*
X1634Y488D02*
X1643Y488D01*
X1672Y488D02*
X1749Y488D01*
X1811Y488D02*
X1823Y488D01*
X266Y487D02*
X290Y487D01*
X295Y487D02*
X318Y487D01*
X350Y487D02*
X427Y487D01*
X497Y487D02*
X521Y487D01*
X562Y487D02*
X591Y487D01*
X626Y487D02*
X629Y487D01*
X1472Y487D02*
X1496Y487D01*
X1566Y487D02*
X1575Y487D01*
X1600Y487D02*
X1609Y487D01*
X1634Y487D02*
X1643Y487D01*
X1672Y487D02*
X1749Y487D01*
X1808Y487D02*
X1826Y487D01*
X264Y486D02*
X286Y486D01*
X298Y486D02*
X320Y486D01*
X350Y486D02*
X427Y486D01*
X495Y486D02*
X519Y486D01*
X1470Y486D02*
X1494Y486D01*
X1566Y486D02*
X1575Y486D01*
X1600Y486D02*
X1609Y486D01*
X1634Y486D02*
X1643Y486D01*
X1672Y486D02*
X1749Y486D01*
X1806Y486D02*
X1828Y486D01*
X263Y485D02*
X284Y485D01*
X300Y485D02*
X322Y485D01*
X350Y485D02*
X427Y485D01*
X493Y485D02*
X517Y485D01*
X1467Y485D02*
X1492Y485D01*
X1566Y485D02*
X1575Y485D01*
X1600Y485D02*
X1609Y485D01*
X1634Y485D02*
X1643Y485D01*
X1672Y485D02*
X1681Y485D01*
X1740Y485D02*
X1749Y485D01*
X1804Y485D02*
X1830Y485D01*
X261Y484D02*
X282Y484D01*
X302Y484D02*
X324Y484D01*
X350Y484D02*
X427Y484D01*
X490Y484D02*
X515Y484D01*
X1465Y484D02*
X1489Y484D01*
X1566Y484D02*
X1575Y484D01*
X1600Y484D02*
X1609Y484D01*
X1634Y484D02*
X1643Y484D01*
X1672Y484D02*
X1681Y484D01*
X1740Y484D02*
X1749Y484D01*
X1802Y484D02*
X1832Y484D01*
X259Y483D02*
X280Y483D01*
X304Y483D02*
X325Y483D01*
X350Y483D02*
X427Y483D01*
X488Y483D02*
X512Y483D01*
X1463Y483D02*
X1487Y483D01*
X1566Y483D02*
X1575Y483D01*
X1600Y483D02*
X1609Y483D01*
X1634Y483D02*
X1643Y483D01*
X1672Y483D02*
X1681Y483D01*
X1740Y483D02*
X1749Y483D01*
X1800Y483D02*
X1834Y483D01*
X258Y482D02*
X278Y482D01*
X306Y482D02*
X326Y482D01*
X350Y482D02*
X427Y482D01*
X486Y482D02*
X510Y482D01*
X1460Y482D02*
X1485Y482D01*
X1566Y482D02*
X1575Y482D01*
X1600Y482D02*
X1609Y482D01*
X1634Y482D02*
X1643Y482D01*
X1672Y482D02*
X1681Y482D01*
X1740Y482D02*
X1749Y482D01*
X1798Y482D02*
X1836Y482D01*
X257Y481D02*
X276Y481D01*
X308Y481D02*
X327Y481D01*
X350Y481D02*
X427Y481D01*
X483Y481D02*
X508Y481D01*
X1458Y481D02*
X1482Y481D01*
X1566Y481D02*
X1575Y481D01*
X1600Y481D02*
X1609Y481D01*
X1634Y481D02*
X1643Y481D01*
X1672Y481D02*
X1682Y481D01*
X1740Y481D02*
X1749Y481D01*
X1796Y481D02*
X1838Y481D01*
X257Y480D02*
X274Y480D01*
X310Y480D02*
X328Y480D01*
X350Y480D02*
X359Y480D01*
X418Y480D02*
X427Y480D01*
X481Y480D02*
X506Y480D01*
X1456Y480D02*
X1480Y480D01*
X1566Y480D02*
X1575Y480D01*
X1600Y480D02*
X1609Y480D01*
X1634Y480D02*
X1643Y480D01*
X1672Y480D02*
X1682Y480D01*
X1740Y480D02*
X1749Y480D01*
X1794Y480D02*
X1840Y480D01*
X256Y479D02*
X272Y479D01*
X312Y479D02*
X328Y479D01*
X350Y479D02*
X359Y479D01*
X418Y479D02*
X427Y479D01*
X479Y479D02*
X503Y479D01*
X1454Y479D02*
X1478Y479D01*
X1566Y479D02*
X1575Y479D01*
X1600Y479D02*
X1609Y479D01*
X1634Y479D02*
X1643Y479D01*
X1673Y479D02*
X1682Y479D01*
X1739Y479D02*
X1749Y479D01*
X1792Y479D02*
X1842Y479D01*
X255Y478D02*
X270Y478D01*
X314Y478D02*
X329Y478D01*
X350Y478D02*
X359Y478D01*
X418Y478D02*
X427Y478D01*
X477Y478D02*
X501Y478D01*
X1452Y478D02*
X1476Y478D01*
X1566Y478D02*
X1575Y478D01*
X1600Y478D02*
X1609Y478D01*
X1634Y478D02*
X1643Y478D01*
X1673Y478D02*
X1684Y478D01*
X1738Y478D02*
X1749Y478D01*
X1790Y478D02*
X1812Y478D01*
X1822Y478D02*
X1844Y478D01*
X255Y477D02*
X268Y477D01*
X316Y477D02*
X329Y477D01*
X350Y477D02*
X359Y477D01*
X418Y477D02*
X427Y477D01*
X474Y477D02*
X499Y477D01*
X1452Y477D02*
X1473Y477D01*
X1566Y477D02*
X1575Y477D01*
X1600Y477D02*
X1609Y477D01*
X1634Y477D02*
X1643Y477D01*
X1673Y477D02*
X1685Y477D01*
X1736Y477D02*
X1748Y477D01*
X1788Y477D02*
X1809Y477D01*
X1825Y477D02*
X1846Y477D01*
X254Y476D02*
X266Y476D01*
X318Y476D02*
X330Y476D01*
X350Y476D02*
X359Y476D01*
X418Y476D02*
X427Y476D01*
X472Y476D02*
X496Y476D01*
X1452Y476D02*
X1471Y476D01*
X1566Y476D02*
X1575Y476D01*
X1600Y476D02*
X1609Y476D01*
X1634Y476D02*
X1643Y476D01*
X1673Y476D02*
X1687Y476D01*
X1734Y476D02*
X1748Y476D01*
X1786Y476D02*
X1807Y476D01*
X1827Y476D02*
X1848Y476D01*
X254Y475D02*
X265Y475D01*
X320Y475D02*
X330Y475D01*
X350Y475D02*
X359Y475D01*
X417Y475D02*
X427Y475D01*
X470Y475D02*
X494Y475D01*
X1452Y475D02*
X1526Y475D01*
X1566Y475D02*
X1575Y475D01*
X1600Y475D02*
X1609Y475D01*
X1634Y475D02*
X1643Y475D01*
X1674Y475D02*
X1689Y475D01*
X1732Y475D02*
X1747Y475D01*
X1785Y475D02*
X1805Y475D01*
X1829Y475D02*
X1850Y475D01*
X254Y474D02*
X264Y474D01*
X321Y474D02*
X330Y474D01*
X350Y474D02*
X360Y474D01*
X417Y474D02*
X427Y474D01*
X468Y474D02*
X492Y474D01*
X1452Y474D02*
X1528Y474D01*
X1566Y474D02*
X1575Y474D01*
X1600Y474D02*
X1610Y474D01*
X1634Y474D02*
X1643Y474D01*
X1675Y474D02*
X1691Y474D01*
X1730Y474D02*
X1747Y474D01*
X1783Y474D02*
X1804Y474D01*
X1831Y474D02*
X1851Y474D01*
X254Y473D02*
X263Y473D01*
X321Y473D02*
X330Y473D01*
X350Y473D02*
X361Y473D01*
X416Y473D02*
X426Y473D01*
X465Y473D02*
X490Y473D01*
X1452Y473D02*
X1528Y473D01*
X1566Y473D02*
X1575Y473D01*
X1600Y473D02*
X1610Y473D01*
X1634Y473D02*
X1643Y473D01*
X1675Y473D02*
X1693Y473D01*
X1728Y473D02*
X1746Y473D01*
X1783Y473D02*
X1802Y473D01*
X1833Y473D02*
X1852Y473D01*
X254Y472D02*
X263Y472D01*
X321Y472D02*
X331Y472D01*
X351Y472D02*
X363Y472D01*
X414Y472D02*
X426Y472D01*
X463Y472D02*
X487Y472D01*
X1452Y472D02*
X1529Y472D01*
X1566Y472D02*
X1575Y472D01*
X1599Y472D02*
X1610Y472D01*
X1634Y472D02*
X1643Y472D01*
X1676Y472D02*
X1695Y472D01*
X1726Y472D02*
X1745Y472D01*
X1782Y472D02*
X1800Y472D01*
X1834Y472D02*
X1853Y472D01*
X254Y471D02*
X263Y471D01*
X321Y471D02*
X331Y471D01*
X351Y471D02*
X365Y471D01*
X412Y471D02*
X426Y471D01*
X461Y471D02*
X485Y471D01*
X1452Y471D02*
X1529Y471D01*
X1566Y471D02*
X1575Y471D01*
X1598Y471D02*
X1611Y471D01*
X1634Y471D02*
X1643Y471D01*
X1677Y471D02*
X1697Y471D01*
X1724Y471D02*
X1744Y471D01*
X1781Y471D02*
X1798Y471D01*
X1836Y471D02*
X1853Y471D01*
X254Y470D02*
X263Y470D01*
X321Y470D02*
X331Y470D01*
X352Y470D02*
X367Y470D01*
X410Y470D02*
X425Y470D01*
X458Y470D02*
X483Y470D01*
X1452Y470D02*
X1529Y470D01*
X1566Y470D02*
X1576Y470D01*
X1597Y470D02*
X1613Y470D01*
X1634Y470D02*
X1643Y470D01*
X1678Y470D02*
X1699Y470D01*
X1722Y470D02*
X1743Y470D01*
X1780Y470D02*
X1796Y470D01*
X1838Y470D02*
X1854Y470D01*
X254Y469D02*
X263Y469D01*
X321Y469D02*
X331Y469D01*
X352Y469D02*
X369Y469D01*
X408Y469D02*
X424Y469D01*
X456Y469D02*
X480Y469D01*
X1452Y469D02*
X1529Y469D01*
X1566Y469D02*
X1643Y469D01*
X1680Y469D02*
X1701Y469D01*
X1720Y469D02*
X1742Y469D01*
X1780Y469D02*
X1794Y469D01*
X1840Y469D02*
X1854Y469D01*
X254Y468D02*
X263Y468D01*
X321Y468D02*
X331Y468D01*
X353Y468D02*
X371Y468D01*
X406Y468D02*
X424Y468D01*
X454Y468D02*
X478Y468D01*
X1452Y468D02*
X1529Y468D01*
X1567Y468D02*
X1643Y468D01*
X1681Y468D02*
X1703Y468D01*
X1718Y468D02*
X1740Y468D01*
X1779Y468D02*
X1792Y468D01*
X1842Y468D02*
X1855Y468D01*
X254Y467D02*
X263Y467D01*
X321Y467D02*
X331Y467D01*
X354Y467D02*
X373Y467D01*
X404Y467D02*
X423Y467D01*
X453Y467D02*
X476Y467D01*
X1452Y467D02*
X1528Y467D01*
X1567Y467D02*
X1643Y467D01*
X1684Y467D02*
X1706Y467D01*
X1716Y467D02*
X1738Y467D01*
X1779Y467D02*
X1790Y467D01*
X1844Y467D02*
X1855Y467D01*
X254Y466D02*
X263Y466D01*
X321Y466D02*
X331Y466D01*
X354Y466D02*
X375Y466D01*
X402Y466D02*
X422Y466D01*
X453Y466D02*
X474Y466D01*
X1452Y466D02*
X1527Y466D01*
X1567Y466D02*
X1643Y466D01*
X1686Y466D02*
X1710Y466D01*
X1712Y466D02*
X1736Y466D01*
X1779Y466D02*
X1789Y466D01*
X1845Y466D02*
X1855Y466D01*
X254Y465D02*
X263Y465D01*
X321Y465D02*
X331Y465D01*
X356Y465D02*
X377Y465D01*
X400Y465D02*
X421Y465D01*
X453Y465D02*
X471Y465D01*
X1568Y465D02*
X1642Y465D01*
X1688Y465D02*
X1734Y465D01*
X1779Y465D02*
X1788Y465D01*
X1846Y465D02*
X1855Y465D01*
X254Y464D02*
X263Y464D01*
X321Y464D02*
X331Y464D01*
X357Y464D02*
X379Y464D01*
X398Y464D02*
X419Y464D01*
X453Y464D02*
X526Y464D01*
X1568Y464D02*
X1642Y464D01*
X1690Y464D02*
X1732Y464D01*
X1779Y464D02*
X1788Y464D01*
X1846Y464D02*
X1855Y464D01*
X254Y463D02*
X263Y463D01*
X321Y463D02*
X331Y463D01*
X359Y463D02*
X381Y463D01*
X396Y463D02*
X417Y463D01*
X453Y463D02*
X528Y463D01*
X608Y463D02*
X630Y463D01*
X1569Y463D02*
X1604Y463D01*
X1606Y463D02*
X1641Y463D01*
X1692Y463D02*
X1730Y463D01*
X1779Y463D02*
X1788Y463D01*
X1846Y463D02*
X1856Y463D01*
X254Y462D02*
X263Y462D01*
X321Y462D02*
X331Y462D01*
X361Y462D02*
X383Y462D01*
X394Y462D02*
X415Y462D01*
X453Y462D02*
X529Y462D01*
X605Y462D02*
X631Y462D01*
X1570Y462D02*
X1602Y462D01*
X1607Y462D02*
X1640Y462D01*
X1694Y462D02*
X1728Y462D01*
X1779Y462D02*
X1788Y462D01*
X1846Y462D02*
X1856Y462D01*
X254Y461D02*
X263Y461D01*
X321Y461D02*
X331Y461D01*
X363Y461D02*
X387Y461D01*
X389Y461D02*
X413Y461D01*
X453Y461D02*
X529Y461D01*
X603Y461D02*
X632Y461D01*
X1571Y461D02*
X1601Y461D01*
X1609Y461D02*
X1638Y461D01*
X1696Y461D02*
X1726Y461D01*
X1779Y461D02*
X1788Y461D01*
X1846Y461D02*
X1856Y461D01*
X254Y460D02*
X263Y460D01*
X321Y460D02*
X331Y460D01*
X365Y460D02*
X411Y460D01*
X453Y460D02*
X530Y460D01*
X600Y460D02*
X632Y460D01*
X1574Y460D02*
X1598Y460D01*
X1612Y460D02*
X1636Y460D01*
X1698Y460D02*
X1724Y460D01*
X1779Y460D02*
X1788Y460D01*
X1846Y460D02*
X1856Y460D01*
X254Y459D02*
X263Y459D01*
X321Y459D02*
X331Y459D01*
X367Y459D02*
X409Y459D01*
X453Y459D02*
X530Y459D01*
X597Y459D02*
X632Y459D01*
X1700Y459D02*
X1722Y459D01*
X1779Y459D02*
X1788Y459D01*
X1846Y459D02*
X1856Y459D01*
X254Y458D02*
X263Y458D01*
X321Y458D02*
X331Y458D01*
X369Y458D02*
X407Y458D01*
X453Y458D02*
X530Y458D01*
X595Y458D02*
X632Y458D01*
X1702Y458D02*
X1720Y458D01*
X1779Y458D02*
X1788Y458D01*
X1846Y458D02*
X1856Y458D01*
X254Y457D02*
X263Y457D01*
X321Y457D02*
X331Y457D01*
X371Y457D02*
X405Y457D01*
X453Y457D02*
X529Y457D01*
X592Y457D02*
X632Y457D01*
X1704Y457D02*
X1717Y457D01*
X1779Y457D02*
X1788Y457D01*
X1846Y457D02*
X1856Y457D01*
X254Y456D02*
X263Y456D01*
X321Y456D02*
X331Y456D01*
X373Y456D02*
X403Y456D01*
X453Y456D02*
X529Y456D01*
X590Y456D02*
X631Y456D01*
X1709Y456D02*
X1713Y456D01*
X1779Y456D02*
X1788Y456D01*
X1846Y456D02*
X1856Y456D01*
X254Y455D02*
X263Y455D01*
X321Y455D02*
X331Y455D01*
X375Y455D02*
X401Y455D01*
X453Y455D02*
X527Y455D01*
X587Y455D02*
X630Y455D01*
X1779Y455D02*
X1788Y455D01*
X1846Y455D02*
X1856Y455D01*
X254Y454D02*
X263Y454D01*
X321Y454D02*
X331Y454D01*
X377Y454D02*
X399Y454D01*
X585Y454D02*
X628Y454D01*
X1779Y454D02*
X1788Y454D01*
X1846Y454D02*
X1856Y454D01*
X254Y453D02*
X263Y453D01*
X321Y453D02*
X331Y453D01*
X379Y453D02*
X397Y453D01*
X582Y453D02*
X609Y453D01*
X1779Y453D02*
X1788Y453D01*
X1846Y453D02*
X1856Y453D01*
X254Y452D02*
X263Y452D01*
X322Y452D02*
X330Y452D01*
X382Y452D02*
X395Y452D01*
X579Y452D02*
X606Y452D01*
X1779Y452D02*
X1788Y452D01*
X1846Y452D02*
X1856Y452D01*
X254Y451D02*
X262Y451D01*
X322Y451D02*
X330Y451D01*
X386Y451D02*
X390Y451D01*
X577Y451D02*
X604Y451D01*
X1779Y451D02*
X1788Y451D01*
X1846Y451D02*
X1856Y451D01*
X254Y450D02*
X262Y450D01*
X322Y450D02*
X330Y450D01*
X574Y450D02*
X601Y450D01*
X1779Y450D02*
X1788Y450D01*
X1846Y450D02*
X1856Y450D01*
X255Y449D02*
X261Y449D01*
X323Y449D02*
X329Y449D01*
X572Y449D02*
X599Y449D01*
X1779Y449D02*
X1788Y449D01*
X1846Y449D02*
X1856Y449D01*
X257Y448D02*
X260Y448D01*
X325Y448D02*
X328Y448D01*
X569Y448D02*
X596Y448D01*
X1779Y448D02*
X1788Y448D01*
X1846Y448D02*
X1856Y448D01*
X567Y447D02*
X594Y447D01*
X1779Y447D02*
X1788Y447D01*
X1846Y447D02*
X1856Y447D01*
X564Y446D02*
X591Y446D01*
X1779Y446D02*
X1788Y446D01*
X1846Y446D02*
X1856Y446D01*
X561Y445D02*
X589Y445D01*
X1779Y445D02*
X1788Y445D01*
X1846Y445D02*
X1856Y445D01*
X559Y444D02*
X586Y444D01*
X1779Y444D02*
X1788Y444D01*
X1846Y444D02*
X1855Y444D01*
X557Y443D02*
X583Y443D01*
X1779Y443D02*
X1787Y443D01*
X1847Y443D02*
X1855Y443D01*
X556Y442D02*
X581Y442D01*
X1455Y442D02*
X1459Y442D01*
X1523Y442D02*
X1527Y442D01*
X1779Y442D02*
X1787Y442D01*
X1847Y442D02*
X1855Y442D01*
X556Y441D02*
X578Y441D01*
X1454Y441D02*
X1460Y441D01*
X1522Y441D02*
X1528Y441D01*
X1780Y441D02*
X1786Y441D01*
X1848Y441D02*
X1854Y441D01*
X555Y440D02*
X576Y440D01*
X1453Y440D02*
X1461Y440D01*
X1521Y440D02*
X1529Y440D01*
X1781Y440D02*
X1785Y440D01*
X1849Y440D02*
X1853Y440D01*
X555Y439D02*
X574Y439D01*
X1453Y439D02*
X1461Y439D01*
X1521Y439D02*
X1529Y439D01*
X555Y438D02*
X576Y438D01*
X1453Y438D02*
X1461Y438D01*
X1520Y438D02*
X1529Y438D01*
X556Y437D02*
X579Y437D01*
X1452Y437D02*
X1462Y437D01*
X1520Y437D02*
X1529Y437D01*
X1621Y437D02*
X1639Y437D01*
X556Y436D02*
X581Y436D01*
X1452Y436D02*
X1462Y436D01*
X1520Y436D02*
X1529Y436D01*
X1619Y436D02*
X1641Y436D01*
X557Y435D02*
X584Y435D01*
X1452Y435D02*
X1462Y435D01*
X1520Y435D02*
X1529Y435D01*
X1616Y435D02*
X1642Y435D01*
X559Y434D02*
X586Y434D01*
X1452Y434D02*
X1462Y434D01*
X1520Y434D02*
X1529Y434D01*
X1613Y434D02*
X1643Y434D01*
X562Y433D02*
X589Y433D01*
X1452Y433D02*
X1462Y433D01*
X1520Y433D02*
X1529Y433D01*
X1611Y433D02*
X1643Y433D01*
X1675Y433D02*
X1679Y433D01*
X565Y432D02*
X591Y432D01*
X1452Y432D02*
X1529Y432D01*
X1608Y432D02*
X1643Y432D01*
X1674Y432D02*
X1682Y432D01*
X456Y431D02*
X459Y431D01*
X523Y431D02*
X527Y431D01*
X567Y431D02*
X594Y431D01*
X1452Y431D02*
X1529Y431D01*
X1606Y431D02*
X1643Y431D01*
X1673Y431D02*
X1685Y431D01*
X454Y430D02*
X461Y430D01*
X522Y430D02*
X528Y430D01*
X570Y430D02*
X597Y430D01*
X1452Y430D02*
X1529Y430D01*
X1603Y430D02*
X1643Y430D01*
X1673Y430D02*
X1689Y430D01*
X453Y429D02*
X461Y429D01*
X521Y429D02*
X529Y429D01*
X572Y429D02*
X599Y429D01*
X1452Y429D02*
X1529Y429D01*
X1601Y429D02*
X1642Y429D01*
X1672Y429D02*
X1692Y429D01*
X353Y428D02*
X356Y428D01*
X453Y428D02*
X462Y428D01*
X521Y428D02*
X530Y428D01*
X575Y428D02*
X602Y428D01*
X1452Y428D02*
X1529Y428D01*
X1598Y428D02*
X1641Y428D01*
X1672Y428D02*
X1696Y428D01*
X351Y427D02*
X360Y427D01*
X453Y427D02*
X462Y427D01*
X521Y427D02*
X530Y427D01*
X577Y427D02*
X604Y427D01*
X1452Y427D02*
X1529Y427D01*
X1595Y427D02*
X1638Y427D01*
X1673Y427D02*
X1699Y427D01*
X351Y426D02*
X363Y426D01*
X453Y426D02*
X462Y426D01*
X521Y426D02*
X530Y426D01*
X580Y426D02*
X607Y426D01*
X1452Y426D02*
X1529Y426D01*
X1593Y426D02*
X1620Y426D01*
X1673Y426D02*
X1703Y426D01*
X254Y425D02*
X326Y425D01*
X350Y425D02*
X366Y425D01*
X453Y425D02*
X462Y425D01*
X521Y425D02*
X530Y425D01*
X582Y425D02*
X609Y425D01*
X1452Y425D02*
X1529Y425D01*
X1590Y425D02*
X1617Y425D01*
X1674Y425D02*
X1706Y425D01*
X254Y424D02*
X328Y424D01*
X350Y424D02*
X370Y424D01*
X453Y424D02*
X462Y424D01*
X521Y424D02*
X530Y424D01*
X585Y424D02*
X629Y424D01*
X1452Y424D02*
X1529Y424D01*
X1588Y424D02*
X1615Y424D01*
X1675Y424D02*
X1709Y424D01*
X254Y423D02*
X329Y423D01*
X350Y423D02*
X373Y423D01*
X453Y423D02*
X462Y423D01*
X521Y423D02*
X530Y423D01*
X588Y423D02*
X630Y423D01*
X1452Y423D02*
X1529Y423D01*
X1585Y423D02*
X1612Y423D01*
X1678Y423D02*
X1713Y423D01*
X254Y422D02*
X330Y422D01*
X350Y422D02*
X377Y422D01*
X453Y422D02*
X462Y422D01*
X521Y422D02*
X530Y422D01*
X590Y422D02*
X631Y422D01*
X1452Y422D02*
X1462Y422D01*
X1520Y422D02*
X1529Y422D01*
X1583Y422D02*
X1610Y422D01*
X1681Y422D02*
X1716Y422D01*
X254Y421D02*
X330Y421D01*
X351Y421D02*
X380Y421D01*
X453Y421D02*
X530Y421D01*
X593Y421D02*
X632Y421D01*
X1452Y421D02*
X1462Y421D01*
X1520Y421D02*
X1529Y421D01*
X1580Y421D02*
X1607Y421D01*
X1685Y421D02*
X1720Y421D01*
X254Y420D02*
X331Y420D01*
X351Y420D02*
X384Y420D01*
X453Y420D02*
X530Y420D01*
X595Y420D02*
X632Y420D01*
X1452Y420D02*
X1462Y420D01*
X1520Y420D02*
X1529Y420D01*
X1577Y420D02*
X1604Y420D01*
X1688Y420D02*
X1723Y420D01*
X254Y419D02*
X330Y419D01*
X353Y419D02*
X387Y419D01*
X453Y419D02*
X530Y419D01*
X598Y419D02*
X632Y419D01*
X1452Y419D02*
X1462Y419D01*
X1520Y419D02*
X1529Y419D01*
X1575Y419D02*
X1602Y419D01*
X1689Y419D02*
X1726Y419D01*
X254Y418D02*
X330Y418D01*
X355Y418D02*
X390Y418D01*
X453Y418D02*
X530Y418D01*
X600Y418D02*
X632Y418D01*
X1453Y418D02*
X1462Y418D01*
X1520Y418D02*
X1529Y418D01*
X1572Y418D02*
X1599Y418D01*
X1689Y418D02*
X1730Y418D01*
X254Y417D02*
X329Y417D01*
X359Y417D02*
X394Y417D01*
X453Y417D02*
X530Y417D01*
X603Y417D02*
X632Y417D01*
X1453Y417D02*
X1462Y417D01*
X1520Y417D02*
X1529Y417D01*
X1570Y417D02*
X1597Y417D01*
X1689Y417D02*
X1733Y417D01*
X254Y416D02*
X328Y416D01*
X362Y416D02*
X397Y416D01*
X453Y416D02*
X530Y416D01*
X606Y416D02*
X631Y416D01*
X1453Y416D02*
X1463Y416D01*
X1519Y416D02*
X1529Y416D01*
X1568Y416D02*
X1594Y416D01*
X1689Y416D02*
X1698Y416D01*
X1702Y416D02*
X1737Y416D01*
X1779Y416D02*
X1853Y416D01*
X254Y415D02*
X326Y415D01*
X366Y415D02*
X401Y415D01*
X453Y415D02*
X530Y415D01*
X608Y415D02*
X630Y415D01*
X1453Y415D02*
X1464Y415D01*
X1518Y415D02*
X1529Y415D01*
X1567Y415D02*
X1592Y415D01*
X1689Y415D02*
X1698Y415D01*
X1705Y415D02*
X1740Y415D01*
X1779Y415D02*
X1854Y415D01*
X254Y414D02*
X263Y414D01*
X367Y414D02*
X404Y414D01*
X453Y414D02*
X530Y414D01*
X1453Y414D02*
X1466Y414D01*
X1516Y414D02*
X1529Y414D01*
X1567Y414D02*
X1589Y414D01*
X1689Y414D02*
X1698Y414D01*
X1708Y414D02*
X1744Y414D01*
X1779Y414D02*
X1855Y414D01*
X254Y413D02*
X263Y413D01*
X367Y413D02*
X407Y413D01*
X453Y413D02*
X530Y413D01*
X1454Y413D02*
X1468Y413D01*
X1514Y413D02*
X1528Y413D01*
X1566Y413D02*
X1587Y413D01*
X1689Y413D02*
X1698Y413D01*
X1712Y413D02*
X1746Y413D01*
X1779Y413D02*
X1855Y413D01*
X254Y412D02*
X263Y412D01*
X367Y412D02*
X411Y412D01*
X453Y412D02*
X530Y412D01*
X1454Y412D02*
X1470Y412D01*
X1512Y412D02*
X1528Y412D01*
X1566Y412D02*
X1585Y412D01*
X1689Y412D02*
X1698Y412D01*
X1715Y412D02*
X1748Y412D01*
X1779Y412D02*
X1855Y412D01*
X254Y411D02*
X263Y411D01*
X367Y411D02*
X376Y411D01*
X379Y411D02*
X414Y411D01*
X453Y411D02*
X462Y411D01*
X521Y411D02*
X530Y411D01*
X1455Y411D02*
X1472Y411D01*
X1510Y411D02*
X1527Y411D01*
X1567Y411D02*
X1587Y411D01*
X1689Y411D02*
X1698Y411D01*
X1719Y411D02*
X1749Y411D01*
X1779Y411D02*
X1855Y411D01*
X254Y410D02*
X263Y410D01*
X367Y410D02*
X376Y410D01*
X383Y410D02*
X418Y410D01*
X453Y410D02*
X462Y410D01*
X521Y410D02*
X530Y410D01*
X1455Y410D02*
X1473Y410D01*
X1508Y410D02*
X1526Y410D01*
X1567Y410D02*
X1590Y410D01*
X1689Y410D02*
X1698Y410D01*
X1722Y410D02*
X1749Y410D01*
X1779Y410D02*
X1855Y410D01*
X254Y409D02*
X263Y409D01*
X367Y409D02*
X376Y409D01*
X386Y409D02*
X421Y409D01*
X453Y409D02*
X462Y409D01*
X521Y409D02*
X530Y409D01*
X1456Y409D02*
X1475Y409D01*
X1506Y409D02*
X1525Y409D01*
X1567Y409D02*
X1593Y409D01*
X1689Y409D02*
X1698Y409D01*
X1726Y409D02*
X1749Y409D01*
X1779Y409D02*
X1855Y409D01*
X254Y408D02*
X263Y408D01*
X367Y408D02*
X376Y408D01*
X389Y408D02*
X424Y408D01*
X453Y408D02*
X462Y408D01*
X521Y408D02*
X530Y408D01*
X1457Y408D02*
X1477Y408D01*
X1504Y408D02*
X1525Y408D01*
X1569Y408D02*
X1595Y408D01*
X1689Y408D02*
X1698Y408D01*
X1725Y408D02*
X1749Y408D01*
X1779Y408D02*
X1854Y408D01*
X254Y407D02*
X263Y407D01*
X367Y407D02*
X376Y407D01*
X393Y407D02*
X425Y407D01*
X453Y407D02*
X462Y407D01*
X521Y407D02*
X530Y407D01*
X1458Y407D02*
X1479Y407D01*
X1503Y407D02*
X1523Y407D01*
X1571Y407D02*
X1598Y407D01*
X1689Y407D02*
X1698Y407D01*
X1722Y407D02*
X1749Y407D01*
X1779Y407D02*
X1852Y407D01*
X254Y406D02*
X263Y406D01*
X367Y406D02*
X376Y406D01*
X396Y406D02*
X426Y406D01*
X453Y406D02*
X462Y406D01*
X520Y406D02*
X530Y406D01*
X1460Y406D02*
X1481Y406D01*
X1501Y406D02*
X1522Y406D01*
X1573Y406D02*
X1600Y406D01*
X1689Y406D02*
X1698Y406D01*
X1718Y406D02*
X1749Y406D01*
X1779Y406D02*
X1788Y406D01*
X254Y405D02*
X263Y405D01*
X367Y405D02*
X376Y405D01*
X400Y405D02*
X427Y405D01*
X453Y405D02*
X463Y405D01*
X520Y405D02*
X529Y405D01*
X1462Y405D02*
X1483Y405D01*
X1499Y405D02*
X1520Y405D01*
X1576Y405D02*
X1603Y405D01*
X1689Y405D02*
X1698Y405D01*
X1715Y405D02*
X1748Y405D01*
X1779Y405D02*
X1788Y405D01*
X254Y404D02*
X263Y404D01*
X367Y404D02*
X376Y404D01*
X403Y404D02*
X427Y404D01*
X453Y404D02*
X464Y404D01*
X518Y404D02*
X529Y404D01*
X1464Y404D02*
X1486Y404D01*
X1496Y404D02*
X1518Y404D01*
X1578Y404D02*
X1605Y404D01*
X1689Y404D02*
X1698Y404D01*
X1712Y404D02*
X1746Y404D01*
X1779Y404D02*
X1788Y404D01*
X254Y403D02*
X263Y403D01*
X367Y403D02*
X376Y403D01*
X403Y403D02*
X427Y403D01*
X454Y403D02*
X466Y403D01*
X517Y403D02*
X529Y403D01*
X1466Y403D02*
X1490Y403D01*
X1492Y403D02*
X1516Y403D01*
X1581Y403D02*
X1608Y403D01*
X1689Y403D02*
X1698Y403D01*
X1708Y403D02*
X1743Y403D01*
X1779Y403D02*
X1788Y403D01*
X254Y402D02*
X263Y402D01*
X367Y402D02*
X376Y402D01*
X400Y402D02*
X427Y402D01*
X454Y402D02*
X468Y402D01*
X515Y402D02*
X528Y402D01*
X1468Y402D02*
X1514Y402D01*
X1584Y402D02*
X1610Y402D01*
X1689Y402D02*
X1698Y402D01*
X1705Y402D02*
X1740Y402D01*
X1779Y402D02*
X1788Y402D01*
X254Y401D02*
X263Y401D01*
X367Y401D02*
X376Y401D01*
X396Y401D02*
X426Y401D01*
X455Y401D02*
X470Y401D01*
X513Y401D02*
X528Y401D01*
X1470Y401D02*
X1512Y401D01*
X1586Y401D02*
X1613Y401D01*
X1689Y401D02*
X1698Y401D01*
X1702Y401D02*
X1737Y401D01*
X1779Y401D02*
X1788Y401D01*
X254Y400D02*
X263Y400D01*
X367Y400D02*
X376Y400D01*
X393Y400D02*
X425Y400D01*
X455Y400D02*
X472Y400D01*
X511Y400D02*
X527Y400D01*
X1472Y400D02*
X1510Y400D01*
X1589Y400D02*
X1616Y400D01*
X1689Y400D02*
X1733Y400D01*
X1779Y400D02*
X1788Y400D01*
X254Y399D02*
X263Y399D01*
X367Y399D02*
X376Y399D01*
X389Y399D02*
X424Y399D01*
X456Y399D02*
X474Y399D01*
X509Y399D02*
X527Y399D01*
X1474Y399D02*
X1508Y399D01*
X1591Y399D02*
X1618Y399D01*
X1689Y399D02*
X1730Y399D01*
X1779Y399D02*
X1788Y399D01*
X254Y398D02*
X263Y398D01*
X367Y398D02*
X376Y398D01*
X386Y398D02*
X421Y398D01*
X457Y398D02*
X476Y398D01*
X507Y398D02*
X526Y398D01*
X1476Y398D02*
X1506Y398D01*
X1594Y398D02*
X1621Y398D01*
X1689Y398D02*
X1726Y398D01*
X1779Y398D02*
X1788Y398D01*
X254Y397D02*
X263Y397D01*
X367Y397D02*
X376Y397D01*
X383Y397D02*
X418Y397D01*
X457Y397D02*
X478Y397D01*
X505Y397D02*
X525Y397D01*
X1478Y397D02*
X1504Y397D01*
X1596Y397D02*
X1640Y397D01*
X1688Y397D02*
X1723Y397D01*
X1779Y397D02*
X1788Y397D01*
X254Y396D02*
X263Y396D01*
X367Y396D02*
X376Y396D01*
X379Y396D02*
X414Y396D01*
X459Y396D02*
X480Y396D01*
X503Y396D02*
X524Y396D01*
X1480Y396D02*
X1502Y396D01*
X1599Y396D02*
X1642Y396D01*
X1685Y396D02*
X1719Y396D01*
X1779Y396D02*
X1788Y396D01*
X254Y395D02*
X263Y395D01*
X367Y395D02*
X411Y395D01*
X460Y395D02*
X482Y395D01*
X501Y395D02*
X522Y395D01*
X1482Y395D02*
X1500Y395D01*
X1602Y395D02*
X1643Y395D01*
X1681Y395D02*
X1716Y395D01*
X1779Y395D02*
X1788Y395D01*
X254Y394D02*
X263Y394D01*
X367Y394D02*
X407Y394D01*
X462Y394D02*
X484Y394D01*
X499Y394D02*
X520Y394D01*
X1485Y394D02*
X1497Y394D01*
X1604Y394D02*
X1643Y394D01*
X1678Y394D02*
X1713Y394D01*
X1779Y394D02*
X1788Y394D01*
X254Y393D02*
X263Y393D01*
X367Y393D02*
X404Y393D01*
X464Y393D02*
X486Y393D01*
X497Y393D02*
X518Y393D01*
X1489Y393D02*
X1493Y393D01*
X1607Y393D02*
X1643Y393D01*
X1675Y393D02*
X1709Y393D01*
X1779Y393D02*
X1788Y393D01*
X254Y392D02*
X263Y392D01*
X366Y392D02*
X400Y392D01*
X466Y392D02*
X516Y392D01*
X1609Y392D02*
X1643Y392D01*
X1674Y392D02*
X1706Y392D01*
X1779Y392D02*
X1788Y392D01*
X254Y391D02*
X263Y391D01*
X362Y391D02*
X397Y391D01*
X468Y391D02*
X514Y391D01*
X1612Y391D02*
X1643Y391D01*
X1673Y391D02*
X1702Y391D01*
X1779Y391D02*
X1788Y391D01*
X254Y390D02*
X263Y390D01*
X359Y390D02*
X394Y390D01*
X470Y390D02*
X512Y390D01*
X1614Y390D02*
X1643Y390D01*
X1672Y390D02*
X1699Y390D01*
X1779Y390D02*
X1788Y390D01*
X254Y389D02*
X263Y389D01*
X355Y389D02*
X390Y389D01*
X472Y389D02*
X510Y389D01*
X1617Y389D02*
X1642Y389D01*
X1672Y389D02*
X1695Y389D01*
X1779Y389D02*
X1788Y389D01*
X254Y388D02*
X263Y388D01*
X353Y388D02*
X387Y388D01*
X474Y388D02*
X508Y388D01*
X1619Y388D02*
X1641Y388D01*
X1672Y388D02*
X1692Y388D01*
X1779Y388D02*
X1788Y388D01*
X254Y387D02*
X263Y387D01*
X351Y387D02*
X383Y387D01*
X476Y387D02*
X506Y387D01*
X1673Y387D02*
X1689Y387D01*
X1779Y387D02*
X1788Y387D01*
X254Y386D02*
X263Y386D01*
X351Y386D02*
X380Y386D01*
X478Y386D02*
X504Y386D01*
X1673Y386D02*
X1685Y386D01*
X1779Y386D02*
X1788Y386D01*
X254Y385D02*
X263Y385D01*
X350Y385D02*
X376Y385D01*
X480Y385D02*
X502Y385D01*
X1674Y385D02*
X1682Y385D01*
X1779Y385D02*
X1788Y385D01*
X254Y384D02*
X263Y384D01*
X350Y384D02*
X373Y384D01*
X482Y384D02*
X500Y384D01*
X1675Y384D02*
X1678Y384D01*
X1779Y384D02*
X1788Y384D01*
X254Y383D02*
X263Y383D01*
X350Y383D02*
X370Y383D01*
X485Y383D02*
X498Y383D01*
X1779Y383D02*
X1788Y383D01*
X254Y382D02*
X263Y382D01*
X350Y382D02*
X366Y382D01*
X490Y382D02*
X493Y382D01*
X1779Y382D02*
X1788Y382D01*
X254Y381D02*
X263Y381D01*
X351Y381D02*
X363Y381D01*
X1779Y381D02*
X1788Y381D01*
X254Y380D02*
X263Y380D01*
X351Y380D02*
X359Y380D01*
X1779Y380D02*
X1788Y380D01*
X254Y379D02*
X262Y379D01*
X353Y379D02*
X356Y379D01*
X1779Y379D02*
X1788Y379D01*
X254Y378D02*
X262Y378D01*
X1779Y378D02*
X1788Y378D01*
X255Y377D02*
X261Y377D01*
X1779Y377D02*
X1788Y377D01*
X256Y376D02*
X260Y376D01*
X1779Y376D02*
X1788Y376D01*
X1779Y375D02*
X1788Y375D01*
X1779Y374D02*
X1788Y374D01*
X1779Y373D02*
X1788Y373D01*
X1779Y372D02*
X1788Y372D01*
X1779Y371D02*
X1787Y371D01*
X1779Y370D02*
X1787Y370D01*
X1780Y369D02*
X1786Y369D01*
X1781Y368D02*
X1785Y368D01*
X553Y292D02*
X626Y292D01*
X553Y291D02*
X626Y291D01*
X553Y290D02*
X626Y290D01*
X553Y289D02*
X626Y289D01*
X553Y288D02*
X626Y288D01*
X553Y287D02*
X626Y287D01*
X553Y286D02*
X626Y286D01*
X553Y285D02*
X626Y285D01*
X553Y284D02*
X626Y284D01*
X553Y283D02*
X626Y283D01*
X553Y282D02*
X626Y282D01*
X1463Y282D02*
X1536Y282D01*
X553Y281D02*
X626Y281D01*
X1463Y281D02*
X1536Y281D01*
X553Y280D02*
X626Y280D01*
X1463Y280D02*
X1536Y280D01*
X553Y279D02*
X626Y279D01*
X1463Y279D02*
X1536Y279D01*
X553Y278D02*
X626Y278D01*
X1463Y278D02*
X1536Y278D01*
X553Y277D02*
X626Y277D01*
X1463Y277D02*
X1536Y277D01*
X553Y276D02*
X626Y276D01*
X1463Y276D02*
X1536Y276D01*
X553Y275D02*
X584Y275D01*
X595Y275D02*
X626Y275D01*
X1463Y275D02*
X1536Y275D01*
X553Y274D02*
X581Y274D01*
X598Y274D02*
X626Y274D01*
X1463Y274D02*
X1536Y274D01*
X553Y273D02*
X579Y273D01*
X600Y273D02*
X626Y273D01*
X1463Y273D02*
X1536Y273D01*
X553Y272D02*
X578Y272D01*
X602Y272D02*
X626Y272D01*
X1463Y272D02*
X1536Y272D01*
X553Y271D02*
X576Y271D01*
X603Y271D02*
X626Y271D01*
X1463Y271D02*
X1536Y271D01*
X553Y270D02*
X575Y270D01*
X604Y270D02*
X626Y270D01*
X1463Y270D02*
X1536Y270D01*
X553Y269D02*
X574Y269D01*
X605Y269D02*
X626Y269D01*
X1463Y269D02*
X1536Y269D01*
X553Y268D02*
X573Y268D01*
X606Y268D02*
X626Y268D01*
X1463Y268D02*
X1536Y268D01*
X553Y267D02*
X573Y267D01*
X607Y267D02*
X626Y267D01*
X1463Y267D02*
X1536Y267D01*
X553Y266D02*
X572Y266D01*
X607Y266D02*
X626Y266D01*
X1463Y266D02*
X1536Y266D01*
X553Y265D02*
X572Y265D01*
X608Y265D02*
X626Y265D01*
X1463Y265D02*
X1494Y265D01*
X1505Y265D02*
X1536Y265D01*
X553Y264D02*
X571Y264D01*
X608Y264D02*
X626Y264D01*
X1463Y264D02*
X1491Y264D01*
X1508Y264D02*
X1536Y264D01*
X553Y263D02*
X571Y263D01*
X609Y263D02*
X626Y263D01*
X1463Y263D02*
X1489Y263D01*
X1510Y263D02*
X1536Y263D01*
X553Y262D02*
X570Y262D01*
X609Y262D02*
X626Y262D01*
X1463Y262D02*
X1488Y262D01*
X1512Y262D02*
X1536Y262D01*
X553Y261D02*
X570Y261D01*
X609Y261D02*
X626Y261D01*
X1463Y261D02*
X1486Y261D01*
X1513Y261D02*
X1536Y261D01*
X553Y260D02*
X570Y260D01*
X610Y260D02*
X626Y260D01*
X1463Y260D02*
X1485Y260D01*
X1514Y260D02*
X1536Y260D01*
X553Y259D02*
X569Y259D01*
X610Y259D02*
X626Y259D01*
X1463Y259D02*
X1484Y259D01*
X1515Y259D02*
X1536Y259D01*
X553Y258D02*
X569Y258D01*
X610Y258D02*
X626Y258D01*
X1463Y258D02*
X1484Y258D01*
X1516Y258D02*
X1536Y258D01*
X553Y257D02*
X569Y257D01*
X610Y257D02*
X626Y257D01*
X1463Y257D02*
X1483Y257D01*
X1517Y257D02*
X1536Y257D01*
X553Y256D02*
X569Y256D01*
X610Y256D02*
X626Y256D01*
X1463Y256D02*
X1482Y256D01*
X1517Y256D02*
X1536Y256D01*
X553Y255D02*
X569Y255D01*
X610Y255D02*
X626Y255D01*
X1463Y255D02*
X1482Y255D01*
X1518Y255D02*
X1536Y255D01*
X553Y254D02*
X569Y254D01*
X610Y254D02*
X626Y254D01*
X1463Y254D02*
X1481Y254D01*
X1518Y254D02*
X1536Y254D01*
X553Y253D02*
X569Y253D01*
X610Y253D02*
X626Y253D01*
X1463Y253D02*
X1481Y253D01*
X1519Y253D02*
X1536Y253D01*
X553Y252D02*
X569Y252D01*
X610Y252D02*
X626Y252D01*
X1463Y252D02*
X1480Y252D01*
X1519Y252D02*
X1536Y252D01*
X553Y251D02*
X570Y251D01*
X610Y251D02*
X626Y251D01*
X1463Y251D02*
X1480Y251D01*
X1519Y251D02*
X1536Y251D01*
X553Y250D02*
X570Y250D01*
X609Y250D02*
X626Y250D01*
X1463Y250D02*
X1480Y250D01*
X1520Y250D02*
X1536Y250D01*
X553Y249D02*
X570Y249D01*
X609Y249D02*
X626Y249D01*
X1463Y249D02*
X1480Y249D01*
X1520Y249D02*
X1536Y249D01*
X553Y248D02*
X571Y248D01*
X609Y248D02*
X626Y248D01*
X1463Y248D02*
X1479Y248D01*
X1520Y248D02*
X1536Y248D01*
X553Y247D02*
X571Y247D01*
X608Y247D02*
X626Y247D01*
X1463Y247D02*
X1479Y247D01*
X1520Y247D02*
X1536Y247D01*
X553Y246D02*
X572Y246D01*
X608Y246D02*
X626Y246D01*
X1463Y246D02*
X1479Y246D01*
X1520Y246D02*
X1536Y246D01*
X553Y245D02*
X572Y245D01*
X607Y245D02*
X626Y245D01*
X1463Y245D02*
X1479Y245D01*
X1520Y245D02*
X1536Y245D01*
X553Y244D02*
X573Y244D01*
X606Y244D02*
X626Y244D01*
X1463Y244D02*
X1479Y244D01*
X1520Y244D02*
X1536Y244D01*
X553Y243D02*
X574Y243D01*
X605Y243D02*
X626Y243D01*
X1463Y243D02*
X1479Y243D01*
X1520Y243D02*
X1536Y243D01*
X553Y242D02*
X575Y242D01*
X605Y242D02*
X626Y242D01*
X1463Y242D02*
X1480Y242D01*
X1520Y242D02*
X1536Y242D01*
X553Y241D02*
X576Y241D01*
X604Y241D02*
X626Y241D01*
X1463Y241D02*
X1480Y241D01*
X1520Y241D02*
X1536Y241D01*
X553Y240D02*
X577Y240D01*
X602Y240D02*
X626Y240D01*
X1463Y240D02*
X1480Y240D01*
X1519Y240D02*
X1536Y240D01*
X553Y239D02*
X578Y239D01*
X601Y239D02*
X626Y239D01*
X1463Y239D02*
X1480Y239D01*
X1519Y239D02*
X1536Y239D01*
X553Y238D02*
X580Y238D01*
X599Y238D02*
X626Y238D01*
X1463Y238D02*
X1481Y238D01*
X1519Y238D02*
X1536Y238D01*
X553Y237D02*
X582Y237D01*
X597Y237D02*
X626Y237D01*
X1463Y237D02*
X1481Y237D01*
X1518Y237D02*
X1536Y237D01*
X553Y236D02*
X586Y236D01*
X593Y236D02*
X626Y236D01*
X1463Y236D02*
X1482Y236D01*
X1518Y236D02*
X1536Y236D01*
X553Y235D02*
X626Y235D01*
X1463Y235D02*
X1482Y235D01*
X1517Y235D02*
X1536Y235D01*
X553Y234D02*
X626Y234D01*
X1463Y234D02*
X1483Y234D01*
X1516Y234D02*
X1536Y234D01*
X553Y233D02*
X626Y233D01*
X1463Y233D02*
X1484Y233D01*
X1516Y233D02*
X1536Y233D01*
X553Y232D02*
X626Y232D01*
X1463Y232D02*
X1485Y232D01*
X1515Y232D02*
X1536Y232D01*
X553Y231D02*
X626Y231D01*
X1463Y231D02*
X1486Y231D01*
X1514Y231D02*
X1536Y231D01*
X553Y230D02*
X626Y230D01*
X1463Y230D02*
X1487Y230D01*
X1512Y230D02*
X1536Y230D01*
X553Y229D02*
X626Y229D01*
X1463Y229D02*
X1488Y229D01*
X1511Y229D02*
X1536Y229D01*
X553Y228D02*
X626Y228D01*
X1463Y228D02*
X1490Y228D01*
X1509Y228D02*
X1536Y228D01*
X553Y227D02*
X626Y227D01*
X1463Y227D02*
X1492Y227D01*
X1507Y227D02*
X1536Y227D01*
X553Y226D02*
X626Y226D01*
X1463Y226D02*
X1496Y226D01*
X1504Y226D02*
X1536Y226D01*
X553Y225D02*
X626Y225D01*
X1463Y225D02*
X1536Y225D01*
X553Y224D02*
X626Y224D01*
X1463Y224D02*
X1536Y224D01*
X553Y223D02*
X626Y223D01*
X1463Y223D02*
X1536Y223D01*
X553Y222D02*
X626Y222D01*
X1463Y222D02*
X1536Y222D01*
X553Y221D02*
X626Y221D01*
X1463Y221D02*
X1536Y221D01*
X553Y220D02*
X626Y220D01*
X1463Y220D02*
X1536Y220D01*
X553Y219D02*
X626Y219D01*
X1463Y219D02*
X1536Y219D01*
X1463Y218D02*
X1536Y218D01*
X1463Y217D02*
X1536Y217D01*
X1463Y216D02*
X1536Y216D01*
X1463Y215D02*
X1536Y215D01*
X1463Y214D02*
X1536Y214D01*
X1463Y213D02*
X1536Y213D01*
X1463Y212D02*
X1536Y212D01*
X1463Y211D02*
X1536Y211D01*
X1463Y210D02*
X1536Y210D01*
X1463Y209D02*
X1536Y209D01*
X343Y130D02*
X380Y130D01*
X438Y130D02*
X461Y130D01*
X487Y130D02*
X533Y130D01*
X343Y129D02*
X383Y129D01*
X435Y129D02*
X462Y129D01*
X487Y129D02*
X535Y129D01*
X343Y128D02*
X385Y128D01*
X433Y128D02*
X463Y128D01*
X487Y128D02*
X535Y128D01*
X1567Y128D02*
X1605Y128D01*
X1639Y128D02*
X1688Y128D01*
X1733Y128D02*
X1758Y128D01*
X343Y127D02*
X386Y127D01*
X431Y127D02*
X464Y127D01*
X487Y127D02*
X536Y127D01*
X1567Y127D02*
X1608Y127D01*
X1639Y127D02*
X1688Y127D01*
X1730Y127D02*
X1759Y127D01*
X343Y126D02*
X387Y126D01*
X430Y126D02*
X464Y126D01*
X487Y126D02*
X536Y126D01*
X1567Y126D02*
X1609Y126D01*
X1639Y126D02*
X1688Y126D01*
X1729Y126D02*
X1760Y126D01*
X343Y125D02*
X388Y125D01*
X429Y125D02*
X464Y125D01*
X487Y125D02*
X536Y125D01*
X1567Y125D02*
X1611Y125D01*
X1639Y125D02*
X1688Y125D01*
X1727Y125D02*
X1760Y125D01*
X343Y124D02*
X389Y124D01*
X429Y124D02*
X464Y124D01*
X487Y124D02*
X536Y124D01*
X1567Y124D02*
X1612Y124D01*
X1639Y124D02*
X1688Y124D01*
X1726Y124D02*
X1760Y124D01*
X343Y123D02*
X390Y123D01*
X428Y123D02*
X463Y123D01*
X487Y123D02*
X536Y123D01*
X1567Y123D02*
X1612Y123D01*
X1639Y123D02*
X1688Y123D01*
X1726Y123D02*
X1760Y123D01*
X343Y122D02*
X390Y122D01*
X428Y122D02*
X463Y122D01*
X487Y122D02*
X535Y122D01*
X1567Y122D02*
X1613Y122D01*
X1639Y122D02*
X1688Y122D01*
X1725Y122D02*
X1760Y122D01*
X343Y121D02*
X391Y121D01*
X427Y121D02*
X461Y121D01*
X487Y121D02*
X533Y121D01*
X1567Y121D02*
X1614Y121D01*
X1639Y121D02*
X1688Y121D01*
X1724Y121D02*
X1759Y121D01*
X343Y120D02*
X352Y120D01*
X379Y120D02*
X391Y120D01*
X427Y120D02*
X438Y120D01*
X487Y120D02*
X497Y120D01*
X1567Y120D02*
X1614Y120D01*
X1639Y120D02*
X1688Y120D01*
X1724Y120D02*
X1758Y120D01*
X343Y119D02*
X352Y119D01*
X381Y119D02*
X391Y119D01*
X426Y119D02*
X437Y119D01*
X487Y119D02*
X497Y119D01*
X1567Y119D02*
X1615Y119D01*
X1639Y119D02*
X1688Y119D01*
X1723Y119D02*
X1757Y119D01*
X343Y118D02*
X352Y118D01*
X382Y118D02*
X391Y118D01*
X426Y118D02*
X436Y118D01*
X487Y118D02*
X497Y118D01*
X1567Y118D02*
X1576Y118D01*
X1604Y118D02*
X1615Y118D01*
X1639Y118D02*
X1648Y118D01*
X1659Y118D02*
X1668Y118D01*
X1679Y118D02*
X1688Y118D01*
X1723Y118D02*
X1734Y118D01*
X343Y117D02*
X352Y117D01*
X382Y117D02*
X392Y117D01*
X425Y117D02*
X436Y117D01*
X487Y117D02*
X497Y117D01*
X1567Y117D02*
X1576Y117D01*
X1605Y117D02*
X1615Y117D01*
X1639Y117D02*
X1648Y117D01*
X1659Y117D02*
X1668Y117D01*
X1679Y117D02*
X1688Y117D01*
X1722Y117D02*
X1733Y117D01*
X343Y116D02*
X352Y116D01*
X382Y116D02*
X392Y116D01*
X425Y116D02*
X435Y116D01*
X487Y116D02*
X497Y116D01*
X1567Y116D02*
X1576Y116D01*
X1606Y116D02*
X1616Y116D01*
X1639Y116D02*
X1648Y116D01*
X1659Y116D02*
X1668Y116D01*
X1679Y116D02*
X1688Y116D01*
X1722Y116D02*
X1732Y116D01*
X343Y115D02*
X352Y115D01*
X383Y115D02*
X392Y115D01*
X424Y115D02*
X435Y115D01*
X487Y115D02*
X497Y115D01*
X1567Y115D02*
X1576Y115D01*
X1606Y115D02*
X1616Y115D01*
X1639Y115D02*
X1648Y115D01*
X1659Y115D02*
X1668Y115D01*
X1679Y115D02*
X1688Y115D01*
X1721Y115D02*
X1732Y115D01*
X343Y114D02*
X352Y114D01*
X383Y114D02*
X392Y114D01*
X424Y114D02*
X434Y114D01*
X487Y114D02*
X497Y114D01*
X1567Y114D02*
X1576Y114D01*
X1607Y114D02*
X1616Y114D01*
X1640Y114D02*
X1648Y114D01*
X1659Y114D02*
X1668Y114D01*
X1679Y114D02*
X1688Y114D01*
X1721Y114D02*
X1731Y114D01*
X343Y113D02*
X352Y113D01*
X383Y113D02*
X392Y113D01*
X423Y113D02*
X434Y113D01*
X487Y113D02*
X497Y113D01*
X1567Y113D02*
X1576Y113D01*
X1607Y113D02*
X1616Y113D01*
X1640Y113D02*
X1648Y113D01*
X1659Y113D02*
X1668Y113D01*
X1680Y113D02*
X1687Y113D01*
X1720Y113D02*
X1731Y113D01*
X343Y112D02*
X352Y112D01*
X383Y112D02*
X392Y112D01*
X423Y112D02*
X433Y112D01*
X487Y112D02*
X497Y112D01*
X1567Y112D02*
X1576Y112D01*
X1607Y112D02*
X1616Y112D01*
X1641Y112D02*
X1647Y112D01*
X1659Y112D02*
X1668Y112D01*
X1680Y112D02*
X1687Y112D01*
X1720Y112D02*
X1730Y112D01*
X343Y111D02*
X352Y111D01*
X383Y111D02*
X392Y111D01*
X422Y111D02*
X433Y111D01*
X487Y111D02*
X497Y111D01*
X1567Y111D02*
X1576Y111D01*
X1607Y111D02*
X1616Y111D01*
X1642Y111D02*
X1646Y111D01*
X1659Y111D02*
X1668Y111D01*
X1682Y111D02*
X1685Y111D01*
X1719Y111D02*
X1730Y111D01*
X343Y110D02*
X352Y110D01*
X383Y110D02*
X392Y110D01*
X422Y110D02*
X432Y110D01*
X487Y110D02*
X497Y110D01*
X1567Y110D02*
X1576Y110D01*
X1607Y110D02*
X1616Y110D01*
X1659Y110D02*
X1668Y110D01*
X1719Y110D02*
X1729Y110D01*
X343Y109D02*
X352Y109D01*
X383Y109D02*
X392Y109D01*
X421Y109D02*
X432Y109D01*
X487Y109D02*
X497Y109D01*
X1567Y109D02*
X1576Y109D01*
X1607Y109D02*
X1616Y109D01*
X1659Y109D02*
X1668Y109D01*
X1718Y109D02*
X1729Y109D01*
X343Y108D02*
X352Y108D01*
X383Y108D02*
X392Y108D01*
X421Y108D02*
X431Y108D01*
X487Y108D02*
X497Y108D01*
X1567Y108D02*
X1576Y108D01*
X1607Y108D02*
X1616Y108D01*
X1659Y108D02*
X1668Y108D01*
X1718Y108D02*
X1728Y108D01*
X343Y107D02*
X352Y107D01*
X383Y107D02*
X392Y107D01*
X420Y107D02*
X431Y107D01*
X487Y107D02*
X497Y107D01*
X1567Y107D02*
X1576Y107D01*
X1606Y107D02*
X1616Y107D01*
X1659Y107D02*
X1668Y107D01*
X1717Y107D02*
X1728Y107D01*
X343Y106D02*
X352Y106D01*
X383Y106D02*
X392Y106D01*
X420Y106D02*
X430Y106D01*
X487Y106D02*
X497Y106D01*
X1567Y106D02*
X1576Y106D01*
X1606Y106D02*
X1616Y106D01*
X1659Y106D02*
X1668Y106D01*
X1717Y106D02*
X1727Y106D01*
X343Y105D02*
X352Y105D01*
X383Y105D02*
X392Y105D01*
X419Y105D02*
X430Y105D01*
X487Y105D02*
X497Y105D01*
X1567Y105D02*
X1576Y105D01*
X1605Y105D02*
X1615Y105D01*
X1659Y105D02*
X1668Y105D01*
X1716Y105D02*
X1727Y105D01*
X343Y104D02*
X352Y104D01*
X383Y104D02*
X392Y104D01*
X419Y104D02*
X429Y104D01*
X487Y104D02*
X524Y104D01*
X1567Y104D02*
X1576Y104D01*
X1604Y104D02*
X1615Y104D01*
X1659Y104D02*
X1668Y104D01*
X1716Y104D02*
X1726Y104D01*
X343Y103D02*
X352Y103D01*
X383Y103D02*
X392Y103D01*
X418Y103D02*
X428Y103D01*
X487Y103D02*
X525Y103D01*
X1567Y103D02*
X1615Y103D01*
X1659Y103D02*
X1668Y103D01*
X1715Y103D02*
X1726Y103D01*
X343Y102D02*
X352Y102D01*
X383Y102D02*
X392Y102D01*
X418Y102D02*
X428Y102D01*
X487Y102D02*
X526Y102D01*
X1567Y102D02*
X1614Y102D01*
X1659Y102D02*
X1668Y102D01*
X1715Y102D02*
X1725Y102D01*
X343Y101D02*
X352Y101D01*
X383Y101D02*
X392Y101D01*
X417Y101D02*
X427Y101D01*
X487Y101D02*
X526Y101D01*
X1567Y101D02*
X1614Y101D01*
X1659Y101D02*
X1668Y101D01*
X1714Y101D02*
X1725Y101D01*
X343Y100D02*
X352Y100D01*
X383Y100D02*
X392Y100D01*
X417Y100D02*
X427Y100D01*
X487Y100D02*
X526Y100D01*
X1567Y100D02*
X1613Y100D01*
X1659Y100D02*
X1668Y100D01*
X1714Y100D02*
X1724Y100D01*
X343Y99D02*
X352Y99D01*
X383Y99D02*
X392Y99D01*
X416Y99D02*
X426Y99D01*
X487Y99D02*
X526Y99D01*
X1567Y99D02*
X1612Y99D01*
X1659Y99D02*
X1668Y99D01*
X1713Y99D02*
X1724Y99D01*
X343Y98D02*
X352Y98D01*
X383Y98D02*
X392Y98D01*
X416Y98D02*
X426Y98D01*
X487Y98D02*
X526Y98D01*
X1567Y98D02*
X1611Y98D01*
X1659Y98D02*
X1668Y98D01*
X1713Y98D02*
X1723Y98D01*
X343Y97D02*
X352Y97D01*
X383Y97D02*
X392Y97D01*
X416Y97D02*
X425Y97D01*
X487Y97D02*
X525Y97D01*
X1567Y97D02*
X1610Y97D01*
X1659Y97D02*
X1668Y97D01*
X1713Y97D02*
X1723Y97D01*
X343Y96D02*
X352Y96D01*
X382Y96D02*
X392Y96D01*
X416Y96D02*
X425Y96D01*
X487Y96D02*
X524Y96D01*
X1567Y96D02*
X1609Y96D01*
X1659Y96D02*
X1668Y96D01*
X1712Y96D02*
X1722Y96D01*
X343Y95D02*
X352Y95D01*
X382Y95D02*
X391Y95D01*
X415Y95D02*
X425Y95D01*
X487Y95D02*
X522Y95D01*
X1567Y95D02*
X1607Y95D01*
X1659Y95D02*
X1668Y95D01*
X1712Y95D02*
X1722Y95D01*
X343Y94D02*
X352Y94D01*
X381Y94D02*
X391Y94D01*
X415Y94D02*
X425Y94D01*
X487Y94D02*
X497Y94D01*
X1567Y94D02*
X1605Y94D01*
X1659Y94D02*
X1668Y94D01*
X1712Y94D02*
X1721Y94D01*
X343Y93D02*
X352Y93D01*
X380Y93D02*
X391Y93D01*
X415Y93D02*
X424Y93D01*
X487Y93D02*
X497Y93D01*
X1567Y93D02*
X1576Y93D01*
X1584Y93D02*
X1595Y93D01*
X1659Y93D02*
X1668Y93D01*
X1712Y93D02*
X1721Y93D01*
X343Y92D02*
X391Y92D01*
X415Y92D02*
X424Y92D01*
X487Y92D02*
X497Y92D01*
X1567Y92D02*
X1576Y92D01*
X1585Y92D02*
X1596Y92D01*
X1659Y92D02*
X1668Y92D01*
X1712Y92D02*
X1721Y92D01*
X343Y91D02*
X390Y91D01*
X415Y91D02*
X424Y91D01*
X487Y91D02*
X497Y91D01*
X1567Y91D02*
X1576Y91D01*
X1585Y91D02*
X1596Y91D01*
X1659Y91D02*
X1668Y91D01*
X1712Y91D02*
X1721Y91D01*
X343Y90D02*
X390Y90D01*
X415Y90D02*
X424Y90D01*
X487Y90D02*
X497Y90D01*
X1567Y90D02*
X1576Y90D01*
X1586Y90D02*
X1597Y90D01*
X1659Y90D02*
X1668Y90D01*
X1712Y90D02*
X1721Y90D01*
X343Y89D02*
X389Y89D01*
X415Y89D02*
X425Y89D01*
X487Y89D02*
X497Y89D01*
X1567Y89D02*
X1576Y89D01*
X1586Y89D02*
X1597Y89D01*
X1659Y89D02*
X1668Y89D01*
X1712Y89D02*
X1721Y89D01*
X343Y88D02*
X388Y88D01*
X415Y88D02*
X425Y88D01*
X487Y88D02*
X497Y88D01*
X1567Y88D02*
X1576Y88D01*
X1587Y88D02*
X1598Y88D01*
X1659Y88D02*
X1668Y88D01*
X1712Y88D02*
X1721Y88D01*
X343Y87D02*
X387Y87D01*
X416Y87D02*
X425Y87D01*
X487Y87D02*
X497Y87D01*
X1567Y87D02*
X1576Y87D01*
X1588Y87D02*
X1598Y87D01*
X1659Y87D02*
X1668Y87D01*
X1712Y87D02*
X1721Y87D01*
X343Y86D02*
X386Y86D01*
X416Y86D02*
X425Y86D01*
X487Y86D02*
X497Y86D01*
X1567Y86D02*
X1576Y86D01*
X1588Y86D02*
X1599Y86D01*
X1659Y86D02*
X1668Y86D01*
X1712Y86D02*
X1721Y86D01*
X343Y85D02*
X385Y85D01*
X416Y85D02*
X426Y85D01*
X487Y85D02*
X497Y85D01*
X1567Y85D02*
X1576Y85D01*
X1589Y85D02*
X1600Y85D01*
X1659Y85D02*
X1668Y85D01*
X1712Y85D02*
X1722Y85D01*
X343Y84D02*
X384Y84D01*
X416Y84D02*
X426Y84D01*
X487Y84D02*
X497Y84D01*
X1567Y84D02*
X1576Y84D01*
X1589Y84D02*
X1600Y84D01*
X1659Y84D02*
X1668Y84D01*
X1712Y84D02*
X1722Y84D01*
X343Y83D02*
X381Y83D01*
X417Y83D02*
X427Y83D01*
X487Y83D02*
X497Y83D01*
X1567Y83D02*
X1576Y83D01*
X1590Y83D02*
X1601Y83D01*
X1659Y83D02*
X1668Y83D01*
X1713Y83D02*
X1723Y83D01*
X343Y82D02*
X352Y82D01*
X417Y82D02*
X427Y82D01*
X487Y82D02*
X497Y82D01*
X1567Y82D02*
X1576Y82D01*
X1591Y82D02*
X1601Y82D01*
X1659Y82D02*
X1668Y82D01*
X1713Y82D02*
X1723Y82D01*
X343Y81D02*
X352Y81D01*
X418Y81D02*
X428Y81D01*
X487Y81D02*
X497Y81D01*
X1567Y81D02*
X1576Y81D01*
X1591Y81D02*
X1602Y81D01*
X1659Y81D02*
X1668Y81D01*
X1713Y81D02*
X1724Y81D01*
X343Y80D02*
X352Y80D01*
X418Y80D02*
X428Y80D01*
X487Y80D02*
X497Y80D01*
X1567Y80D02*
X1576Y80D01*
X1592Y80D02*
X1603Y80D01*
X1659Y80D02*
X1668Y80D01*
X1714Y80D02*
X1724Y80D01*
X343Y79D02*
X352Y79D01*
X419Y79D02*
X429Y79D01*
X487Y79D02*
X497Y79D01*
X1567Y79D02*
X1576Y79D01*
X1592Y79D02*
X1603Y79D01*
X1659Y79D02*
X1668Y79D01*
X1714Y79D02*
X1725Y79D01*
X343Y78D02*
X352Y78D01*
X419Y78D02*
X429Y78D01*
X487Y78D02*
X497Y78D01*
X1567Y78D02*
X1576Y78D01*
X1593Y78D02*
X1604Y78D01*
X1659Y78D02*
X1668Y78D01*
X1715Y78D02*
X1725Y78D01*
X343Y77D02*
X352Y77D01*
X420Y77D02*
X430Y77D01*
X487Y77D02*
X497Y77D01*
X1567Y77D02*
X1576Y77D01*
X1593Y77D02*
X1604Y77D01*
X1659Y77D02*
X1668Y77D01*
X1715Y77D02*
X1726Y77D01*
X343Y76D02*
X352Y76D01*
X420Y76D02*
X430Y76D01*
X487Y76D02*
X497Y76D01*
X1567Y76D02*
X1576Y76D01*
X1594Y76D02*
X1605Y76D01*
X1659Y76D02*
X1668Y76D01*
X1716Y76D02*
X1726Y76D01*
X343Y75D02*
X352Y75D01*
X421Y75D02*
X431Y75D01*
X487Y75D02*
X497Y75D01*
X1567Y75D02*
X1576Y75D01*
X1595Y75D02*
X1605Y75D01*
X1659Y75D02*
X1668Y75D01*
X1716Y75D02*
X1727Y75D01*
X343Y74D02*
X352Y74D01*
X421Y74D02*
X431Y74D01*
X487Y74D02*
X497Y74D01*
X1567Y74D02*
X1576Y74D01*
X1595Y74D02*
X1606Y74D01*
X1659Y74D02*
X1668Y74D01*
X1717Y74D02*
X1727Y74D01*
X343Y73D02*
X352Y73D01*
X422Y73D02*
X432Y73D01*
X487Y73D02*
X497Y73D01*
X1567Y73D02*
X1576Y73D01*
X1596Y73D02*
X1607Y73D01*
X1659Y73D02*
X1668Y73D01*
X1717Y73D02*
X1728Y73D01*
X343Y72D02*
X352Y72D01*
X422Y72D02*
X433Y72D01*
X487Y72D02*
X497Y72D01*
X1567Y72D02*
X1576Y72D01*
X1596Y72D02*
X1607Y72D01*
X1659Y72D02*
X1668Y72D01*
X1718Y72D02*
X1728Y72D01*
X343Y71D02*
X352Y71D01*
X423Y71D02*
X433Y71D01*
X487Y71D02*
X497Y71D01*
X1567Y71D02*
X1576Y71D01*
X1597Y71D02*
X1608Y71D01*
X1659Y71D02*
X1668Y71D01*
X1718Y71D02*
X1729Y71D01*
X343Y70D02*
X352Y70D01*
X423Y70D02*
X434Y70D01*
X487Y70D02*
X497Y70D01*
X1567Y70D02*
X1576Y70D01*
X1598Y70D02*
X1608Y70D01*
X1659Y70D02*
X1668Y70D01*
X1719Y70D02*
X1729Y70D01*
X343Y69D02*
X352Y69D01*
X424Y69D02*
X434Y69D01*
X487Y69D02*
X497Y69D01*
X1567Y69D02*
X1576Y69D01*
X1598Y69D02*
X1609Y69D01*
X1659Y69D02*
X1668Y69D01*
X1719Y69D02*
X1730Y69D01*
X343Y68D02*
X352Y68D01*
X424Y68D02*
X435Y68D01*
X487Y68D02*
X497Y68D01*
X1567Y68D02*
X1576Y68D01*
X1599Y68D02*
X1610Y68D01*
X1659Y68D02*
X1668Y68D01*
X1720Y68D02*
X1730Y68D01*
X343Y67D02*
X352Y67D01*
X425Y67D02*
X435Y67D01*
X487Y67D02*
X497Y67D01*
X1567Y67D02*
X1576Y67D01*
X1599Y67D02*
X1610Y67D01*
X1659Y67D02*
X1668Y67D01*
X1720Y67D02*
X1731Y67D01*
X343Y66D02*
X352Y66D01*
X425Y66D02*
X436Y66D01*
X487Y66D02*
X497Y66D01*
X1567Y66D02*
X1576Y66D01*
X1600Y66D02*
X1611Y66D01*
X1659Y66D02*
X1668Y66D01*
X1721Y66D02*
X1731Y66D01*
X343Y65D02*
X352Y65D01*
X426Y65D02*
X436Y65D01*
X487Y65D02*
X497Y65D01*
X1567Y65D02*
X1576Y65D01*
X1600Y65D02*
X1611Y65D01*
X1659Y65D02*
X1668Y65D01*
X1721Y65D02*
X1732Y65D01*
X343Y64D02*
X352Y64D01*
X426Y64D02*
X437Y64D01*
X487Y64D02*
X497Y64D01*
X1567Y64D02*
X1576Y64D01*
X1601Y64D02*
X1612Y64D01*
X1659Y64D02*
X1668Y64D01*
X1722Y64D02*
X1732Y64D01*
X343Y63D02*
X352Y63D01*
X427Y63D02*
X438Y63D01*
X487Y63D02*
X497Y63D01*
X1567Y63D02*
X1576Y63D01*
X1602Y63D02*
X1612Y63D01*
X1659Y63D02*
X1668Y63D01*
X1722Y63D02*
X1733Y63D01*
X343Y62D02*
X352Y62D01*
X427Y62D02*
X461Y62D01*
X487Y62D02*
X497Y62D01*
X1567Y62D02*
X1576Y62D01*
X1602Y62D02*
X1613Y62D01*
X1659Y62D02*
X1668Y62D01*
X1723Y62D02*
X1734Y62D01*
X343Y61D02*
X352Y61D01*
X428Y61D02*
X462Y61D01*
X487Y61D02*
X497Y61D01*
X1567Y61D02*
X1576Y61D01*
X1603Y61D02*
X1614Y61D01*
X1659Y61D02*
X1668Y61D01*
X1723Y61D02*
X1736Y61D01*
X343Y60D02*
X352Y60D01*
X428Y60D02*
X463Y60D01*
X487Y60D02*
X497Y60D01*
X1567Y60D02*
X1576Y60D01*
X1603Y60D02*
X1614Y60D01*
X1659Y60D02*
X1668Y60D01*
X1724Y60D02*
X1758Y60D01*
X343Y59D02*
X352Y59D01*
X429Y59D02*
X464Y59D01*
X487Y59D02*
X497Y59D01*
X1567Y59D02*
X1576Y59D01*
X1604Y59D02*
X1615Y59D01*
X1659Y59D02*
X1668Y59D01*
X1724Y59D02*
X1759Y59D01*
X343Y58D02*
X352Y58D01*
X430Y58D02*
X464Y58D01*
X487Y58D02*
X497Y58D01*
X1567Y58D02*
X1576Y58D01*
X1605Y58D02*
X1615Y58D01*
X1659Y58D02*
X1668Y58D01*
X1725Y58D02*
X1760Y58D01*
X343Y57D02*
X352Y57D01*
X431Y57D02*
X464Y57D01*
X488Y57D02*
X496Y57D01*
X1567Y57D02*
X1576Y57D01*
X1605Y57D02*
X1616Y57D01*
X1659Y57D02*
X1668Y57D01*
X1726Y57D02*
X1760Y57D01*
X343Y56D02*
X352Y56D01*
X432Y56D02*
X464Y56D01*
X488Y56D02*
X496Y56D01*
X1567Y56D02*
X1576Y56D01*
X1606Y56D02*
X1616Y56D01*
X1659Y56D02*
X1668Y56D01*
X1726Y56D02*
X1760Y56D01*
X344Y55D02*
X351Y55D01*
X433Y55D02*
X463Y55D01*
X488Y55D02*
X496Y55D01*
X1567Y55D02*
X1576Y55D01*
X1606Y55D02*
X1616Y55D01*
X1659Y55D02*
X1668Y55D01*
X1728Y55D02*
X1760Y55D01*
X344Y54D02*
X350Y54D01*
X435Y54D02*
X462Y54D01*
X489Y54D02*
X495Y54D01*
X1567Y54D02*
X1576Y54D01*
X1607Y54D02*
X1615Y54D01*
X1660Y54D02*
X1668Y54D01*
X1729Y54D02*
X1760Y54D01*
X346Y53D02*
X349Y53D01*
X437Y53D02*
X461Y53D01*
X490Y53D02*
X494Y53D01*
X1568Y53D02*
X1575Y53D01*
X1608Y53D02*
X1615Y53D01*
X1660Y53D02*
X1667Y53D01*
X1730Y53D02*
X1759Y53D01*
X1569Y52D02*
X1574Y52D01*
X1608Y52D02*
X1614Y52D01*
X1661Y52D02*
X1666Y52D01*
X1732Y52D02*
X1758Y52D01*
X1571Y51D02*
X1572Y51D01*
X1610Y51D02*
X1612Y51D01*
X1663Y51D02*
X1664Y51D01*
X1736Y51D02*
X1756Y51D01*
D02*
G04 End of Copper1*
M02*